<svg
        xmlns="http://www.w3.org/2000/svg"
        className="h-7 w-7 stroke-current"
        fill="none"
        viewBox="0 0 512 512"
        stroke="currentColor"
      >
        <path
          stroke-linecap="round"
          stroke-linejoin="round"
          stroke-width="10"
          d="
M326.041199,379.883667 
	C335.633209,381.359650 342.326904,392.349243 342.916992,399.356079 
	C344.010254,412.337555 339.603363,423.571838 331.199188,433.433441 
	C329.744324,435.140656 329.197845,437.622040 328.374298,439.432465 
	C324.464081,442.508209 320.867004,446.255219 316.505890,448.550934 
	C310.119476,451.912689 303.369354,455.772400 296.437469,456.600281 
	C288.255554,457.577484 279.714752,455.549622 271.495544,454.838928 
	C275.280884,465.100555 284.303009,470.415039 295.319824,472.941498 
	C306.882416,475.593079 318.334656,474.094299 328.683655,468.710236 
	C333.370361,466.272003 336.585510,461.009766 340.477692,457.037933 
	C342.423401,455.052368 344.668060,451.243164 346.291077,451.487640 
	C349.953613,452.039337 349.197662,456.112427 348.946442,458.969696 
	C348.196960,467.492767 352.670746,473.707855 358.075134,479.278351 
	C359.616211,480.866760 362.729614,480.929688 365.685272,481.871674 
	C363.334259,477.409485 361.793365,473.352570 359.313171,469.988098 
	C351.609192,459.537445 352.705963,447.782990 353.476898,435.959015 
	C354.068024,426.893311 361.560120,421.690308 365.539276,414.550476 
	C368.324615,409.552673 369.008545,404.409729 369.800293,399.339081 
	C371.503784,388.429169 369.984589,377.347321 364.532684,367.877838 
	C361.495483,362.602509 355.487030,358.679382 350.152618,355.152740 
	C334.554565,344.840729 317.123444,338.563110 299.204102,333.654236 
	C282.490570,329.075653 265.313995,328.189606 248.173340,329.211761 
	C238.649109,329.779724 228.918381,331.410980 219.883163,334.390106 
	C210.709183,337.414948 202.122467,342.405273 193.570694,347.070343 
	C187.482239,350.391571 182.016708,354.850769 175.947647,358.214783 
	C174.625610,358.947571 170.738358,357.796021 170.038467,356.460846 
	C165.599792,347.993347 157.335632,345.460693 149.581757,341.655640 
	C140.984299,337.436646 132.801010,332.299652 124.724304,327.115356 
	C117.462456,322.454041 110.207321,317.637451 103.644836,312.069489 
	C96.082016,305.652771 89.304184,298.313873 82.130577,291.432648 
	C80.856171,290.210175 79.313995,289.266876 78.168892,288.401337 
	C76.220352,284.860138 74.601807,281.181580 72.346817,277.946655 
	C61.905361,262.967865 55.501160,246.361191 53.164886,228.384430 
	C51.670712,216.887268 52.572613,205.548248 55.558987,193.956619 
	C58.917892,180.919006 65.378296,170.528946 74.894997,161.775497 
	C80.855408,156.293121 88.241463,152.886795 96.421097,156.130676 
	C107.824715,160.653137 116.863899,173.310928 106.470749,186.246918 
	C102.144608,191.631516 97.460045,191.705292 91.790054,190.050186 
	C89.765099,189.459091 87.672081,189.101181 85.284180,188.563416 
	C85.284180,186.360580 85.284180,183.937241 85.284180,180.672348 
	C88.228569,181.459534 90.937820,182.210434 93.661102,182.906357 
	C99.203560,184.322739 101.897537,181.870056 103.159225,176.367050 
	C104.471992,170.641220 102.191116,167.593597 97.738007,164.885422 
	C92.220680,161.530060 86.659256,162.348938 82.037804,165.689041 
	C69.099289,175.040207 63.539192,188.592819 60.854755,203.960297 
	C58.815887,215.632111 59.970974,227.185501 62.404648,238.259476 
	C64.553757,248.038589 69.751915,257.207245 74.078461,266.422546 
	C76.173447,270.884735 79.356720,274.836029 82.685669,280.011047 
	C81.675461,271.463562 80.193428,264.374176 80.149261,257.275818 
	C80.082611,246.564056 82.758911,236.216843 88.568985,227.142548 
	C92.207222,221.460251 96.977104,216.500351 101.264236,211.236694 
	C103.156654,208.913193 105.939156,207.645660 108.064217,209.866608 
	C110.471741,212.382751 108.272629,214.789230 106.290962,216.989487 
	C100.777359,223.111267 94.556007,228.613907 91.549629,236.762634 
	C87.980339,246.437103 87.087296,256.381378 88.376266,266.349976 
	C89.247398,273.087097 91.204430,279.883209 93.900520,286.123840 
	C96.182274,291.405365 99.788452,296.297638 103.562065,300.719055 
	C117.685989,317.267609 136.973633,326.412781 155.724335,336.268311 
	C156.524963,336.689148 157.494553,336.788452 159.248810,337.278900 
	C156.298035,330.402832 153.387924,324.346588 151.070038,318.071594 
	C146.009567,304.371979 140.744583,290.715332 136.488037,276.759094 
	C130.319046,256.532410 127.253006,235.680420 129.195572,214.552826 
	C130.294876,202.596832 132.886612,190.708191 135.684799,178.999191 
	C138.164749,168.621750 141.254013,158.294250 145.187912,148.386871 
	C149.126770,138.466934 153.917877,128.787979 159.288727,119.558121 
	C166.384384,107.364166 173.782928,95.244896 182.194641,83.944603 
	C192.221817,70.474083 203.871017,58.477295 217.669876,48.452404 
	C230.095230,39.425392 243.362534,32.148907 257.072632,25.517975 
	C260.622040,23.801292 264.562286,22.892681 268.128815,21.678967 
	C271.746918,29.089357 264.757690,30.655769 262.098145,34.059521 
	C257.082977,40.477989 251.013260,46.068615 245.427536,52.046005 
	C237.122086,60.933823 231.329437,71.291786 227.625809,82.842430 
	C227.230698,84.074722 227.050323,85.375862 226.095123,86.898468 
	C223.573044,87.088860 221.726181,87.025833 219.879303,86.962799 
	C219.916336,86.552826 219.953354,86.142845 219.981003,85.116516 
	C219.966873,84.295357 219.962112,84.090553 219.957367,83.885750 
	C221.145203,73.990379 226.585846,65.988335 231.701157,57.884628 
	C234.134232,54.030170 237.094360,50.511894 239.686523,46.752251 
	C240.455414,45.637070 240.784607,44.218727 241.514221,42.459644 
	C227.668427,48.176228 204.516846,63.722584 177.478256,103.289619 
	C161.010605,127.387634 148.893585,153.648712 141.915771,182.217422 
	C134.771912,211.466095 134.900848,240.595184 142.082886,269.701080 
	C147.772842,292.760162 166.483078,340.144531 174.884628,349.094635 
	C181.447067,345.325531 187.958252,341.327087 194.700043,337.765076 
	C211.128555,329.084991 228.332565,323.225098 247.124374,321.802612 
	C259.178528,320.890137 270.922516,322.147644 282.818329,323.212830 
	C295.464355,324.345184 307.582489,327.375824 319.223206,332.073273 
	C335.379028,338.592712 352.133331,344.404602 364.665436,357.301392 
	C376.160217,369.130615 379.566711,383.524567 377.223236,399.821777 
	C375.613556,411.016113 371.061340,420.393433 364.463837,429.431519 
	C358.521027,437.572723 359.122803,447.330139 361.394714,456.779510 
	C363.400177,465.120911 367.345978,472.727325 374.424042,477.569000 
	C383.899109,484.050323 396.097473,482.577545 403.805725,471.381042 
	C408.965576,463.886169 411.030243,455.805817 406.049377,447.190735 
	C401.406036,439.159393 391.247803,437.629333 386.153656,444.669922 
	C384.630066,446.775635 384.423187,450.465515 384.883240,453.217224 
	C385.475983,456.762573 388.235168,457.066101 390.751373,454.673615 
	C393.088501,452.451477 395.393463,450.145294 398.092651,453.713531 
	C400.791107,457.280914 397.195435,459.954895 395.348633,461.583221 
	C389.815338,466.461761 380.195099,463.769226 377.829559,457.974976 
	C373.033508,446.227417 381.051331,433.199677 393.806091,432.999481 
	C406.316162,432.803131 415.686768,442.270660 416.100281,454.762207 
	C416.356140,462.490509 414.301849,469.207764 410.091888,475.527679 
	C409.164154,476.920410 409.000763,478.822327 408.844727,479.327087 
	C406.765259,481.413086 405.393829,482.788818 403.812073,484.375549 
	C401.480286,485.320587 398.593933,486.336121 395.839539,487.632202 
	C380.348907,494.921448 365.503510,493.364532 352.083160,483.204346 
	C347.676422,479.868073 345.094452,474.121490 341.214386,468.846863 
	C340.168823,469.669525 338.253662,471.745728 335.890289,472.919312 
	C330.683441,475.504913 325.449036,478.537109 319.868927,479.765503 
	C307.818817,482.418121 295.846130,482.410248 284.026459,477.204498 
	C274.595612,473.050873 268.395630,466.048889 264.257050,457.314453 
	C256.264343,440.445923 249.115936,423.292633 238.570984,407.614380 
	C228.467865,392.593018 214.472931,384.070129 198.203537,378.204254 
	C194.725281,376.950165 190.905334,376.389099 187.196701,376.099792 
	C183.439407,375.806702 180.445724,374.501038 180.174881,370.686890 
	C179.898987,366.801208 183.625412,366.052246 186.485657,365.020874 
	C198.058868,360.847778 209.478165,356.663452 222.069763,355.686310 
	C235.582886,354.637726 247.778580,357.022522 258.426025,365.153595 
	C264.626465,369.888672 267.757874,376.513245 265.131744,384.733154 
	C264.747925,385.934570 264.885437,387.302551 264.673706,389.937714 
	C258.898132,389.281982 253.324203,388.978119 247.929916,387.830109 
	C246.373779,387.498932 245.334534,384.739075 244.058319,383.092682 
	C245.696426,382.395630 247.324539,381.152893 248.974823,381.122711 
	C251.821579,381.070679 254.682114,381.772522 257.550354,382.159851 
	C258.275665,375.647461 252.769241,368.019226 246.654755,366.006439 
	C229.390961,360.323486 212.740723,363.099731 195.179123,369.515961 
	C197.416473,370.637695 198.701447,371.609985 200.136459,371.950989 
	C215.520172,375.606964 228.399155,383.496429 238.671906,395.372406 
	C250.304031,408.820007 257.682770,424.837799 265.049347,440.817566 
	C265.378601,441.531769 265.814270,442.422546 266.446411,442.737885 
	C277.122314,448.063568 288.135254,452.318848 300.264709,448.780823 
	C310.510376,445.792267 318.271271,438.753632 324.531006,430.569672 
	C328.945709,424.797852 332.241119,418.004456 335.141907,411.281281 
	C338.917938,402.529572 333.761169,391.347321 324.270447,386.605835 
	C321.399017,383.005707 323.865570,381.495453 326.041199,379.883667 
z"
        />
        <path
          stroke-linecap="round"
          stroke-linejoin="round"
          stroke-width="10"
          d="
M193.041992,183.114655 
	C188.587021,187.356308 183.213821,190.984604 179.880127,195.975250 
	C174.055954,204.694275 172.795242,214.457535 177.775497,224.350800 
	C179.965088,228.700409 184.355759,230.339706 190.012451,228.464478 
	C199.159256,225.432343 205.060181,218.738510 210.109482,210.849411 
	C214.354919,204.216248 219.198441,197.959610 223.891083,191.620605 
	C229.012466,184.702408 234.967270,178.282166 239.199371,170.868820 
	C241.779114,166.349869 242.760895,161.002411 241.895416,154.785507 
	C240.728455,146.402893 235.202316,141.833389 230.677063,136.433090 
	C221.406219,125.369461 217.430252,112.697891 217.070755,98.635887 
	C216.992355,95.569336 217.803375,92.480049 218.784576,89.414574 
	C221.187302,90.951942 223.010223,92.475967 224.833130,93.999992 
	C225.220657,99.751053 224.469482,105.891350 226.270218,111.159340 
	C228.791245,118.534538 233.135147,125.302895 236.928268,132.204987 
	C237.368301,133.005676 239.264252,133.006241 239.412720,133.051422 
	C241.463684,136.581268 243.519119,139.282639 244.695374,142.324020 
	C246.883148,147.980820 248.558563,153.835785 250.572891,159.992172 
	C250.566376,159.995972 251.784882,159.452850 252.811844,158.661240 
	C264.645966,149.539078 275.944580,139.611618 288.380646,131.406479 
	C307.801117,118.593071 328.398315,107.657219 350.757294,100.780785 
	C367.257996,95.706062 383.992889,91.324921 400.778320,87.277054 
	C407.571716,85.638809 414.762970,85.472221 421.798035,85.057823 
	C431.377258,84.493561 440.979492,84.307182 450.573853,84.027397 
	C452.032806,83.984863 453.700348,83.931931 454.917389,84.564720 
	C456.451721,85.362442 458.362762,86.684906 458.700165,88.114113 
	C458.941437,89.136208 457.135040,91.212868 455.772552,91.946083 
	C448.901611,95.643646 441.781006,98.879059 434.927155,102.606094 
	C423.530090,108.803726 414.435303,117.650101 405.782227,127.271584 
	C397.389404,136.603714 391.868927,147.467636 387.029877,158.652527 
	C382.671082,168.727371 378.617218,179.422821 382.145416,190.693756 
	C383.961823,196.496353 387.489685,201.740204 389.829071,207.407867 
	C392.780426,214.557922 395.308105,221.882858 397.736023,229.612244 
	C395.357941,229.728058 393.262421,229.363983 391.166870,228.999908 
	C385.739502,216.868591 379.438232,205.028183 375.261749,192.480499 
	C373.241272,186.410156 374.305908,178.832260 375.609528,172.261475 
	C377.136810,164.563431 380.056580,157.055420 383.117523,149.778458 
	C385.133972,144.984650 388.502533,140.766022 391.200134,136.250717 
	C394.801666,130.222321 398.339691,124.155930 402.412750,117.244270 
	C412.807800,109.394547 424.227509,100.771065 435.843964,91.999001 
	C414.827728,91.979599 394.106171,95.600777 373.647980,101.030869 
	C353.006073,106.509735 333.509857,114.845543 314.594330,124.714233 
	C296.231018,134.294830 278.819641,145.092636 262.256592,160.895920 
	C256.954926,161.646988 241.474228,177.072601 240.940079,182.473129 
	C236.910110,186.624161 233.733093,189.422852 231.115326,192.672089 
	C217.092667,210.077271 207.696686,230.132385 199.052536,250.493561 
	C194.949371,260.158478 192.230957,270.418152 189.019974,280.451508 
	C187.738480,284.455811 187.078171,288.673767 185.598358,292.591736 
	C185.075577,293.975861 182.955673,294.756775 181.564957,295.813080 
	C180.454483,293.991272 178.026886,291.771240 178.438568,290.409637 
	C182.284027,277.690918 186.544708,265.094910 190.838882,252.515839 
	C192.924561,246.406235 195.336777,240.408112 197.804306,233.816895 
	C196.284348,234.143204 194.945663,234.159637 193.873993,234.702835 
	C183.815903,239.801102 174.357803,235.368042 169.791473,225.302841 
	C161.959976,208.040527 172.990845,182.983170 191.687347,176.590729 
	C192.398972,178.995377 192.720474,181.055008 193.041992,183.114655 
z"
        />
        <path
          stroke-linecap="round"
          stroke-linejoin="round"
          stroke-width="10"
          d="
M398.113037,247.044052 
	C395.642151,254.589279 393.731995,262.378540 390.577484,269.626221 
	C384.930695,282.600006 377.822754,294.840149 367.583038,304.822723 
	C357.636230,314.519775 345.849518,320.429413 331.893341,322.858948 
	C317.961670,325.284241 304.663025,324.025177 291.859894,318.814758 
	C279.227905,313.674011 270.744415,303.700592 271.138550,288.713959 
	C271.316711,281.940094 272.906860,275.189270 274.055115,268.461884 
	C274.524811,265.709961 275.991028,262.918854 279.247284,264.233459 
	C280.658844,264.803345 281.780823,267.709930 281.886414,269.618622 
	C282.376709,278.481140 289.228851,291.168091 298.942596,293.571533 
	C307.709808,295.740753 318.377411,291.521454 323.109802,283.676849 
	C328.533783,274.685730 328.740540,265.603149 324.625305,256.183105 
	C322.903137,252.240891 312.428650,246.980698 307.934998,248.114838 
	C304.045288,249.096558 300.318024,250.720840 296.429565,251.709229 
	C295.235870,252.012634 292.649963,251.290405 292.590302,250.805466 
	C292.373383,249.042297 292.279724,246.416962 293.343079,245.474335 
	C303.962311,236.060745 326.295074,241.840576 332.003174,255.131088 
	C336.504272,265.611206 335.919434,275.722076 330.691620,285.721954 
	C323.519165,299.441528 305.039978,305.908234 291.608398,298.628387 
	C286.785187,296.014221 283.099762,291.300903 279.396729,287.993683 
	C278.523010,302.301147 282.700531,306.982635 296.968414,312.925507 
	C307.709625,317.399506 318.991882,317.444244 330.222504,315.806122 
	C348.373657,313.158600 361.530701,302.512451 371.927521,288.128601 
	C381.355438,275.085144 387.065918,260.303650 391.395508,244.275742 
	C396.255035,240.275513 396.621887,244.743759 398.113037,247.044052 
z"
        />
        <path
          stroke-linecap="round"
          stroke-linejoin="round"
          stroke-width="10"
          d="
M318.110626,386.046417 
	C316.308472,387.383575 314.342896,388.552643 312.748077,390.103027 
	C310.996979,391.805328 309.587402,393.858917 308.811493,396.474426 
	C308.524933,396.625854 308.206726,396.948547 307.956604,396.902405 
	C305.144928,396.383728 300.781891,399.942841 299.887329,395.027222 
	C299.492279,392.856598 301.987030,389.511078 304.046265,387.689850 
	C307.412079,384.713104 311.494873,382.547028 315.670654,380.458282 
	C316.747620,382.600555 317.429108,384.323486 318.110626,386.046417 
z"
        />
        <path
          stroke-linecap="round"
          stroke-linejoin="round"
          stroke-width="10"
          d="
M398.417358,246.879532 
	C396.621887,244.743759 396.255035,240.275513 391.466949,243.876495 
	C391.119629,239.285263 391.072815,234.570877 391.096436,229.428207 
	C393.262421,229.363983 395.357941,229.728058 397.785706,230.026154 
	C400.845123,235.454086 398.605377,241.126999 398.417358,246.879532 
z"
        />
        <path
          stroke-linecap="round"
          stroke-linejoin="round"
          stroke-width="10"
          d="
M318.495911,386.027039 
	C317.429108,384.323486 316.747620,382.600555 316.033508,380.522034 
	C319.195587,379.842743 322.390320,379.519073 325.813110,379.539551 
	C323.865570,381.495453 321.399017,383.005707 323.914276,386.528992 
	C322.293671,386.558197 320.587433,386.282928 318.495911,386.027039 
z"
        />
        <path
          stroke-linecap="round"
          stroke-linejoin="round"
          stroke-width="10"
          d="
M193.420929,183.056473 
	C192.720474,181.055008 192.398972,178.995377 192.038666,176.551132 
	C192.658554,176.109863 193.330688,175.941132 193.973251,176.018387 
	C195.627487,176.217255 198.479263,176.145660 198.701889,176.856094 
	C199.585495,179.675705 198.300400,181.825592 195.104645,182.412277 
	C194.649216,182.495895 194.233810,182.797546 193.420929,183.056473 
z"
        />
        <path
          stroke-linecap="round"
          stroke-linejoin="round"
          stroke-width="10"
          d="
M224.914154,93.608765 
	C223.010223,92.475967 221.187302,90.951942 219.129211,89.189041 
	C219.038132,88.370209 219.182236,87.790253 219.602814,87.086548 
	C221.726181,87.025833 223.573044,87.088860 225.767578,87.096924 
	C225.741867,89.100494 225.368515,91.159019 224.914154,93.608765 
z"
        />
        <path
          stroke-linecap="round"
          stroke-linejoin="round"
          stroke-width="10"
          d="
M219.710266,83.983353 
	C219.962112,84.090553 219.966873,84.295357 219.964630,84.807381 
	C219.792816,84.770050 219.627991,84.425499 219.710266,83.983353 
z"
        />
      </svg>