<svg version="1.1" id="Layer_1" xmlns="http://www.w3.org/2000/svg" xmlns:xlink="http://www.w3.org/1999/xlink" x="0px" y="0px"
	 width="100%" viewBox="0 0 372 350" enable-background="new 0 0 372 350" xml:space="preserve">

<path fill="#D86651" opacity="1.000000" stroke="none" 
	d="
M234.607590,117.761528 
	C255.123901,124.183365 264.668793,140.738998 272.103638,158.975098 
	C272.824738,160.743835 271.133636,164.574631 269.384033,166.065460 
	C264.547180,170.186951 260.326416,174.355148 257.836029,180.501495 
	C256.728668,183.234497 252.990768,184.901672 249.844849,187.561646 
	C248.736847,184.725067 248.106461,183.111206 247.472702,181.488724 
	C242.147354,182.639404 236.907288,183.778122 231.664185,184.902710 
	C226.676117,185.972595 221.715439,187.605011 216.683502,187.871353 
	C213.700470,188.029236 210.583237,186.075104 207.563614,184.968887 
	C205.567276,184.237534 203.637085,183.325592 201.198868,182.870804 
	C206.228607,194.763687 195.910934,200.939240 192.408951,210.088074 
	C190.363922,207.113220 188.823120,204.366837 186.805267,202.032898 
	C181.142303,195.482849 173.169891,195.730408 164.924896,194.884613 
	C163.268341,194.692856 162.190750,194.809784 161.113144,194.926697 
	C160.614059,194.954742 160.114990,194.982773 158.891556,194.788422 
	C152.730316,194.808777 147.274506,194.854614 141.864182,195.374146 
	C138.989944,195.650146 136.884705,195.101685 137.170883,192.039597 
	C137.752548,185.815613 138.832031,179.638611 139.685486,173.439362 
	C139.944107,171.560715 140.975708,168.932770 140.138138,167.980148 
	C139.138885,166.843628 136.511383,167.138702 134.082169,166.727844 
	C134.082169,169.589005 134.082169,171.394409 134.082169,173.199814 
	C134.061127,173.699066 134.088150,174.205795 134.011856,174.696442 
	C132.928589,181.663818 131.637512,182.758331 124.764427,182.010254 
	C116.176102,181.075485 109.059235,177.211823 102.833527,171.236740 
	C96.734673,165.383423 90.457863,159.672638 83.853844,154.407700 
	C80.825027,151.993027 76.882812,150.665085 73.252045,149.079666 
	C68.900078,147.179352 68.194778,145.627258 71.411743,142.140060 
	C74.430244,138.867996 78.073547,136.167679 81.475861,133.255432 
	C86.018646,129.366989 90.750526,125.684189 95.115257,121.606956 
	C100.308678,116.755615 106.464096,114.268044 114.130020,112.989090 
	C119.207413,112.871254 123.463760,112.871254 127.720100,112.871254 
	C127.752487,112.304115 127.784866,111.736977 127.817253,111.169838 
	C122.597404,110.828270 117.377556,110.486710 112.157707,110.145149 
	C105.909622,106.356049 99.132767,103.008209 98.297760,94.469147 
	C98.059196,92.029457 97.717255,89.513069 98.051811,87.119789 
	C99.242477,78.602242 100.637840,70.110985 102.118370,61.638199 
	C102.421959,59.900829 103.084946,58.008141 104.172340,56.664639 
	C108.280495,51.588951 111.705978,46.359455 112.621773,39.602699 
	C112.821899,38.126152 115.875938,35.914440 117.561882,35.961632 
	C123.805496,36.136391 130.249634,36.308941 136.209579,37.959068 
	C148.448547,41.347664 160.171310,46.203285 168.018524,57.024620 
	C170.316956,60.194172 171.853271,63.916374 173.908142,68.176941 
	C173.949631,74.272865 173.821854,79.577141 173.466553,84.679810 
	C171.899353,83.240105 170.559708,82.002007 169.050873,80.478302 
	C162.258774,73.725716 153.807129,71.368050 145.081680,69.709007 
	C139.699356,68.685623 137.459290,70.679756 137.000732,76.187584 
	C136.629959,80.640839 136.381226,85.181114 135.286179,89.481056 
	C133.068161,98.190590 131.134171,106.706703 137.195099,114.121475 
	C132.024902,118.066467 127.214035,121.737297 122.106491,125.540115 
	C119.325493,127.312462 116.674919,128.751984 114.394836,130.639114 
	C110.761177,133.646591 111.420746,136.427521 115.616348,138.531662 
	C119.281548,140.369781 123.208206,142.148804 126.140297,144.893143 
	C132.868073,151.190109 139.499329,157.292465 148.670670,157.418488 
	C149.552155,161.084473 150.264709,164.047897 151.081573,167.353546 
	C154.050766,172.530869 156.915634,177.365967 159.949432,182.516510 
	C161.506760,185.462952 163.442276,185.353165 165.845734,184.215881 
	C168.868866,182.785355 172.014999,181.614746 175.478119,180.272354 
	C178.268005,178.850632 180.687836,177.488525 183.422729,176.002655 
	C190.111938,172.120193 192.176300,165.989563 192.538193,158.350113 
	C200.714005,162.444672 208.178436,161.431046 215.755310,157.465393 
	C217.858749,156.090393 219.649139,154.814667 221.734222,153.423233 
	C223.420197,152.280212 224.811493,151.252899 226.533554,150.113785 
	C233.971954,145.857132 234.382431,144.613846 230.438385,138.495743 
	C226.217056,132.446457 222.103470,126.751511 218.291992,120.845039 
	C223.410400,116.768166 229.162720,118.121979 234.607590,117.761528 
z"/>
<path fill="#DA6751" opacity="1.000000" stroke="none" 
	d="
M193.469849,226.261414 
	C195.243515,230.027954 197.017181,233.794495 198.790833,237.561035 
	C199.472702,237.421768 200.154572,237.282501 200.836441,237.143250 
	C200.664444,235.221924 200.492447,233.300613 200.284760,230.679504 
	C201.086517,228.065414 201.515533,225.791641 202.830505,224.297623 
	C209.299347,216.947876 217.994415,215.518829 227.188705,215.837387 
	C228.021713,215.866257 229.334427,216.530930 229.566055,217.198242 
	C231.905624,223.939194 236.605865,230.204895 233.888489,238.293640 
	C230.974640,241.927765 228.223770,245.267029 226.440247,247.432037 
	C242.370911,245.056183 252.480057,250.103668 262.395355,266.777740 
	C257.714111,269.838776 252.992172,272.877991 248.320663,275.992859 
	C241.811920,280.332764 235.349838,280.416016 228.734344,276.165680 
	C224.785355,273.628479 220.676941,271.339447 216.640182,268.938873 
	C216.259430,269.392395 215.878693,269.845917 215.497940,270.299408 
	C217.732101,272.381561 220.022064,274.407379 222.190063,276.556274 
	C228.958817,283.265411 229.389877,287.312225 224.295151,295.471283 
	C223.413788,296.882782 222.575012,298.329712 221.586395,299.663788 
	C216.591705,306.403687 216.117203,306.565125 208.710327,302.868744 
	C205.596512,301.314789 202.629898,299.457367 199.641190,297.663269 
	C195.560013,295.213318 193.627808,291.630524 194.004196,286.811218 
	C194.347183,282.419281 194.574173,278.018250 194.878693,273.203827 
	C193.812485,273.641449 193.191803,273.691986 192.986053,274.010498 
	C187.734741,282.140228 180.188675,284.549194 170.980774,282.999695 
	C170.019669,282.838013 168.991776,283.073242 167.602676,283.072845 
	C166.157516,282.983276 165.104538,282.945160 163.774536,282.720276 
	C162.002899,282.110260 160.508286,281.686951 158.687592,281.081787 
	C155.181198,279.814453 154.426178,277.503174 155.511292,274.610138 
	C157.074142,270.443451 158.901596,266.376801 160.545609,262.239471 
	C161.943512,258.721497 164.692856,257.428986 168.243805,256.982239 
	C172.493607,256.447571 176.705460,255.611282 181.315536,254.911224 
	C183.611389,254.604660 185.525467,254.292480 187.439529,253.980316 
	C187.459183,253.690628 187.478836,253.400955 187.498474,253.111267 
	C184.991089,252.418106 182.483704,251.724945 179.640579,250.873108 
	C168.274719,249.806458 163.801758,242.932083 162.383621,232.763748 
	C161.097458,223.541718 162.537186,221.436844 171.833084,221.102493 
	C175.140396,220.983536 178.454437,221.064865 181.764801,221.014633 
	C186.490707,220.942932 190.529526,222.367447 193.469849,226.261414 
M193.230392,263.246765 
	C193.230392,263.246765 193.249100,263.373077 192.499023,263.377594 
	C189.667221,264.867371 186.835419,266.357178 183.319214,268.185822 
	C180.620361,268.993683 177.672546,269.378204 175.314240,270.765106 
	C173.854370,271.623657 173.290436,274.005615 172.324295,275.703674 
	C174.154312,276.236298 176.030823,277.301636 177.800842,277.147156 
	C179.471405,277.001373 181.045486,275.599823 182.634949,274.702728 
	C187.822067,271.775055 192.852036,268.498230 198.271805,266.099976 
	C199.741272,265.449738 202.737610,266.994171 204.353104,268.344696 
	C205.549881,269.345215 205.818115,271.625702 206.199707,273.400574 
	C207.386139,278.918976 208.226089,284.520935 209.642014,289.975891 
	C210.118469,291.811462 211.641525,293.724335 213.232971,294.768921 
	C213.987320,295.264069 216.878143,294.153564 217.296219,293.146057 
	C218.020950,291.399567 217.729706,289.153717 217.550613,287.145294 
	C217.470169,286.243103 216.568512,285.438324 216.149185,284.538208 
	C213.917526,279.747711 211.384598,275.062042 209.599747,270.108154 
	C207.534485,264.375854 210.721207,260.837219 216.744202,262.225189 
	C223.858673,263.864685 230.791382,266.282471 237.884933,268.029724 
	C239.885437,268.522461 242.321045,268.237366 244.252930,267.505829 
	C244.968872,267.234711 245.533112,263.842865 244.911407,263.292786 
	C243.334320,261.897369 241.114746,260.740967 239.032166,260.491119 
	C231.325470,259.566437 223.534912,259.312134 215.844528,258.289459 
	C209.943436,257.504761 208.076035,253.558868 211.437164,248.689850 
	C214.319260,244.514725 218.084396,240.925323 221.628067,237.239410 
	C223.841965,234.936630 224.594269,232.184235 222.152618,230.352921 
	C220.706772,229.268478 217.305542,229.417770 215.615829,230.418106 
	C213.926971,231.417969 213.125809,234.102493 212.199371,236.166946 
	C210.189728,240.645111 208.549301,245.298248 206.375671,249.690689 
	C204.589615,253.299927 201.381454,253.703125 198.484344,251.232040 
	C194.335495,247.693329 190.679367,243.582138 186.603806,239.949951 
	C184.761993,238.308517 182.494934,237.055771 180.232391,236.050995 
	C179.789886,235.854462 177.556076,238.070923 177.717453,238.396286 
	C178.831940,240.643372 179.964066,243.172638 181.835052,244.698059 
	C187.082489,248.976395 192.689896,252.813187 197.944427,257.569550 
	C197.673294,258.835266 197.402161,260.101013 196.899460,261.685425 
	C196.713531,261.880737 196.490967,262.015594 195.542847,262.125214 
	C194.729950,262.505432 193.917053,262.885681 193.230392,263.246765 
z"/>
<path fill="#D56652" opacity="1.000000" stroke="none" 
	d="
M60.613907,187.250183 
	C59.184574,189.056671 58.113617,191.454895 56.267399,192.573059 
	C44.794960,199.521347 32.070541,198.440536 18.992031,198.114975 
	C23.722950,191.017868 28.252960,184.395218 32.599758,177.654449 
	C37.305119,170.357635 45.998547,169.352097 52.881813,164.903885 
	C44.995419,166.738449 40.906590,161.814774 37.637478,156.735062 
	C33.291447,149.982010 29.820744,142.665619 25.245394,134.251389 
	C36.875862,135.610275 46.795620,136.407608 56.561863,138.093979 
	C60.303139,138.740005 65.703026,139.595337 63.499897,146.398544 
	C63.189236,147.357864 65.717102,150.152893 67.383217,150.686417 
	C77.829628,154.031586 86.034431,160.563232 93.930702,167.850235 
	C99.860474,173.322479 106.366768,178.169983 112.403763,183.121231 
	C106.547348,187.181183 96.701561,186.239761 90.277069,179.834991 
	C87.093193,175.191055 84.293015,171.078537 81.492836,166.966034 
	C81.042839,167.249756 80.592842,167.533478 80.142845,167.817200 
	C82.375084,172.703766 83.751801,178.060287 88.635414,181.490356 
	C92.857918,185.930176 93.019493,191.301804 91.738792,196.761917 
	C90.268135,203.031921 88.386002,209.205826 86.653854,215.413422 
	C86.479759,216.037354 86.107170,216.605881 85.426682,218.047668 
	C76.289490,207.787430 62.896862,201.188324 63.446907,184.307861 
	C65.491013,179.378738 68.042572,175.248154 65.444763,168.899109 
	C63.951473,173.952881 62.839058,177.717636 61.726646,181.482391 
	C61.726646,181.482391 61.581085,181.599899 61.324139,181.910355 
	C60.916096,183.897263 60.764999,185.573730 60.613907,187.250183 
z"/>
<path fill="#D86651" opacity="1.000000" stroke="none" 
	d="
M175.965607,77.037529 
	C176.568054,60.863140 183.595154,57.041492 200.572632,52.735348 
	C208.974640,50.604279 217.978561,50.458900 226.726593,50.295338 
	C229.679352,50.240131 232.704315,52.853107 235.652008,54.334770 
	C236.762024,54.892723 237.681351,56.154076 238.799789,56.315002 
	C243.557938,56.999641 245.371948,60.416168 245.440857,64.348976 
	C245.614609,74.266869 245.507874,84.211601 244.942032,94.112923 
	C244.555298,100.880241 240.483383,105.703018 234.737915,109.152298 
	C231.894867,110.859123 229.138947,112.711044 225.721161,114.744781 
	C222.007401,116.396423 218.916107,117.800606 215.447815,119.198349 
	C212.911621,118.552139 210.752426,117.912376 207.245865,116.873398 
	C214.034637,113.260727 216.166641,107.974472 216.794617,102.041351 
	C217.086975,99.279053 215.981720,96.297745 216.571289,93.652245 
	C217.947525,87.477043 216.558731,82.989540 210.240463,80.178741 
	C200.326096,75.969307 184.449875,79.111702 176.751755,86.349167 
	C176.235855,86.187195 176.037216,86.099327 175.954834,85.629028 
	C176.035934,82.510246 176.000763,79.773888 175.965607,77.037529 
z"/>
<path fill="#D86551" opacity="1.000000" stroke="none" 
	d="
M285.021515,251.004089 
	C285.302612,251.262573 285.583710,251.521072 286.048828,252.276718 
	C286.654907,252.999252 287.076935,253.224655 287.498962,253.450058 
	C287.498962,253.450058 287.610535,253.473709 287.568726,253.897232 
	C289.939697,257.787415 292.314270,261.281555 294.779999,264.710114 
	C296.184875,266.663513 297.858398,268.486786 295.142517,270.665039 
	C287.752289,276.592316 280.447052,282.628601 272.966034,288.438721 
	C266.921417,293.133301 255.324799,293.110901 248.933426,288.753204 
	C245.939301,286.711792 242.837112,284.828857 240.095032,282.669739 
	C248.685822,278.070587 257.017090,273.766327 265.157959,269.127869 
	C265.896637,268.706970 266.106079,265.624878 265.384613,264.645142 
	C259.081329,256.085358 252.514832,247.717224 242.092484,243.955200 
	C243.093918,242.661545 243.829071,241.578018 244.564209,240.494507 
	C244.705658,240.647720 244.847122,240.800949 245.222137,240.774811 
	C255.884415,239.293655 265.952667,239.785889 275.064972,245.977631 
	C276.111023,246.688446 277.903687,246.300446 279.350189,246.421906 
	C279.350189,246.421921 279.470673,246.392517 279.560181,246.787964 
	C281.440308,248.456970 283.230896,249.730530 285.021515,251.004089 
z"/>
<path fill="#D76651" opacity="1.000000" stroke="none" 
	d="
M198.377533,224.012695 
	C196.240021,214.534607 195.516281,205.158768 204.866837,198.968964 
	C209.471893,195.920547 214.810867,193.566513 220.149628,192.143417 
	C227.172394,190.271454 234.512726,189.560837 241.741486,188.525284 
	C242.787613,188.375412 244.723755,188.918762 244.979843,189.610703 
	C248.245071,198.433182 252.011032,207.170471 254.137360,216.282364 
	C255.812164,223.459381 251.782852,229.400818 245.940048,233.790024 
	C243.299759,235.773468 240.614288,237.696762 237.636993,239.727341 
	C237.140686,239.579086 236.921158,239.392715 236.742432,238.938629 
	C236.847672,238.418427 236.876541,238.207825 237.102295,237.639801 
	C240.085678,227.501205 232.971161,220.070236 231.804443,211.144196 
	C225.257477,212.114899 219.001434,212.013504 213.614395,214.127060 
	C208.092575,216.293518 203.421158,220.627441 198.377533,224.012695 
z"/>
<path fill="#D76651" opacity="1.000000" stroke="none" 
	d="
M230.958191,284.404236 
	C235.072067,288.633362 240.086868,292.336029 242.976212,297.280701 
	C244.835342,300.462280 244.561203,305.736786 243.516083,309.606842 
	C240.635483,320.273499 233.241714,328.312317 225.867508,336.768646 
	C214.134430,330.781067 201.453690,326.577911 191.296982,316.674194 
	C191.032486,307.935913 191.012573,299.869568 191.088898,292.149414 
	C195.929611,302.489563 206.147766,304.925476 214.805222,309.480164 
	C215.449173,309.818970 216.989883,309.451691 217.512207,308.871307 
	C223.896118,301.777618 231.416458,295.264923 230.958191,284.404236 
z"/>
<path fill="#D66550" opacity="1.000000" stroke="none" 
	d="
M154.963226,199.405609 
	C155.418182,199.327011 155.873154,199.248413 156.927780,199.358795 
	C159.718689,199.471069 161.909912,199.394379 164.101151,199.317688 
	C164.101151,199.317688 164.422668,199.173416 164.572845,199.292114 
	C164.723038,199.410828 164.875153,199.297668 164.875153,199.297668 
	C164.875153,199.297668 165.343643,199.224380 165.885422,199.564636 
	C168.002380,200.281937 169.659546,200.461655 171.136459,201.075211 
	C174.716095,202.562302 179.050690,203.451492 181.534561,206.056320 
	C184.834625,209.517090 186.665100,214.379227 188.690826,218.572815 
	C179.996292,217.332001 171.661560,216.265472 163.702347,219.553345 
	C161.696381,220.381989 159.262375,222.929169 159.060608,224.895462 
	C158.170822,233.566559 160.036911,241.744507 165.185333,248.779297 
	C163.009384,248.402756 161.263580,248.025787 159.523865,247.622528 
	C156.252335,246.864197 152.984329,246.090683 149.714859,245.323486 
	C149.714859,245.323486 149.852661,245.102264 149.720520,244.872070 
	C148.896469,243.732468 148.332565,242.677826 147.492081,241.936966 
	C141.652649,236.789963 139.639496,229.765518 138.163574,222.586304 
	C136.933823,216.604523 136.199203,210.520920 135.245300,204.482422 
	C135.245300,204.482422 135.268311,204.268860 135.782089,204.337006 
	C142.518326,202.738647 148.740768,201.072128 154.963226,199.405609 
z"/>
<path fill="#A92315" opacity="1.000000" stroke="none" 
	d="
M231.016266,284.059174 
	C231.416458,295.264923 223.896118,301.777618 217.512207,308.871307 
	C216.989883,309.451691 215.449173,309.818970 214.805222,309.480164 
	C206.147766,304.925476 195.929611,302.489563 191.087128,291.754913 
	C190.460297,288.471954 192.445786,284.242310 186.581177,285.104065 
	C180.128708,285.456177 174.062531,285.725830 167.997208,285.635681 
	C167.997009,284.558685 167.995941,283.841492 167.994873,283.124298 
	C168.991776,283.073242 170.019669,282.838013 170.980774,282.999695 
	C180.188675,284.549194 187.734741,282.140228 192.986053,274.010498 
	C193.191803,273.691986 193.812485,273.641449 194.878693,273.203827 
	C194.574173,278.018250 194.347183,282.419281 194.004196,286.811218 
	C193.627808,291.630524 195.560013,295.213318 199.641190,297.663269 
	C202.629898,299.457367 205.596512,301.314789 208.710327,302.868744 
	C216.117203,306.565125 216.591705,306.403687 221.586395,299.663788 
	C222.575012,298.329712 223.413788,296.882782 224.295151,295.471283 
	C229.389877,287.312225 228.958817,283.265411 222.190063,276.556274 
	C220.022064,274.407379 217.732101,272.381561 215.497940,270.299408 
	C215.878693,269.845917 216.259430,269.392395 216.640182,268.938873 
	C220.676941,271.339447 224.785355,273.628479 228.734344,276.165680 
	C235.349838,280.416016 241.811920,280.332764 248.320663,275.992859 
	C252.992172,272.877991 257.714111,269.838776 262.395355,266.777740 
	C252.480057,250.103668 242.370911,245.056183 226.440247,247.432037 
	C228.223770,245.267029 230.974640,241.927765 234.245285,238.293671 
	C235.478516,237.998306 236.191971,237.997757 236.905426,237.997223 
	C236.876541,238.207825 236.847672,238.418427 236.631592,239.123962 
	C236.291626,240.038879 236.138870,240.458847 235.986099,240.878815 
	C237.004852,241.745041 238.023605,242.611252 239.649414,243.655792 
	C240.779709,243.944534 241.302963,244.054932 241.826202,244.165329 
	C252.514832,247.717224 259.081329,256.085358 265.384613,264.645142 
	C266.106079,265.624878 265.896637,268.706970 265.157959,269.127869 
	C257.017090,273.766327 248.685822,278.070587 239.876648,282.806183 
	C239.202744,283.239410 239.058304,283.331818 238.913879,283.424255 
	C236.289032,283.205353 233.555222,280.039764 231.016266,284.059174 
z"/>
<path fill="#D16652" opacity="1.000000" stroke="none" 
	d="
M291.555054,297.477600 
	C288.382019,295.041382 285.458801,292.860901 282.535553,290.680389 
	C282.900757,289.906219 283.265930,289.132019 283.631104,288.357849 
	C289.482086,284.239868 295.275574,280.033722 301.265747,276.129303 
	C301.922729,275.701050 304.271881,276.644836 304.867310,277.573456 
	C306.725372,280.471497 308.394409,283.561340 309.631866,286.771423 
	C311.926880,292.725189 313.864410,298.816742 316.028625,305.076019 
	C307.669373,305.321960 299.207672,303.469757 291.555054,297.477600 
z"/>
<path fill="#D96555" opacity="1.000000" stroke="none" 
	d="
M285.602600,245.971359 
	C283.891693,244.770599 282.180756,243.569839 280.159790,241.796692 
	C279.557159,240.169266 279.264526,239.114197 279.002075,237.820923 
	C280.038177,237.381363 281.044098,237.180023 282.266479,237.246307 
	C285.924835,244.492615 285.838715,244.363510 292.270508,240.072815 
	C294.075714,238.868546 296.515015,238.295090 298.724854,238.088333 
	C302.511353,237.734100 306.346191,237.896774 310.160736,237.842407 
	C310.160736,237.842407 310.141113,237.794113 310.101013,238.088959 
	C310.014923,242.622055 313.530029,242.273849 316.062927,242.728729 
	C319.111084,243.276169 320.379913,244.630081 318.940491,247.444916 
	C317.859558,249.558624 316.235107,251.393250 314.863831,253.359940 
	C313.280334,255.631104 311.709137,257.910858 310.132599,260.186859 
	C310.132599,260.186859 310.094086,260.102997 309.792084,260.037506 
	C308.847260,257.979187 308.204437,255.986374 307.465973,253.696991 
	C304.702850,257.138763 300.651764,256.014252 296.520447,254.283936 
	C295.989288,254.061462 295.227386,254.389832 294.572388,254.463043 
	C294.572388,254.463043 294.689453,254.411606 294.543579,254.234497 
	C294.109070,253.803757 293.820435,253.550110 293.531799,253.296478 
	C293.531799,253.296478 293.736389,253.300964 293.564514,253.153549 
	C292.909424,252.675232 292.426208,252.344330 291.943024,252.013428 
	C291.943024,252.013428 291.712677,251.952759 291.771637,251.421906 
	C292.320496,248.748062 292.810425,246.605072 293.428497,243.901459 
	C290.462982,244.685822 288.032776,245.328598 285.602600,245.971359 
M311.369171,246.838074 
	C311.138641,247.179459 310.908081,247.520828 310.677521,247.862198 
	C311.080383,247.985306 311.483215,248.108429 311.886078,248.231552 
	C311.842072,247.810837 311.798065,247.390137 311.369171,246.838074 
z"/>
<path fill="#D06652" opacity="1.000000" stroke="none" 
	d="
M278.971924,238.059143 
	C279.264526,239.114197 279.557159,240.169266 279.921143,241.544495 
	C271.258423,238.935333 262.524353,236.005997 254.507874,233.317352 
	C255.582245,228.572922 257.022095,222.961609 258.097443,217.281296 
	C259.524323,209.744110 265.532196,205.848053 270.297760,200.725815 
	C278.157410,213.037857 287.844879,224.182739 285.251404,241.131470 
	C293.798676,234.368729 301.594086,235.044861 309.866272,237.645538 
	C306.346191,237.896774 302.511353,237.734100 298.724854,238.088333 
	C296.515015,238.295090 294.075714,238.868546 292.270508,240.072815 
	C285.838715,244.363510 285.924835,244.492615 282.240784,236.849503 
	C281.933807,233.549362 281.756683,230.910690 281.825562,228.278488 
	C282.019379,220.873856 277.284363,214.920044 271.826691,214.704010 
	C270.646942,212.357422 269.671051,210.416290 268.695160,208.475174 
	C266.058685,210.818985 261.851349,212.764404 261.133514,215.594818 
	C259.883606,220.523239 260.785736,225.997467 260.785736,230.543076 
	C263.235260,231.101105 266.631989,230.848267 267.826385,232.348633 
	C270.837799,236.131393 274.676636,237.308395 278.971924,238.059143 
z"/>
<path fill="#A72214" opacity="1.000000" stroke="none" 
	d="
M165.618225,248.766983 
	C160.036911,241.744507 158.170822,233.566559 159.060608,224.895462 
	C159.262375,222.929169 161.696381,220.381989 163.702347,219.553345 
	C171.661560,216.265472 179.996292,217.332001 188.909744,218.709167 
	C190.611420,219.253113 191.658035,219.594284 192.704651,219.935455 
	C193.014587,221.775055 193.324509,223.614685 193.552155,225.857849 
	C190.529526,222.367447 186.490707,220.942932 181.764801,221.014633 
	C178.454437,221.064865 175.140396,220.983536 171.833084,221.102493 
	C162.537186,221.436844 161.097458,223.541718 162.383621,232.763748 
	C163.801758,242.932083 168.274719,249.806458 179.397964,251.078796 
	C177.866104,252.035812 176.241119,252.628479 174.285538,253.341705 
	C176.813828,253.936462 178.873795,254.421036 180.933746,254.905609 
	C176.705460,255.611282 172.493607,256.447571 168.243805,256.982239 
	C164.692856,257.428986 161.943512,258.721497 160.545609,262.239471 
	C158.901596,266.376801 157.074142,270.443451 155.511292,274.610138 
	C154.426178,277.503174 155.181198,279.814453 158.762604,281.379883 
	C159.441360,282.859650 159.719009,283.859375 159.695465,284.822540 
	C158.499466,284.339325 157.604630,283.892700 156.772568,283.378540 
	C156.835342,283.311005 156.808975,283.102600 156.808975,283.102600 
	C156.808975,283.102600 156.583130,283.324646 156.216812,283.257324 
	C151.937363,282.198853 150.682083,279.389832 151.996094,275.997070 
	C154.483810,269.573792 157.474380,263.345245 160.589447,256.878418 
	C163.908295,256.134277 166.893768,255.547562 170.115707,254.879333 
	C170.380157,253.925247 170.408112,253.052658 170.344269,251.918640 
	C168.707718,250.693832 167.162979,249.730408 165.618225,248.766983 
z"/>
<path fill="#CE6553" opacity="1.000000" stroke="none" 
	d="
M81.317322,108.272293 
	C81.892082,106.551392 82.375572,105.181885 82.873367,103.771889 
	C87.095360,106.209045 92.222794,116.105576 91.518127,120.269463 
	C91.391098,121.020088 90.948967,121.915932 90.361488,122.359848 
	C83.262924,127.723679 76.109703,133.015167 68.021210,139.031769 
	C68.656013,126.204697 77.323326,118.457077 81.317322,108.272293 
z"/>
<path fill="#CC6554" opacity="1.000000" stroke="none" 
	d="
M276.507446,293.970520 
	C273.586334,301.662140 267.033630,306.085297 261.112915,311.077972 
	C258.865845,312.972870 256.624908,314.875092 254.201370,316.926117 
	C247.193237,311.102997 251.948685,301.947144 247.880615,296.647369 
	C253.848618,296.647369 259.997986,296.944427 266.098358,296.526276 
	C269.311981,296.306000 272.440002,294.836792 276.019501,293.984650 
	C276.432343,294.037811 276.507446,293.970520 276.507446,293.970520 
z"/>
<path fill="#A92414" opacity="1.000000" stroke="none" 
	d="
M237.102295,237.639801 
	C236.191971,237.997757 235.478516,237.998306 234.408264,237.998810 
	C236.605865,230.204895 231.905624,223.939194 229.566055,217.198242 
	C229.334427,216.530930 228.021713,215.866257 227.188705,215.837387 
	C217.994415,215.518829 209.299347,216.947876 202.830505,224.297623 
	C201.515533,225.791641 201.086517,228.065414 200.157166,230.314026 
	C199.499222,228.671631 198.933212,226.694931 198.372375,224.365448 
	C203.421158,220.627441 208.092575,216.293518 213.614395,214.127060 
	C219.001434,212.013504 225.257477,212.114899 231.804443,211.144196 
	C232.971161,220.070236 240.085678,227.501205 237.102295,237.639801 
z"/>
<path fill="#BC6158" opacity="1.000000" stroke="none" 
	d="
M239.062622,283.692383 
	C239.058304,283.331818 239.202744,283.239410 239.565536,283.010529 
	C242.837112,284.828857 245.939301,286.711792 248.933426,288.753204 
	C255.324799,293.110901 266.921417,293.133301 272.966034,288.438721 
	C280.447052,282.628601 287.752289,276.592316 295.142517,270.665039 
	C297.858398,268.486786 296.184875,266.663513 294.779999,264.710114 
	C292.314270,261.281555 289.939697,257.787415 287.563354,253.954010 
	C291.862976,258.593750 296.126160,263.600250 301.148163,269.497864 
	C287.904449,274.809143 281.068481,288.213409 267.621704,292.615143 
	C260.347260,294.996399 253.590408,294.012817 247.309250,289.697052 
	C244.583115,287.823944 241.909073,285.875000 239.062622,283.692383 
z"/>
<path fill="#C5665A" opacity="1.000000" stroke="none" 
	d="
M174.356003,300.442322 
	C169.416855,301.350983 164.404388,303.295471 159.553848,302.952148 
	C149.528229,302.242523 139.536453,300.599152 129.634613,298.775818 
	C124.110229,297.758545 122.913231,295.483795 124.726021,290.161194 
	C127.159409,283.016479 130.213165,276.083069 133.411423,268.951050 
	C133.822250,268.843170 134.100739,269.072327 134.034027,269.449463 
	C131.730469,276.050232 129.647247,282.334869 127.207558,288.477905 
	C125.296471,293.289948 126.049629,295.658020 130.662979,296.823303 
	C144.890396,300.416931 159.139984,303.855621 174.021149,300.040649 
	C174.132751,300.174561 174.356003,300.442322 174.356003,300.442322 
z"/>
<path fill="#C5665A" opacity="1.000000" stroke="none" 
	d="
M165.185333,248.779297 
	C167.162979,249.730408 168.707718,250.693832 170.269135,252.262665 
	C170.150269,253.565674 170.014755,254.263245 169.879227,254.960831 
	C166.893768,255.547562 163.908295,256.134277 160.160965,256.876831 
	C151.043900,258.874573 141.850525,258.840363 136.530075,267.437195 
	C136.061905,268.193665 134.926315,268.537048 134.100739,269.072327 
	C134.100739,269.072327 133.822250,268.843170 133.683136,268.728455 
	C136.207458,259.513702 144.401016,258.323578 151.739624,256.053650 
	C155.044464,255.031403 158.534393,254.620941 161.908722,253.802536 
	C163.055908,253.524307 164.106201,252.846558 166.378555,251.818512 
	C160.119720,249.549210 155.101730,247.729797 149.899292,245.616943 
	C152.984329,246.090683 156.252335,246.864197 159.523865,247.622528 
	C161.263580,248.025787 163.009384,248.402756 165.185333,248.779297 
z"/>
<path fill="#C5685B" opacity="1.000000" stroke="none" 
	d="
M134.464142,173.153351 
	C134.082169,171.394409 134.082169,169.589005 134.082169,166.727844 
	C136.511383,167.138702 139.138885,166.843628 140.138138,167.980148 
	C140.975708,168.932770 139.944107,171.560715 139.685486,173.439362 
	C138.832031,179.638611 137.752548,185.815613 137.170883,192.039597 
	C136.884705,195.101685 138.989944,195.650146 141.864182,195.374146 
	C147.274506,194.854614 152.730316,194.808777 158.518005,194.745056 
	C151.397842,195.965012 143.926895,197.005920 136.263550,198.073639 
	C136.263550,190.597839 136.303314,182.976868 136.201660,175.357788 
	C136.191574,174.601593 135.318604,173.856903 134.464142,173.153351 
z"/>
<path fill="#D06652" opacity="1.000000" stroke="none" 
	d="
M310.475281,260.133667 
	C311.709137,257.910858 313.280334,255.631104 314.863831,253.359940 
	C316.235107,251.393250 317.859558,249.558624 318.940491,247.444916 
	C320.379913,244.630081 319.111084,243.276169 316.062927,242.728729 
	C313.530029,242.273849 310.014923,242.622055 310.126831,238.092529 
	C315.289246,239.458191 320.385742,241.115112 326.961212,243.252884 
	C321.259857,249.195892 316.038910,254.638168 310.475281,260.133667 
z"/>
<path fill="#C5665A" opacity="1.000000" stroke="none" 
	d="
M134.966888,204.749329 
	C136.199203,210.520920 136.933823,216.604523 138.163574,222.586304 
	C139.639496,229.765518 141.652649,236.789963 147.492081,241.936966 
	C148.332565,242.677826 148.896469,243.732468 149.639648,244.974396 
	C144.452042,243.391129 141.632614,239.255692 139.879623,234.294556 
	C136.536224,224.832321 133.473557,215.296799 134.966888,204.749329 
z"/>
<path fill="#C5665A" opacity="1.000000" stroke="none" 
	d="
M192.715240,219.696533 
	C191.658035,219.594284 190.611420,219.253113 189.345901,218.775604 
	C186.665100,214.379227 184.834625,209.517090 181.534561,206.056320 
	C179.050690,203.451492 174.716095,202.562302 171.136459,201.075211 
	C169.659546,200.461655 168.002380,200.281937 166.111786,199.635162 
	C172.264618,199.412720 179.036407,198.896515 183.548935,204.808319 
	C186.640121,208.858093 189.167145,213.338486 192.063263,218.111664 
	C192.219528,218.806488 192.340088,218.946213 192.541809,219.016159 
	C192.541809,219.016159 192.725830,219.457626 192.715240,219.696533 
z"/>
<path fill="#D06652" opacity="1.000000" stroke="none" 
	d="
M294.692169,254.776520 
	C295.227386,254.389832 295.989288,254.061462 296.520447,254.283936 
	C300.651764,256.014252 304.702850,257.138763 307.465973,253.696991 
	C308.204437,255.986374 308.847260,257.979187 309.831665,260.061249 
	C303.682983,264.365570 301.541443,264.036774 297.209625,258.183472 
	C296.433716,257.135071 295.612335,256.120300 294.692169,254.776520 
z"/>
<path fill="#BC6158" opacity="1.000000" stroke="none" 
	d="
M279.139404,246.180161 
	C277.903687,246.300446 276.111023,246.688446 275.064972,245.977631 
	C265.952667,239.785889 255.884415,239.293655 245.014008,240.540741 
	C248.477142,239.721390 252.464417,238.039963 256.269714,238.382172 
	C264.295898,239.103958 272.188293,240.997681 279.139404,246.180161 
z"/>
<path fill="#93382E" opacity="1.000000" stroke="none" 
	d="
M186.967468,285.021637 
	C192.445786,284.242310 190.460297,288.471954 190.990906,291.408752 
	C191.012573,299.869568 191.032486,307.935913 191.079681,316.417358 
	C190.426453,313.721252 189.322311,310.632477 189.156494,307.494080 
	C188.842072,301.543182 189.065491,295.563873 189.065491,288.397614 
	C187.212601,289.692413 186.139877,290.442017 184.648132,291.225403 
	C184.229126,291.259155 184.062103,291.099579 184.307953,290.866272 
	C185.358353,288.762512 186.162903,286.892090 186.967468,285.021637 
z"/>
<path fill="#420C07" opacity="1.000000" stroke="none" 
	d="
M88.863235,181.214157 
	C83.751801,178.060287 82.375084,172.703766 80.142845,167.817200 
	C80.592842,167.533478 81.042839,167.249756 81.492836,166.966034 
	C84.293015,171.078537 87.093193,175.191055 90.010635,179.631439 
	C89.782288,180.285522 89.436668,180.611740 88.863235,181.214157 
z"/>
<path fill="#C5665A" opacity="1.000000" stroke="none" 
	d="
M154.544601,199.341370 
	C148.740768,201.072128 142.518326,202.738647 135.889282,204.330338 
	C141.697128,202.596039 147.911545,200.936569 154.544601,199.341370 
z"/>
<path fill="#5B140F" opacity="1.000000" stroke="none" 
	d="
M61.971745,181.790375 
	C62.839058,177.717636 63.951473,173.952881 65.444763,168.899109 
	C68.042572,175.248154 65.491013,179.378738 63.501076,183.899048 
	C62.935455,183.485596 62.576149,182.791992 61.971745,181.790375 
z"/>
<path fill="#5C140C" opacity="1.000000" stroke="none" 
	d="
M215.824799,119.204788 
	C218.916107,117.800606 222.007401,116.396423 225.448669,114.958656 
	C228.566040,115.727028 231.333420,116.528976 234.354187,117.546227 
	C229.162720,118.121979 223.410400,116.768166 218.008057,120.749664 
	C216.889572,120.312149 216.357178,119.758469 215.824799,119.204788 
z"/>
<path fill="#621C11" opacity="1.000000" stroke="none" 
	d="
M112.386826,110.389313 
	C117.377556,110.486710 122.597404,110.828270 127.817253,111.169838 
	C127.784866,111.736977 127.752487,112.304115 127.720100,112.871254 
	C123.463760,112.871254 119.207413,112.871254 114.511780,112.861801 
	C115.082916,112.419624 116.093353,111.986893 117.368736,111.440689 
	C115.641060,111.147263 114.128502,110.890373 112.386826,110.389313 
z"/>
<path fill="#D06652" opacity="1.000000" stroke="none" 
	d="
M285.733826,246.246063 
	C288.032776,245.328598 290.462982,244.685822 293.428497,243.901459 
	C292.810425,246.605072 292.320496,248.748062 291.771667,251.302795 
	C289.763489,249.983276 287.814301,248.252014 285.733826,246.246063 
z"/>
<path fill="#520D08" opacity="1.000000" stroke="none" 
	d="
M175.739471,76.716820 
	C176.000763,79.773888 176.035934,82.510246 175.721634,85.645844 
	C174.812820,85.657188 174.253448,85.269302 173.694092,84.881416 
	C173.821854,79.577141 173.949631,74.272865 174.056595,68.505486 
	C174.528305,70.826958 175.020828,73.611534 175.739471,76.716820 
z"/>
<path fill="#C5665A" opacity="1.000000" stroke="none" 
	d="
M179.713348,297.302612 
	C178.154861,298.305023 176.596390,299.307434 174.696960,300.376099 
	C174.356003,300.442322 174.132751,300.174561 174.093018,299.692505 
	C176.297607,297.778687 178.541946,296.346985 180.806824,295.179077 
	C180.864655,295.615295 180.901978,295.787720 180.939316,295.960144 
	C180.939316,295.960144 180.997559,296.000000 180.748260,296.067810 
	C180.237091,296.524628 179.975220,296.913635 179.713348,297.302612 
z"/>
<path fill="#BC6158" opacity="1.000000" stroke="none" 
	d="
M284.886475,250.701752 
	C283.230896,249.730530 281.440308,248.456970 279.580811,246.846436 
	C281.258423,247.806137 283.004913,249.102783 284.886475,250.701752 
z"/>
<path fill="#BC6158" opacity="1.000000" stroke="none" 
	d="
M242.092484,243.955200 
	C241.302963,244.054932 240.779709,243.944534 240.073593,243.749405 
	C241.248367,242.707138 242.606003,241.749603 244.263916,240.643295 
	C243.829071,241.578018 243.093918,242.661545 242.092484,243.955200 
z"/>
<path fill="#C5665A" opacity="1.000000" stroke="none" 
	d="
M163.721863,199.252548 
	C161.909912,199.394379 159.718689,199.471069 157.273346,199.401886 
	C159.127029,199.233139 161.234802,199.210281 163.721863,199.252548 
z"/>
<path fill="#5B140F" opacity="1.000000" stroke="none" 
	d="
M60.805977,186.893585 
	C60.764999,185.573730 60.916096,183.897263 61.312904,182.003204 
	C61.371765,183.369385 61.184910,184.953186 60.805977,186.893585 
z"/>
<path fill="#C5685B" opacity="1.000000" stroke="none" 
	d="
M161.353333,195.047363 
	C162.190750,194.809784 163.268341,194.692856 164.577606,194.734634 
	C163.737350,194.984894 162.665451,195.076477 161.353333,195.047363 
z"/>
<path fill="#93382E" opacity="1.000000" stroke="none" 
	d="
M184.310974,291.340668 
	C184.083847,292.155243 183.774872,292.888336 183.166656,293.747742 
	C182.867416,293.874084 182.682907,293.696045 182.699524,293.530945 
	C182.716141,293.365875 182.677078,293.036102 182.778458,292.751160 
	C183.273926,292.010681 183.668015,291.555145 184.062103,291.099579 
	C184.062103,291.099579 184.229126,291.259155 184.310974,291.340668 
z"/>
<path fill="#A92414" opacity="1.000000" stroke="none" 
	d="
M236.216064,240.914612 
	C236.138870,240.458847 236.291626,240.038879 236.555222,239.433563 
	C236.921158,239.392715 237.140686,239.579086 237.401825,240.014771 
	C237.134659,240.464951 236.790344,240.707672 236.216064,240.914612 
z"/>
<path fill="#93382E" opacity="1.000000" stroke="none" 
	d="
M181.202423,295.840332 
	C180.901978,295.787720 180.864655,295.615295 181.037994,295.037659 
	C181.490250,294.365021 181.731827,294.097656 182.152008,293.803192 
	C182.330597,293.776093 182.682907,293.696045 182.682907,293.696045 
	C182.682907,293.696045 182.867416,293.874084 182.959625,293.963165 
	C182.523071,294.608337 181.994308,295.164398 181.202423,295.840332 
z"/>
<path fill="#D06652" opacity="1.000000" stroke="none" 
	d="
M292.064056,252.290848 
	C292.426208,252.344330 292.909424,252.675232 293.561005,253.255798 
	C293.214630,253.193069 292.699860,252.880676 292.064056,252.290848 
z"/>
<path fill="#BC6158" opacity="1.000000" stroke="none" 
	d="
M287.356201,253.259674 
	C287.076935,253.224655 286.654907,252.999252 286.117676,252.563416 
	C286.406097,252.591751 286.809784,252.830505 287.356201,253.259674 
z"/>
<path fill="#93382E" opacity="1.000000" stroke="none" 
	d="
M179.969177,297.269836 
	C179.975220,296.913635 180.237091,296.524628 180.721054,296.046143 
	C180.703766,296.383453 180.464386,296.810242 179.969177,297.269836 
z"/>
<path fill="#C5665A" opacity="1.000000" stroke="none" 
	d="
M164.848022,199.268494 
	C164.875153,199.297668 164.723038,199.410828 164.739777,199.348557 
	C164.756516,199.286285 164.820877,199.239334 164.848022,199.268494 
z"/>
<path fill="#D06652" opacity="1.000000" stroke="none" 
	d="
M293.637817,253.582428 
	C293.820435,253.550110 294.109070,253.803757 294.567871,254.293640 
	C294.406647,254.309402 294.075226,254.088882 293.637817,253.582428 
z"/>
<path fill="#CC6554" opacity="1.000000" stroke="none" 
	d="
M276.441589,294.087372 
	C276.396240,294.155945 276.341675,294.174957 276.397278,294.082214 
	C276.507446,293.970520 276.432343,294.037811 276.441589,294.087372 
z"/>
<path fill="#A72214" opacity="1.000000" stroke="none" 
	d="
M192.571396,218.869232 
	C192.340088,218.946213 192.219528,218.806488 192.195068,218.457779 
	C192.427261,218.368820 192.557587,218.503387 192.571396,218.869232 
z"/>
<path fill="#AA2917" opacity="1.000000" stroke="none" 
	d="
M122.403152,125.408119 
	C127.214035,121.737297 132.024902,118.066467 137.195099,114.121475 
	C131.134171,106.706703 133.068161,98.190590 135.286179,89.481056 
	C136.381226,85.181114 136.629959,80.640839 137.000732,76.187584 
	C137.459290,70.679756 139.699356,68.685623 145.081680,69.709007 
	C153.807129,71.368050 162.258774,73.725716 168.810684,80.727982 
	C168.579529,81.429413 168.419373,81.595566 167.998840,81.554520 
	C161.106796,75.878693 153.427368,73.004868 144.924774,72.298615 
	C142.338730,72.083809 139.878830,72.336494 139.310150,75.739639 
	C138.026657,83.420319 136.606232,91.078087 135.317001,98.757843 
	C133.713913,108.307159 137.440201,113.487625 146.853500,114.988045 
	C147.250885,115.051384 147.594635,115.451103 147.260254,115.230721 
	C142.291092,116.805672 136.840622,118.135162 131.742630,120.296158 
	C128.614441,121.622154 126.026016,124.221542 123.003174,126.033234 
	C122.675148,125.680946 122.539154,125.544533 122.403152,125.408119 
z"/>
<path fill="#AA2917" opacity="1.000000" stroke="none" 
	d="
M150.977264,167.011322 
	C150.264709,164.047897 149.552155,161.084473 148.670670,157.418488 
	C139.499329,157.292465 132.868073,151.190109 126.140297,144.893143 
	C123.208206,142.148804 119.281548,140.369781 115.616348,138.531662 
	C111.420746,136.427521 110.761177,133.646591 114.394836,130.639114 
	C116.674919,128.751984 119.325493,127.312462 122.106491,125.540115 
	C122.539154,125.544533 122.675148,125.680946 122.786453,126.283035 
	C119.759819,129.316757 116.757874,131.884796 114.445259,133.863129 
	C121.565331,139.495316 127.771858,144.603668 134.208755,149.403076 
	C136.951813,151.448318 140.018875,153.293427 143.222748,154.425659 
	C147.050903,155.778549 150.830414,155.652542 152.021500,150.377213 
	C152.248062,149.373718 153.227798,148.540283 153.860031,147.628372 
	C153.712296,151.094009 152.418640,154.021057 152.075302,157.055618 
	C151.709167,160.291946 152.241226,163.629868 152.030167,166.945343 
	C151.445206,166.981918 151.211227,166.996628 150.977264,167.011322 
z"/>
<path fill="#A62614" opacity="1.000000" stroke="none" 
	d="
M215.447815,119.198349 
	C216.357178,119.758469 216.889572,120.312149 217.705917,120.961197 
	C222.103470,126.751511 226.217056,132.446457 230.076126,138.529205 
	C229.582260,138.940689 229.342941,138.964371 228.903091,138.709045 
	C225.507660,133.813187 222.937317,128.545105 218.966736,124.737030 
	C213.455948,119.451828 206.397629,117.433212 198.450516,120.150833 
	C200.569641,118.398178 202.744476,117.343819 204.822906,116.125038 
	C209.646469,113.296547 214.572479,110.035797 214.540909,103.873222 
	C214.501160,96.110069 217.954453,87.361084 209.956757,81.043747 
	C210.251190,80.719582 210.364777,80.586174 210.478378,80.452766 
	C216.558731,82.989540 217.947525,87.477043 216.571289,93.652245 
	C215.981720,96.297745 217.086975,99.279053 216.794617,102.041351 
	C216.166641,107.974472 214.034637,113.260727 207.245865,116.873398 
	C210.752426,117.912376 212.911621,118.552139 215.447815,119.198349 
z"/>
<path fill="#AA2B18" opacity="1.000000" stroke="none" 
	d="
M215.442245,157.564667 
	C208.178436,161.431046 200.714005,162.444672 192.538193,158.350113 
	C192.176300,165.989563 190.111938,172.120193 183.253448,175.809021 
	C182.656357,175.610199 182.543594,175.481293 182.668060,175.134628 
	C185.240570,171.388901 188.650314,168.122940 189.593414,164.255463 
	C190.449066,160.746628 188.618423,156.582703 187.982498,152.769897 
	C188.856445,153.340042 190.486526,154.352905 192.063934,155.442032 
	C196.815628,158.722839 202.022858,159.801483 207.659515,158.631348 
	C210.083420,158.128174 212.466064,157.426376 215.008865,157.004059 
	C215.150269,157.193268 215.442245,157.564667 215.442245,157.564667 
z"/>
<path fill="#AA2917" opacity="1.000000" stroke="none" 
	d="
M173.466553,84.679810 
	C174.253448,85.269302 174.812820,85.657188 175.605377,86.028259 
	C176.037216,86.099327 176.235855,86.187195 176.809845,86.547081 
	C177.373459,87.199860 177.561722,87.580620 177.651489,88.262276 
	C177.101273,89.681458 176.649506,90.799728 176.038437,92.312355 
	C173.225876,88.497803 170.742538,85.129761 168.259201,81.761719 
	C168.419373,81.595566 168.579529,81.429413 168.979889,81.013588 
	C170.559708,82.002007 171.899353,83.240105 173.466553,84.679810 
z"/>
<path fill="#AC2F1B" opacity="1.000000" stroke="none" 
	d="
M151.081573,167.353546 
	C151.211227,166.996628 151.445206,166.981918 152.241547,167.189545 
	C155.433792,172.073853 158.063690,176.735870 160.465317,181.598648 
	C160.084839,181.933319 159.932663,182.067200 159.780502,182.201080 
	C156.915634,177.365967 154.050766,172.530869 151.081573,167.353546 
z"/>
<path fill="#AC2F1B" opacity="1.000000" stroke="none" 
	d="
M175.108047,180.331970 
	C172.014999,181.614746 168.868866,182.785355 165.845734,184.215881 
	C163.442276,185.353165 161.506760,185.462952 159.949432,182.516510 
	C159.932663,182.067200 160.084839,181.933319 160.692093,181.856354 
	C162.717987,181.878479 164.351181,182.107422 165.846649,181.753860 
	C168.938217,181.022934 171.956436,179.981812 175.029633,179.384293 
	C175.072296,179.910843 175.090164,180.121399 175.108047,180.331970 
z"/>
<path fill="#AA2B18" opacity="1.000000" stroke="none" 
	d="
M229.103607,138.988068 
	C229.342941,138.964371 229.582260,138.940689 230.183853,138.883545 
	C234.382431,144.613846 233.971954,145.857132 226.308075,149.867828 
	C225.601517,149.569733 225.451187,149.405792 225.552673,149.033585 
	C229.833054,146.528503 232.311539,143.711823 229.103607,138.988068 
z"/>
<path fill="#AA2B18" opacity="1.000000" stroke="none" 
	d="
M175.478119,180.272354 
	C175.090164,180.121399 175.072296,179.910843 175.352631,179.246796 
	C177.910797,177.646332 180.170807,176.499359 182.430817,175.352386 
	C182.543594,175.481293 182.656357,175.610199 182.938400,175.932755 
	C180.687836,177.488525 178.268005,178.850632 175.478119,180.272354 
z"/>
<path fill="#AA2B18" opacity="1.000000" stroke="none" 
	d="
M221.439529,153.538940 
	C219.649139,154.814667 217.858749,156.090393 215.755310,157.465393 
	C215.442245,157.564667 215.150269,157.193268 215.227539,156.763092 
	C217.149338,155.155014 218.993881,153.977127 220.986603,152.985855 
	C221.134781,153.172485 221.439529,153.538925 221.439529,153.538940 
z"/>
<path fill="#AA2B18" opacity="1.000000" stroke="none" 
	d="
M225.977325,149.979645 
	C224.811493,151.252899 223.420197,152.280212 221.734222,153.423218 
	C221.439529,153.538925 221.134781,153.172485 221.179474,152.726990 
	C222.583069,151.268280 223.941971,150.255066 225.300873,149.241852 
	C225.451187,149.405792 225.601517,149.569733 225.977325,149.979645 
z"/>
<path fill="#F7C7A9" opacity="1.000000" stroke="none" 
	d="
M198.155304,256.824158 
	C192.689896,252.813187 187.082489,248.976395 181.835052,244.698059 
	C179.964066,243.172638 178.831940,240.643372 177.717453,238.396286 
	C177.556076,238.070923 179.789886,235.854462 180.232391,236.050995 
	C182.494934,237.055771 184.761993,238.308517 186.603806,239.949951 
	C190.679367,243.582138 194.335495,247.693329 198.484344,251.232040 
	C201.381454,253.703125 204.589615,253.299927 206.375671,249.690689 
	C208.549301,245.298248 210.189728,240.645111 212.199371,236.166946 
	C213.125809,234.102493 213.926971,231.417969 215.615829,230.418106 
	C217.305542,229.417770 220.706772,229.268478 222.152618,230.352921 
	C224.594269,232.184235 223.841965,234.936630 221.628067,237.239410 
	C218.084396,240.925323 214.319260,244.514725 211.437164,248.689850 
	C208.076035,253.558868 209.943436,257.504761 215.844528,258.289459 
	C223.534912,259.312134 231.325470,259.566437 239.032166,260.491119 
	C241.114746,260.740967 243.334320,261.897369 244.911407,263.292786 
	C245.533112,263.842865 244.968872,267.234711 244.252930,267.505829 
	C242.321045,268.237366 239.885437,268.522461 237.884933,268.029724 
	C230.791382,266.282471 223.858673,263.864685 216.744202,262.225189 
	C210.721207,260.837219 207.534485,264.375854 209.599747,270.108154 
	C211.384598,275.062042 213.917526,279.747711 216.149185,284.538208 
	C216.568512,285.438324 217.470169,286.243103 217.550613,287.145294 
	C217.729706,289.153717 218.020950,291.399567 217.296219,293.146057 
	C216.878143,294.153564 213.987320,295.264069 213.232971,294.768921 
	C211.641525,293.724335 210.118469,291.811462 209.642014,289.975891 
	C208.226089,284.520935 207.386139,278.918976 206.199707,273.400574 
	C205.818115,271.625702 205.549881,269.345215 204.353104,268.344696 
	C202.737610,266.994171 199.741272,265.449738 198.271805,266.099976 
	C192.852036,268.498230 187.822067,271.775055 182.634949,274.702728 
	C181.045486,275.599823 179.471405,277.001373 177.800842,277.147156 
	C176.030823,277.301636 174.154312,276.236298 172.324310,275.703674 
	C173.290436,274.005615 173.854370,271.623657 175.314240,270.765106 
	C177.672546,269.378204 180.620361,268.993683 184.012573,267.968079 
	C187.553650,266.291260 190.401382,264.832184 193.249100,263.373077 
	C193.249100,263.373077 193.230392,263.246765 193.518585,263.307800 
	C194.615097,262.942535 195.423431,262.516266 196.231781,262.089996 
	C196.490967,262.015594 196.713531,261.880737 197.304642,261.382416 
	C197.858322,259.660980 198.006805,258.242584 198.155304,256.824158 
z"/>
<path fill="#A92315" opacity="1.000000" stroke="none" 
	d="
M181.315536,254.911224 
	C178.873795,254.421036 176.813828,253.936462 174.285538,253.341705 
	C176.241119,252.628479 177.866104,252.035812 179.733704,251.237473 
	C182.483704,251.724945 184.991089,252.418106 187.498474,253.111267 
	C187.478836,253.400955 187.459183,253.690628 187.439529,253.980316 
	C185.525467,254.292480 183.611389,254.604660 181.315536,254.911224 
z"/>
<path fill="#CC745B" opacity="1.000000" stroke="none" 
	d="
M192.874054,263.375336 
	C190.401382,264.832184 187.553650,266.291260 184.354782,267.798676 
	C186.835419,266.357178 189.667221,264.867371 192.874054,263.375336 
z"/>
<path fill="#A72214" opacity="1.000000" stroke="none" 
	d="
M167.602676,283.072845 
	C167.995941,283.841492 167.997009,284.558685 167.611282,285.652832 
	C165.480087,285.737427 163.735687,285.445129 162.188614,284.921051 
	C162.941147,284.095215 163.496353,283.501129 164.051575,282.907043 
	C165.104538,282.945160 166.157516,282.983276 167.602676,283.072845 
z"/>
<path fill="#A92315" opacity="1.000000" stroke="none" 
	d="
M163.774536,282.720306 
	C163.496353,283.501129 162.941147,284.095215 161.851761,284.905823 
	C160.877274,285.034637 160.436966,284.946899 159.996643,284.859131 
	C159.719009,283.859375 159.441360,282.859650 159.088699,281.561768 
	C160.508286,281.686951 162.002899,282.110260 163.774536,282.720306 
z"/>
<path fill="#CC745B" opacity="1.000000" stroke="none" 
	d="
M198.049866,257.196838 
	C198.006805,258.242584 197.858322,259.660980 197.420425,261.223083 
	C197.402161,260.101013 197.673294,258.835266 198.049866,257.196838 
z"/>
<path fill="#CC745B" opacity="1.000000" stroke="none" 
	d="
M195.887314,262.107605 
	C195.423431,262.516266 194.615097,262.942535 193.455460,263.317383 
	C193.917053,262.885681 194.729950,262.505432 195.887314,262.107605 
z"/>
<path fill="#A62614" opacity="1.000000" stroke="none" 
	d="
M177.749969,87.961372 
	C177.561722,87.580620 177.373459,87.199860 177.127106,86.621193 
	C184.449875,79.111702 200.326096,75.969307 210.240463,80.178741 
	C210.364777,80.586174 210.251190,80.719582 209.547409,80.951408 
	C197.607330,79.075577 186.931885,80.146637 177.749969,87.961372 
z"/>
<path fill="#DB6650" opacity="1.000000" stroke="none" 
	d="
M159.695465,284.822540 
	C160.436966,284.946899 160.877274,285.034637 161.654434,285.137573 
	C163.735687,285.445129 165.480087,285.737427 167.610413,286.012604 
	C174.062531,285.725830 180.128708,285.456177 186.581177,285.104065 
	C186.162903,286.892090 185.358353,288.762512 184.307953,290.866272 
	C183.668015,291.555145 183.273926,292.010681 182.653931,292.876953 
	C182.264557,293.458557 182.113022,293.639404 181.973419,293.830292 
	C181.731827,294.097656 181.490250,294.365021 181.017487,294.773865 
	C178.541946,296.346985 176.297607,297.778687 173.981415,299.558594 
	C159.139984,303.855621 144.890396,300.416931 130.662979,296.823303 
	C126.049629,295.658020 125.296471,293.289948 127.207558,288.477905 
	C129.647247,282.334869 131.730469,276.050232 134.034027,269.449463 
	C134.926315,268.537048 136.061905,268.193665 136.530075,267.437195 
	C141.850525,258.840363 151.043900,258.874573 159.827576,257.034241 
	C157.474380,263.345245 154.483810,269.573792 151.996094,275.997070 
	C150.682083,279.389832 151.937363,282.198853 156.246399,283.289856 
	C156.642288,283.389740 156.709793,283.446106 156.709793,283.446106 
	C157.604630,283.892700 158.499466,284.339325 159.695465,284.822540 
z"/>
<path fill="#DD6650" opacity="1.000000" stroke="none" 
	d="
M279.002075,237.820923 
	C274.676636,237.308395 270.837799,236.131393 267.826385,232.348633 
	C266.631989,230.848267 263.235260,231.101105 260.785736,230.543076 
	C260.785736,225.997467 259.883606,220.523239 261.133514,215.594818 
	C261.851349,212.764404 266.058685,210.818985 268.695160,208.475174 
	C269.671051,210.416290 270.646942,212.357422 271.826691,214.704010 
	C277.284363,214.920044 282.019379,220.873856 281.825562,228.278488 
	C281.756683,230.910690 281.933807,233.549362 282.024323,236.581879 
	C281.044098,237.180023 280.038177,237.381363 279.002075,237.820923 
z"/>
<path fill="#D06652" opacity="1.000000" stroke="none" 
	d="
M311.561584,246.903748 
	C311.798065,247.390137 311.842072,247.810837 311.886078,248.231552 
	C311.483215,248.108429 311.080383,247.985306 310.677521,247.862198 
	C310.908081,247.520828 311.138641,247.179459 311.561584,246.903748 
z"/>
<path fill="#A92315" opacity="1.000000" stroke="none" 
	d="
M170.115707,254.879333 
	C170.014755,254.263245 170.150269,253.565674 170.360931,252.524078 
	C170.408112,253.052658 170.380157,253.925247 170.115707,254.879333 
z"/>
<path fill="#A92315" opacity="1.000000" stroke="none" 
	d="
M156.612701,283.357178 
	C156.583130,283.324646 156.808975,283.102600 156.808975,283.102600 
	C156.808975,283.102600 156.835342,283.311005 156.772568,283.378540 
	C156.709793,283.446106 156.642288,283.389740 156.612701,283.357178 
z"/>
<path fill="#C5665A" opacity="1.000000" stroke="none" 
	d="
M182.152008,293.803192 
	C182.113022,293.639404 182.264557,293.458557 182.552551,293.161896 
	C182.677078,293.036102 182.716141,293.365875 182.699524,293.530945 
	C182.682907,293.696045 182.330597,293.776093 182.152008,293.803192 
z"/>
<path fill="#DB6751" opacity="1.000000" stroke="none" 
	d="
M177.651489,88.262276 
	C186.931885,80.146637 197.607330,79.075577 209.366577,81.142151 
	C217.954453,87.361084 214.501160,96.110069 214.540909,103.873222 
	C214.572479,110.035797 209.646469,113.296547 204.822906,116.125038 
	C202.744476,117.343819 200.569641,118.398178 198.450516,120.150833 
	C206.397629,117.433212 213.455948,119.451828 218.966736,124.737030 
	C222.937317,128.545105 225.507660,133.813187 228.903091,138.709045 
	C232.311539,143.711823 229.833054,146.528503 225.552673,149.033585 
	C223.941971,150.255066 222.583069,151.268280 221.031296,152.540359 
	C218.993881,153.977127 217.149338,155.155014 215.086121,156.573868 
	C212.466064,157.426376 210.083420,158.128174 207.659515,158.631348 
	C202.022858,159.801483 196.815628,158.722839 192.063934,155.442032 
	C190.486526,154.352905 188.856445,153.340042 187.982498,152.769897 
	C188.618423,156.582703 190.449066,160.746628 189.593414,164.255463 
	C188.650314,168.122940 185.240570,171.388901 182.668060,175.134628 
	C180.170807,176.499359 177.910797,177.646332 175.327820,178.930786 
	C171.956436,179.981812 168.938217,181.022934 165.846649,181.753860 
	C164.351181,182.107422 162.717987,181.878479 160.920380,181.655579 
	C158.063690,176.735870 155.433792,172.073853 152.592529,167.167648 
	C152.241226,163.629868 151.709167,160.291946 152.075302,157.055618 
	C152.418640,154.021057 153.712296,151.094009 153.860031,147.628372 
	C153.227798,148.540283 152.248062,149.373718 152.021500,150.377213 
	C150.830414,155.652542 147.050903,155.778549 143.222748,154.425659 
	C140.018875,153.293427 136.951813,151.448318 134.208755,149.403076 
	C127.771858,144.603668 121.565331,139.495316 114.445259,133.863129 
	C116.757874,131.884796 119.759819,129.316757 122.978485,126.498917 
	C126.026016,124.221542 128.614441,121.622154 131.742630,120.296158 
	C136.840622,118.135162 142.291092,116.805672 147.260254,115.230721 
	C147.594635,115.451103 147.250885,115.051384 146.853500,114.988045 
	C137.440201,113.487625 133.713913,108.307159 135.317001,98.757843 
	C136.606232,91.078087 138.026657,83.420319 139.310150,75.739639 
	C139.878830,72.336494 142.338730,72.083809 144.924774,72.298615 
	C153.427368,73.004868 161.106796,75.878693 167.998840,81.554520 
	C170.742538,85.129761 173.225876,88.497803 176.038437,92.312355 
	C176.649506,90.799728 177.101273,89.681458 177.651489,88.262276 
M184.312241,115.927238 
	C185.391617,114.669975 186.303558,113.196556 187.586777,112.202423 
	C189.941498,110.378197 192.885986,109.183716 194.873215,107.060776 
	C196.310928,105.524895 196.599121,102.912994 197.399963,100.780952 
	C195.120453,100.345596 192.212677,98.831245 190.699646,99.712250 
	C188.018372,101.273476 185.834488,104.063126 184.088654,106.757446 
	C182.116913,109.800407 181.102341,113.451729 179.230499,116.574097 
	C176.492065,121.141998 173.563354,121.474518 170.324387,117.168381 
	C167.459778,113.359909 165.478989,108.884361 163.132507,104.689621 
	C162.245010,103.103088 161.761658,101.085579 160.476471,99.987183 
	C159.317001,98.996231 157.190659,98.450203 155.735550,98.781929 
	C155.011292,98.947037 154.142212,101.763344 154.560760,102.948860 
	C155.352890,105.192421 156.933105,107.191910 158.354462,109.171791 
	C161.046570,112.921822 164.320190,116.335648 166.497833,120.352364 
	C169.003006,124.973221 167.480392,127.582397 162.112091,128.130981 
	C156.522049,128.702240 150.838516,128.314697 145.228149,128.756439 
	C143.449005,128.896530 141.773499,130.352783 140.050568,131.206741 
	C141.232697,132.984924 142.227676,136.072678 143.635178,136.273819 
	C146.746490,136.718445 150.123917,135.962463 153.283569,135.226974 
	C156.660690,134.440887 159.843414,132.755585 163.234222,132.106903 
	C168.748795,131.051956 170.555664,132.480652 170.050049,137.959808 
	C169.519272,143.711838 167.904800,149.358521 167.232712,155.106064 
	C167.025421,156.878815 168.355286,158.831314 168.981323,160.701492 
	C170.865417,160.018555 173.660370,159.863007 174.429565,158.534515 
	C175.726700,156.294250 176.139069,153.320129 176.204590,150.637054 
	C176.320816,145.878586 175.766296,141.107697 175.738998,136.340591 
	C175.711823,131.593002 178.628998,131.034470 182.083481,132.795151 
	C186.663620,135.129517 191.029541,137.890472 195.445328,140.538467 
	C197.865219,141.989578 200.594772,143.482727 202.211838,140.134949 
	C203.651047,137.155380 201.520142,135.046753 198.702301,134.091156 
	C196.032028,133.185593 193.256760,132.581543 190.514435,131.897919 
	C179.391693,129.125168 178.109406,126.139771 184.312241,115.927238 
z"/>
<path fill="#F7C8AA" opacity="1.000000" stroke="none" 
	d="
M184.136963,116.249840 
	C178.109406,126.139771 179.391693,129.125168 190.514435,131.897919 
	C193.256760,132.581543 196.032028,133.185593 198.702301,134.091156 
	C201.520142,135.046753 203.651047,137.155380 202.211838,140.134949 
	C200.594772,143.482727 197.865219,141.989578 195.445328,140.538467 
	C191.029541,137.890472 186.663620,135.129517 182.083481,132.795151 
	C178.628998,131.034470 175.711823,131.593002 175.738998,136.340591 
	C175.766296,141.107697 176.320816,145.878586 176.204590,150.637054 
	C176.139069,153.320129 175.726700,156.294250 174.429565,158.534515 
	C173.660370,159.863007 170.865417,160.018555 168.981323,160.701508 
	C168.355286,158.831314 167.025421,156.878815 167.232712,155.106064 
	C167.904800,149.358521 169.519272,143.711838 170.050049,137.959808 
	C170.555664,132.480652 168.748795,131.051956 163.234222,132.106903 
	C159.843414,132.755585 156.660690,134.440887 153.283569,135.226974 
	C150.123917,135.962463 146.746490,136.718445 143.635178,136.273819 
	C142.227676,136.072678 141.232697,132.984924 140.050568,131.206741 
	C141.773499,130.352783 143.449005,128.896530 145.228149,128.756439 
	C150.838516,128.314697 156.522049,128.702240 162.112091,128.130981 
	C167.480392,127.582397 169.003006,124.973221 166.497833,120.352364 
	C164.320190,116.335648 161.046570,112.921822 158.354462,109.171791 
	C156.933105,107.191910 155.352890,105.192421 154.560760,102.948860 
	C154.142212,101.763344 155.011292,98.947037 155.735550,98.781929 
	C157.190659,98.450203 159.317001,98.996231 160.476471,99.987183 
	C161.761658,101.085579 162.245010,103.103088 163.132507,104.689621 
	C165.478989,108.884361 167.459778,113.359909 170.324387,117.168381 
	C173.563354,121.474518 176.492065,121.141998 179.230499,116.574097 
	C181.102341,113.451729 182.116913,109.800407 184.088654,106.757446 
	C185.834488,104.063126 188.018372,101.273476 190.699646,99.712250 
	C192.212677,98.831245 195.120453,100.345596 197.399963,100.780952 
	C196.599121,102.912994 196.310928,105.524895 194.873215,107.060776 
	C192.885986,109.183716 189.941498,110.378197 187.586777,112.202423 
	C186.303558,113.196556 185.391617,114.669975 184.136963,116.249840 
z"/>
</svg>