<svg
        xmlns="http://www.w3.org/2000/svg"
        className="h-7 w-7 stroke-current"
        fill="none"
        viewBox="0 0 512 512"
        stroke="currentColor"
      >
        <path
          stroke-linecap="round"
          stroke-linejoin="round"
          stroke-width="5"
          d="
M88.340340,234.588333 
	C89.765060,232.246323 91.023109,230.276520 92.220863,228.270721 
	C94.612793,224.265106 96.971657,220.239746 99.168442,216.520096 
	C89.846146,210.126312 80.350357,204.710159 72.291290,197.653244 
	C67.831436,193.747971 64.958580,187.387085 62.896534,181.590210 
	C61.245758,176.949493 66.763283,174.555344 69.681480,172.391373 
	C74.266930,168.991043 79.843521,166.831757 85.183357,164.580948 
	C88.271477,163.279266 91.791641,163.043671 94.989433,161.953140 
	C103.991570,158.883209 113.297943,157.948273 123.794319,157.957047 
	C121.857170,151.822586 120.040573,146.362366 118.428299,140.842468 
	C117.605911,138.026932 118.335739,136.035553 121.845688,136.046036 
	C132.425186,136.077637 143.144745,135.020294 153.529236,136.439621 
	C159.269104,137.224136 164.534470,141.975174 169.828018,145.239349 
	C171.490097,146.264236 172.547653,148.269516 173.802719,149.733704 
	C187.453690,126.680634 185.097794,104.629372 167.347855,83.289673 
	C163.188477,82.372314 158.046173,76.631050 158.265274,70.355415 
	C160.901428,71.665634 163.212936,72.531158 165.215714,73.861511 
	C172.010010,78.374680 176.669418,84.757980 180.945816,91.610542 
	C189.122421,104.712921 188.823181,118.911308 186.884125,133.335770 
	C186.479645,136.344620 185.013672,139.222046 183.951004,142.128616 
	C182.161438,147.023392 180.565872,152.017761 178.339127,156.709381 
	C177.496719,158.484314 175.130783,159.536118 173.459320,160.917542 
	C172.206207,159.212616 171.010788,157.461365 169.687515,155.812698 
	C167.184265,152.693863 165.194473,148.324066 161.923080,146.858337 
	C157.083496,144.690002 153.010559,140.391510 146.395218,141.628342 
	C140.720917,142.689224 134.592499,141.277054 128.661423,141.049698 
	C127.597908,141.008942 126.517387,141.411743 126.425117,141.428787 
	C127.135826,146.172318 127.781563,150.466034 128.412277,154.761948 
	C128.433334,154.905334 128.249023,155.071426 128.250290,155.226227 
	C128.323059,164.207779 128.313782,163.755737 119.506409,163.954376 
	C113.697121,164.085419 107.920898,165.738571 102.132729,166.726913 
	C99.059074,167.251740 95.716133,167.211456 92.972778,168.469055 
	C84.721428,172.251587 76.704788,176.546097 68.575760,180.651413 
	C77.631836,198.057571 92.797134,206.000870 109.827545,213.006516 
	C93.771729,234.084686 84.749985,257.665131 81.146652,284.052063 
	C89.004906,282.697266 96.723022,281.333710 104.454613,280.051392 
	C107.174637,279.600281 110.044197,279.727966 112.642815,278.930756 
	C119.250114,276.903839 126.277145,275.413666 132.122360,271.981873 
	C137.343491,268.916473 141.195969,263.528809 145.683105,259.197723 
	C146.719254,258.197601 147.880783,257.327423 149.635117,255.849411 
	C150.056534,261.844055 150.366959,266.375854 150.695374,270.906403 
	C151.301651,279.269653 153.403763,287.337860 158.189377,294.158661 
	C162.286469,299.998169 167.738541,304.869415 172.241135,310.451385 
	C173.845413,312.440247 174.420929,315.258942 176.621521,317.359985 
	C176.621521,276.252991 176.621521,235.146011 176.621521,194.578857 
	C171.421341,200.200943 164.731750,205.406372 160.805511,212.207153 
	C156.220764,220.148560 148.759369,225.002869 143.533279,232.036575 
	C138.361893,238.996643 133.287399,246.037003 127.877831,252.808395 
	C125.065094,256.329224 121.748100,259.489410 118.366318,262.481842 
	C117.587288,263.171173 114.756760,263.015228 114.359619,262.353943 
	C113.552208,261.009369 112.937904,258.352753 113.690353,257.470856 
	C117.292831,253.248581 121.706604,249.707336 125.217964,245.420990 
	C130.799133,238.608063 135.740417,231.273315 141.259323,224.405975 
	C143.875122,221.151077 147.410965,218.648590 150.153793,215.479599 
	C153.979019,211.060013 157.333817,206.235413 161.113739,201.773758 
	C163.999710,198.367264 167.903061,195.656555 170.146469,191.912827 
	C173.119217,186.952026 177.651520,182.949310 177.336777,175.813690 
	C177.054779,169.419922 178.030777,161.708710 181.514603,156.715866 
	C186.359192,149.772827 189.984894,141.512299 200.239532,138.392914 
	C212.494904,134.664948 224.374191,134.886017 236.611755,135.669739 
	C238.571289,135.795227 240.521545,136.065430 243.206512,136.344727 
	C240.589981,143.658844 238.049820,150.759460 235.335724,158.346313 
	C245.398468,157.554840 254.420135,158.966293 263.370270,161.244827 
	C270.305237,163.010361 276.945282,165.256165 283.429230,168.490311 
	C287.100494,170.321533 289.984680,172.882339 293.197205,175.097733 
	C297.861847,178.314499 297.697876,183.366791 294.174622,187.835907 
	C291.195648,191.614639 289.366760,196.248154 285.095734,199.071259 
	C283.719147,199.981201 275.285400,205.578217 273.630066,206.277954 
	C272.021729,206.957825 270.678772,208.249176 269.088074,208.990555 
	C265.641541,210.596909 262.111176,212.023407 258.545929,213.553146 
	C261.576233,217.768600 265.380768,221.891052 267.782318,226.712372 
	C270.489197,232.146713 271.849945,238.240616 273.952911,243.990311 
	C275.530518,248.303574 277.579865,252.454712 278.973785,256.820251 
	C279.640869,258.909332 278.636536,261.610596 279.492767,263.546509 
	C282.424713,270.175812 281.837585,277.269867 282.862396,284.140472 
	C283.392700,287.695862 281.061127,288.884979 278.271454,288.844788 
	C272.909698,288.767548 267.557953,288.163361 262.195190,287.951111 
	C253.636292,287.612366 245.721436,284.806671 237.802521,281.920746 
	C235.529510,281.092377 233.066772,280.747070 230.859421,279.791351 
	C229.668304,279.275665 228.944641,277.776031 227.817841,276.999146 
	C223.368225,273.931305 218.842514,270.973846 214.520523,268.092438 
	C213.709961,273.184601 213.193192,278.734467 211.882294,284.089966 
	C210.202759,290.951599 207.329697,297.127136 201.893387,302.258301 
	C197.965363,305.965851 195.872726,311.571381 192.095367,315.496979 
	C187.394028,320.382843 184.491821,325.783020 183.397781,332.786377 
	C178.876160,333.718689 176.845184,331.277985 174.794815,327.188843 
	C172.345016,322.303101 168.344421,318.221680 165.526932,313.487518 
	C160.755493,305.470215 152.588974,299.842529 149.745895,290.460754 
	C148.320282,285.756439 146.041183,281.310883 144.613464,276.607025 
	C144.059601,274.782257 144.789841,272.567719 144.943527,270.413055 
	C141.177719,273.111633 137.768707,276.023865 133.928726,278.162201 
	C130.685730,279.968109 127.008888,281.108063 123.407539,282.133575 
	C116.180618,284.191559 108.941170,286.315979 101.577133,287.743622 
	C96.581810,288.712128 91.365395,288.539734 86.248024,288.880005 
	C85.749367,288.913177 85.245384,288.926575 84.754890,289.012299 
	C82.231544,289.453125 79.711800,289.914520 77.190788,290.368744 
	C76.769562,286.712402 76.041809,283.058350 76.014633,279.399078 
	C75.988251,275.846680 76.382446,272.224243 77.135345,268.750366 
	C78.024208,264.649139 79.424614,260.650787 80.735359,256.651154 
	C82.072838,252.570023 83.594902,248.549759 84.990395,244.487106 
	C86.078735,241.318649 87.096985,238.126099 88.340340,234.588333 
M274.670624,198.060287 
	C275.321930,197.959244 276.236877,198.099930 276.584625,197.720596 
	C281.138214,192.753677 285.653870,187.749329 290.027893,182.625351 
	C290.392334,182.198410 289.976593,180.461548 289.391235,179.979492 
	C286.888672,177.918701 284.443512,175.399460 281.509460,174.323242 
	C272.178650,170.900726 262.791290,167.365356 253.128006,165.206512 
	C246.216690,163.662460 238.827042,164.259491 231.162369,163.876816 
	C231.276260,157.127167 229.552994,149.619827 233.893372,141.681580 
	C230.680801,141.136017 227.348984,140.137634 224.015839,140.133179 
	C221.043457,140.129196 217.967712,142.036819 215.115784,141.679306 
	C207.078918,140.671860 200.295532,143.752319 195.220551,148.930664 
	C189.274033,154.998322 185.849426,162.743881 183.565460,171.369217 
	C181.387619,179.593719 182.578903,185.499344 188.062454,191.574448 
	C193.194504,197.260162 198.865906,202.363770 203.289719,208.873383 
	C208.714905,216.856506 216.239975,223.376953 222.264725,230.998123 
	C228.459778,238.834732 236.927948,244.707336 241.632263,253.821838 
	C242.564102,255.627274 244.734634,256.793976 245.663879,258.600006 
	C246.321945,259.878967 245.851318,261.738617 245.884521,263.339081 
	C243.940857,262.778290 241.489014,262.756622 240.179901,261.522644 
	C238.476929,259.917419 238.022217,257.050110 236.437775,255.246445 
	C228.896439,246.661697 221.167679,238.241165 213.477005,229.788208 
	C210.039230,226.009689 206.393768,222.411240 203.096359,218.516220 
	C199.224243,213.942307 195.806564,208.977829 191.852188,204.481400 
	C188.996216,201.233932 185.585785,198.474060 182.637115,195.698608 
	C182.637115,235.694489 182.637115,276.273956 182.637115,316.542908 
	C184.524948,314.340912 186.324631,312.358063 187.993240,310.270447 
	C191.164948,306.302307 194.075516,302.110382 197.426254,298.303345 
	C205.763306,288.830994 208.486160,277.642822 207.999603,265.391327 
	C207.968826,264.616547 207.793106,263.695160 207.337341,263.114868 
	C204.772934,259.849518 205.876053,256.764862 207.843353,252.438248 
	C211.509827,255.483307 215.267029,257.696106 217.798218,260.882721 
	C224.364761,269.149597 233.371262,273.431580 242.734406,277.128082 
	C246.059906,278.440979 250.577026,277.510254 253.310867,279.398254 
	C260.787567,284.561768 268.953735,281.430542 277.604675,283.672028 
	C276.077606,277.043488 274.807648,271.636475 273.590454,266.217621 
	C272.385376,260.852600 271.744049,255.294754 269.922028,250.152176 
	C267.890991,244.419510 264.393433,239.211792 262.294220,233.496414 
	C260.009949,227.277145 257.633759,221.550369 251.861160,217.499496 
	C249.723068,215.999115 248.959335,212.540253 247.838867,210.472870 
	C252.411957,208.669388 255.626587,206.753510 259.063019,206.189850 
	C265.054474,205.207123 269.811584,202.445221 274.670624,198.060287 
z"/>
 <path
          stroke-linecap="round"
          stroke-linejoin="round"
          stroke-width="5"
          d="
M291.907257,133.078293 
	C291.571869,137.184662 292.133667,141.663452 290.630432,145.285065 
	C289.317993,148.446976 285.924713,150.968018 283.000641,153.176086 
	C280.013702,155.431641 276.576996,157.186264 273.132599,158.692245 
	C271.847748,159.253983 269.446747,159.072556 268.508331,158.202042 
	C267.019043,156.820511 265.625397,154.640701 265.444397,152.682770 
	C265.012970,148.015717 265.351501,143.280579 265.308014,138.573608 
	C265.270782,134.542496 265.723358,130.387619 264.902313,126.511375 
	C263.723114,120.944221 261.689575,115.543953 259.824677,110.140091 
	C258.003265,104.862083 255.934418,99.669495 253.978409,94.437828 
	C253.807343,93.980293 253.792099,93.402092 253.495285,93.063103 
	C245.967560,84.465759 239.177551,74.988136 230.548386,67.685188 
	C226.014374,63.848003 220.777100,59.938339 215.450089,56.601109 
	C208.630112,52.328594 201.531143,48.087143 194.853714,43.391075 
	C194.295425,42.998455 193.326096,43.190285 192.595718,43.115486 
	C191.550903,37.248806 193.399048,35.720280 198.883270,37.559753 
	C207.445892,40.431759 216.194290,42.830219 224.556366,46.194038 
	C231.152054,48.847286 237.357468,52.520859 243.598312,55.989388 
	C248.199631,58.546703 252.906708,61.098232 256.973785,64.385796 
	C262.102570,68.531601 266.851685,73.215569 271.352264,78.051186 
	C276.040344,83.088287 280.581207,88.340790 284.529907,93.960434 
	C287.217163,97.784836 288.687683,102.448074 290.865173,106.651848 
	C292.608490,110.017448 294.865906,113.136871 296.395111,116.587158 
	C297.711700,119.557762 298.529846,122.797890 299.198730,125.996162 
	C300.362213,131.559372 301.151428,137.200226 302.277039,142.772263 
	C302.831055,145.514801 303.682007,148.215744 304.670593,150.832764 
	C304.823181,151.236710 306.751556,151.522430 307.326202,151.113861 
	C309.287292,149.719498 310.946808,147.909271 312.848145,146.419495 
	C314.018005,145.502838 315.951721,143.938522 316.610962,144.311508 
	C318.269806,145.250015 320.486572,147.063660 320.571411,148.629898 
	C321.278351,161.676865 321.961823,174.755096 316.337677,187.178818 
	C314.058960,192.212402 312.473969,197.556854 310.421814,202.699402 
	C310.089081,203.533173 308.964508,204.050949 308.068359,204.835205 
	C311.755280,206.603149 315.116089,208.214737 318.991486,210.073059 
	C319.157257,216.284683 314.854401,220.793442 311.028320,225.174698 
	C307.129333,229.639481 302.379791,233.367661 297.954498,237.365036 
	C292.631104,242.173660 286.631073,244.639557 279.456360,242.640579 
	C278.249695,234.441498 275.088898,227.398178 269.847321,221.157608 
	C268.484467,219.535034 268.254974,216.960526 267.504913,214.823257 
	C268.157318,214.401138 268.809723,213.979019 269.462158,213.556900 
	C272.929535,217.307205 276.827423,220.758835 279.710419,224.914536 
	C281.581116,227.611023 282.012054,231.322296 283.012787,234.601883 
	C284.017700,237.895325 286.201172,237.706573 288.373810,236.192383 
	C295.443390,231.265411 303.257996,227.182877 307.278259,218.803986 
	C308.165649,216.954437 310.478882,215.789001 312.621338,213.874405 
	C310.949615,213.075684 309.891510,212.310333 308.722351,212.056549 
	C303.674408,210.960785 300.819366,208.119492 301.790497,203.507919 
	C302.441742,200.415436 304.803833,197.674011 306.448700,194.803146 
	C307.577484,192.833023 309.205231,191.044464 309.883209,188.940567 
	C311.672150,183.389282 313.503510,177.786209 314.493835,172.061203 
	C315.507935,166.199203 315.543884,160.167984 316.090729,153.148483 
	C311.872620,155.693115 309.320526,157.553467 306.505615,158.837906 
	C303.850800,160.049332 299.738983,156.425018 298.936890,153.288315 
	C297.095673,146.088226 294.862000,138.988495 292.150726,131.857742 
	C291.644958,132.271072 291.776123,132.674683 291.907257,133.078293 
M269.368317,85.797104 
	C257.236267,72.287689 243.893997,60.459866 226.008774,54.826805 
	C226.323547,55.870132 226.876160,56.687679 227.624741,57.239227 
	C231.661484,60.213493 236.210220,62.656555 239.718140,66.150513 
	C246.821442,73.225502 253.254364,80.941536 257.908356,89.955841 
	C258.894501,91.865860 260.207520,93.622139 261.057465,95.584587 
	C263.479828,101.177643 266.339294,106.679924 267.906342,112.518646 
	C269.658630,119.047577 270.158112,125.910400 271.283020,132.614456 
	C271.374023,133.156784 272.084778,133.595108 273.081940,134.743027 
	C273.384735,132.521286 273.576538,130.993225 273.804199,129.470535 
	C274.174042,126.997261 274.198456,124.392059 275.043518,122.090317 
	C276.117706,119.164406 278.435699,118.401009 281.461761,119.756310 
	C282.105347,120.044563 283.238586,119.239525 284.146240,118.938187 
	C283.636536,119.547081 283.126801,120.155975 282.617096,120.764862 
	C284.733490,122.282768 286.849915,123.800674 288.966309,125.318573 
	C289.428253,125.050362 289.890198,124.782150 290.352142,124.513939 
	C290.227325,122.487595 290.600891,120.260117 289.880188,118.474243 
	C288.039032,113.911987 286.103302,109.297958 283.486420,105.159264 
	C279.320068,98.570091 274.569885,92.350113 269.368317,85.797104 
M285.095581,132.042297 
	C283.982086,129.762497 282.868561,127.482712 281.755035,125.202919 
	C281.226959,125.244553 280.698883,125.286194 280.170807,125.327827 
	C280.170807,130.789932 280.170807,136.252045 280.170807,141.892456 
	C277.426361,141.763077 275.669098,141.680252 274.046875,141.603775 
	C273.624756,138.795883 273.257874,136.355606 272.890991,133.915314 
	C272.525208,133.965591 272.159424,134.015854 271.793640,134.066132 
	C271.793640,139.543137 271.793640,145.020157 271.793640,150.497177 
	C272.226746,150.887253 272.659851,151.277328 273.092957,151.667404 
	C276.941772,148.987198 281.891083,147.015167 284.237762,143.368362 
	C285.708862,141.082214 288.637146,136.646896 285.095581,132.042297 
M291.529785,131.154404 
	C294.366882,129.815018 294.317688,129.217239 291.113159,126.050034 
	C291.113159,127.511719 291.113159,128.973389 291.529785,131.154404 
z"/>
 <path
          stroke-linecap="round"
          stroke-linejoin="round"
          stroke-width="5"
          d="
M51.113983,157.889740 
	C49.020752,156.445648 47.086914,155.361435 44.942787,154.159317 
	C43.691925,165.332169 45.456398,176.526978 49.299362,187.328186 
	C50.855694,191.702484 53.839161,195.567108 56.157028,199.672775 
	C59.947044,206.386078 59.109806,209.021088 52.155571,212.255249 
	C51.132423,212.731064 50.068916,213.120102 48.241558,213.870743 
	C49.621578,215.558624 51.030285,216.797470 51.835056,218.349487 
	C55.361553,225.150467 62.102169,228.770081 67.253426,233.936752 
	C69.324120,236.013672 72.873703,236.616119 74.715897,237.431732 
	C78.541420,230.437836 81.551872,224.331787 85.233337,218.661407 
	C86.068901,217.374435 89.231491,217.598251 91.322968,217.126678 
	C90.954353,219.165665 91.217010,221.684235 90.099945,223.154617 
	C86.611038,227.747055 82.964188,232.066025 82.881165,238.295624 
	C82.841202,241.294540 77.755280,244.410248 74.746483,243.930099 
	C64.173141,242.242737 58.248001,233.892029 50.946678,227.530045 
	C48.524273,225.419296 45.944164,223.293640 44.196281,220.668655 
	C42.874683,218.683853 42.619755,215.921631 42.147171,213.456131 
	C41.591366,210.556427 42.985352,209.396347 45.914520,208.807693 
	C47.778500,208.433090 49.958668,206.826828 50.796341,205.166901 
	C51.327526,204.114319 49.771961,201.887009 48.948761,200.291519 
	C41.187351,185.248566 36.990059,169.542664 39.813595,152.476364 
	C40.028812,151.175522 39.944595,149.825531 40.005913,148.498688 
	C40.066029,147.197784 40.134247,145.897278 40.199722,144.580276 
	C43.655273,143.349548 46.200176,143.725601 47.681950,147.209549 
	C47.994156,147.943604 48.450741,148.807541 49.091240,149.174591 
	C50.963898,150.247665 52.963047,151.100021 54.912624,152.038879 
	C55.546097,150.311432 56.416740,148.630951 56.769863,146.847992 
	C57.969883,140.788971 58.184883,134.403290 60.257385,128.678665 
	C63.579708,119.501816 67.709969,110.558647 72.206795,101.883736 
	C76.056602,94.457001 80.257225,87.023872 85.498466,80.563721 
	C90.037941,74.968552 96.151695,70.609909 101.764038,65.938286 
	C106.588966,61.922100 111.387741,57.725624 116.758469,54.559460 
	C121.347763,51.853977 126.771584,50.591682 131.756165,48.522160 
	C137.941086,45.954262 143.944168,42.907528 150.233871,40.646381 
	C154.902527,38.967995 159.875504,38.060738 164.779160,37.177811 
	C165.711700,37.009903 167.547745,38.367775 167.881989,39.379951 
	C168.197815,40.336311 167.437469,42.306660 166.539505,42.889141 
	C163.000641,45.184681 159.157166,47.004883 155.556274,49.212769 
	C153.557373,50.438381 151.913528,52.238873 149.926620,53.489483 
	C148.148422,54.608738 145.833908,54.982769 144.250732,56.286392 
	C137.734421,61.651993 131.310287,67.139778 125.043373,72.794434 
	C120.854958,76.573662 116.365898,80.265633 113.133194,84.796959 
	C108.925255,90.695312 105.644112,97.292023 102.322769,103.772018 
	C100.274704,107.767830 98.876587,112.098976 97.226768,116.295326 
	C96.750885,117.505775 96.296387,118.747139 96.040062,120.016335 
	C95.612595,122.132996 95.222412,124.272881 95.047035,126.421799 
	C94.533020,132.720291 94.044518,139.023621 93.726349,145.334152 
	C93.576614,148.303925 94.116829,151.320023 93.844978,154.269119 
	C93.513809,157.861755 88.283890,160.346390 85.476250,158.497253 
	C82.816872,156.745819 80.360733,154.496674 77.467041,153.329865 
	C71.631905,150.976990 69.113556,146.408218 68.387413,140.751694 
	C67.881439,136.810211 68.289932,132.751328 68.289932,128.744904 
	C67.781555,128.690521 67.273178,128.636139 66.764801,128.581757 
	C66.412689,131.179977 66.268555,133.828506 65.655434,136.363617 
	C64.901451,139.481186 63.690300,142.485138 62.801373,145.574081 
	C62.117226,147.951431 61.783340,150.435837 61.015194,152.781448 
	C59.468765,157.503601 55.938313,158.949982 51.113983,157.889740 
M77.565567,146.894058 
	C80.816223,148.574478 84.066872,150.254898 87.898705,152.235748 
	C88.034790,149.683319 88.239815,147.501129 88.250366,145.318008 
	C88.278320,139.530350 87.277298,133.548325 88.416290,127.998840 
	C90.221825,119.201706 92.814064,110.437042 96.237640,102.138954 
	C99.372116,94.541595 103.338058,87.052475 108.226181,80.472992 
	C114.312195,72.281136 121.720154,65.071396 128.536819,57.460373 
	C125.370621,55.402458 122.723145,60.345734 119.482361,61.594376 
	C115.743675,63.034866 112.771828,66.421936 109.400040,68.871552 
	C106.432480,71.027496 102.917198,72.626259 100.453033,75.235367 
	C96.004143,79.945953 92.145813,85.216141 88.066559,90.273354 
	C85.041183,94.024017 81.609337,97.540154 79.158714,101.639153 
	C75.504044,107.752075 72.375290,114.205002 69.423569,120.695534 
	C68.635017,122.429482 69.304306,124.826416 69.304306,125.900650 
	C71.618416,124.065735 73.993279,122.037292 76.521187,120.221992 
	C78.732246,118.634209 80.614349,117.989876 83.091179,120.669373 
	C88.348885,126.357315 86.261253,133.065796 86.414307,139.447052 
	C86.433556,140.249634 84.429863,141.100708 83.363449,141.929306 
	C82.581848,140.868210 81.582191,139.897461 81.092560,138.715424 
	C80.745422,137.877426 81.179413,136.747055 81.104843,135.759232 
	C80.857254,132.479050 80.537354,129.204315 80.245186,125.927490 
	C79.590492,125.849968 78.935799,125.772438 78.281097,125.694916 
	C77.109421,127.550858 75.742432,129.313568 74.803421,131.280579 
	C72.195633,136.743240 74.822121,141.523743 77.565567,146.894058 
z"/>

</svg>