<svg version="1.1" id="Layer_1" xmlns="http://www.w3.org/2000/svg" xmlns:xlink="http://www.w3.org/1999/xlink" x="0px" y="0px"
	 width="100%" viewBox="0 0 1312 1312" enable-background="new 0 0 1312 1312" xml:space="preserve">

<path fill="#43100D" opacity="1.000000" stroke="none" 
	d="
M852.320374,1287.805908 
	C836.922607,1282.910156 821.223633,1278.782715 806.213501,1272.898071 
	C791.773804,1267.237183 777.763000,1260.286987 764.080200,1252.941284 
	C747.863708,1244.235229 733.672791,1232.615479 722.516296,1217.887329 
	C714.036865,1206.693115 706.017639,1195.072876 698.756042,1183.060547 
	C693.908997,1175.042114 690.471680,1166.117065 686.893250,1157.396851 
	C677.725037,1135.055054 668.842041,1112.596191 659.802246,1090.201538 
	C659.145142,1088.573608 658.143494,1087.084839 656.715820,1084.448975 
	C653.207764,1090.453979 649.782104,1095.315308 647.364746,1100.634766 
	C638.403625,1120.354248 629.994019,1140.325317 620.955566,1160.008301 
	C612.972778,1177.392212 603.296082,1193.721680 590.622437,1208.292725 
	C577.522034,1223.354614 561.773743,1234.725830 544.117249,1243.492065 
	C534.485962,1248.273804 524.325989,1252.030762 514.279297,1255.927124 
	C491.897919,1264.607300 469.439087,1273.087769 447.009338,1281.643311 
	C435.731079,1285.945068 424.461487,1290.270508 413.153076,1294.491821 
	C411.161377,1295.235229 408.997223,1295.516724 406.206360,1295.863037 
	C384.882507,1299.589111 364.121979,1297.980347 343.386597,1297.334961 
	C333.453644,1297.227417 323.487823,1297.584717 313.596680,1296.885742 
	C303.039093,1296.139526 292.509674,1294.664917 282.044861,1293.019165 
	C268.934113,1290.957275 259.894623,1283.744019 253.077362,1272.005127 
	C240.726486,1250.737549 231.966568,1228.119263 224.293579,1204.926880 
	C220.659302,1193.942017 215.814224,1183.306885 212.873672,1172.155640 
	C208.584549,1155.890137 205.286850,1139.347656 202.041473,1122.829834 
	C200.710724,1116.056763 200.617722,1109.040405 200.039108,1101.206543 
	C200.078659,1084.760376 200.040787,1069.242432 200.002899,1053.724609 
	C201.470718,1039.111084 202.504761,1024.436401 204.555099,1009.904968 
	C205.980453,999.802979 208.017044,989.641479 211.179001,979.963501 
	C216.321808,964.222534 224.881134,950.139099 235.470856,937.393372 
	C241.374893,930.287292 247.613678,923.459290 254.248810,916.086304 
	C255.148926,914.765259 255.501831,913.863831 255.854752,912.962463 
	C255.854767,912.962463 255.863068,912.930847 256.273926,913.124634 
	C256.763214,912.842896 256.841675,912.367371 256.920166,911.891907 
	C256.920166,911.891907 256.969208,911.969116 257.326477,912.138428 
	C257.762695,911.835754 257.841583,911.363770 257.920502,910.891724 
	C257.920502,910.891724 257.968536,910.968445 258.325897,911.137329 
	C258.762421,910.834656 258.841583,910.363159 258.920746,909.891602 
	C258.920746,909.891602 258.969543,909.968445 259.322876,910.138306 
	C259.775818,909.831970 259.875366,909.355835 259.974945,908.879700 
	C259.974945,908.879700 259.969940,908.976318 260.301056,909.087402 
	C260.757599,908.758057 260.883026,908.317627 261.008484,907.877197 
	C261.008484,907.877197 261.007690,908.007568 261.314270,908.104492 
	C261.753693,907.760071 261.886597,907.318787 262.019470,906.877441 
	C262.019440,906.877441 262.019226,907.019226 262.315491,907.078369 
	C262.747650,906.717468 262.883514,906.297424 263.019348,905.877441 
	C263.019379,905.877441 263.019653,906.019714 263.316345,906.075989 
	C263.736847,905.711304 263.860626,905.290405 263.984406,904.869446 
	C263.984406,904.869446 263.996918,904.995300 264.392944,905.063599 
	C264.872162,904.586487 264.955414,904.041077 265.038635,903.495728 
	C265.038635,903.495728 265.239624,903.070190 265.799988,903.230713 
	C266.713928,902.929260 267.067474,902.467224 267.421021,902.005249 
	C278.955994,892.621094 290.490112,883.235901 302.026184,873.853149 
	C315.386963,862.986145 328.762024,852.136597 342.090179,841.229797 
	C343.322357,840.221497 344.260681,838.854187 345.979309,836.934143 
	C340.753510,835.773804 336.431610,834.334412 332.015076,833.931152 
	C322.193420,833.034546 312.328156,832.583069 302.473938,832.082153 
	C279.630798,830.921204 256.666107,831.249023 234.101746,826.668396 
	C206.596710,821.084961 184.633881,806.222229 166.621887,785.294800 
	C151.510590,767.737488 136.634460,749.956970 122.235260,731.814148 
	C110.100380,716.524292 98.419838,700.836792 87.266998,684.817871 
	C79.988495,674.363708 73.871956,663.083801 67.495102,652.023743 
	C61.672115,641.924255 59.789818,630.572693 57.809868,619.281616 
	C55.936478,608.598328 50.966049,599.579285 44.434727,590.851746 
	C32.955193,575.512146 21.913631,559.703979 16.070555,541.110107 
	C15.346898,538.807312 15.554597,535.221069 16.911148,533.419739 
	C24.466631,523.386902 31.977575,513.225464 40.521290,504.056061 
	C51.007729,492.801575 62.203213,482.155029 73.645111,471.860229 
	C82.737892,463.679016 92.513557,456.226929 102.255333,448.804596 
	C113.838928,439.978912 125.393600,431.050690 137.537735,423.041687 
	C152.623917,413.092468 167.870834,403.224152 183.830215,394.802582 
	C204.230789,384.037384 225.280182,374.460022 246.312851,364.952301 
	C256.557190,360.321411 267.398163,357.010406 278.667816,353.185303 
	C289.949493,353.175842 300.532471,353.083038 311.115417,352.990204 
	C324.973755,355.426300 338.079285,360.117249 350.070068,367.385498 
	C362.498871,374.919220 374.731445,382.827026 386.612579,391.192261 
	C392.330109,395.217834 397.049225,400.663940 402.208008,405.480164 
	C412.170410,414.781006 422.022339,424.203278 432.115967,433.359314 
	C439.125336,439.717590 446.438538,445.743011 453.678284,451.843231 
	C454.745758,452.742706 456.158173,453.232819 457.410950,453.912323 
	C457.819916,453.663330 458.228851,453.414368 458.637817,453.165375 
	C456.474030,446.365967 454.708618,439.407471 452.069153,432.798065 
	C445.118988,415.394501 437.181885,398.361603 430.828796,380.751465 
	C426.763489,369.482727 423.988403,357.578522 422.152557,345.724213 
	C420.385406,334.313751 419.436707,322.526062 420.196472,311.040894 
	C421.063904,297.928467 423.346222,284.748169 426.559326,271.986481 
	C432.951813,246.597275 444.430023,223.065277 456.171082,199.851212 
	C468.736572,175.007080 482.062897,150.491562 496.298126,126.571098 
	C503.773224,114.010246 513.644531,102.816193 523.001587,91.473351 
	C525.556274,88.376465 529.918823,85.982422 533.883057,84.991196 
	C543.976868,82.467293 554.244446,80.259613 564.573914,79.162842 
	C575.053528,78.050125 581.877075,72.421928 587.647095,64.455330 
	C593.011230,57.049187 597.865356,49.119698 604.134766,42.558380 
	C614.246155,31.976265 626.115417,24.351116 641.859558,24.892391 
	C653.646057,25.297602 665.703735,24.148947 676.859924,28.492994 
	C691.168152,34.064426 705.788635,39.487907 718.909729,47.274887 
	C732.701416,55.459808 745.213074,65.958015 757.653809,76.210175 
	C766.582947,83.568581 774.628235,92.033195 782.802856,100.267372 
	C808.137695,125.786995 829.184875,154.571045 847.002502,185.736465 
	C855.505249,200.609055 863.984131,215.671921 867.552002,232.571121 
	C870.004150,244.185699 870.554077,256.201874 871.585510,268.747650 
	C871.150879,281.659485 871.084961,293.862213 871.019043,306.064972 
	C871.337830,307.512634 871.962158,308.967255 871.929443,310.406982 
	C871.481689,330.114838 871.217896,349.857941 865.526672,368.986145 
	C861.274841,383.276489 856.897888,397.529541 852.606567,411.808228 
	C852.100098,413.493561 851.783386,415.235962 851.119385,418.051636 
	C855.847595,416.569244 859.866943,415.693024 863.569153,414.086243 
	C888.062866,403.456146 912.320251,392.261780 936.994080,382.073456 
	C954.014954,375.045197 971.952820,370.725555 990.180908,367.880310 
	C996.548645,366.886353 1002.958252,366.160706 1010.055664,365.448242 
	C1026.291626,365.401917 1041.820801,365.219849 1057.349854,365.037720 
	C1063.587402,365.652832 1069.835449,366.178314 1076.060791,366.898621 
	C1102.404419,369.946747 1127.689819,377.065002 1152.178589,387.077789 
	C1173.960449,395.983795 1194.120361,407.766693 1213.509399,421.104187 
	C1232.387085,434.089966 1249.226929,449.345032 1264.625977,466.076691 
	C1277.431763,479.990570 1287.715454,495.850464 1295.431152,513.312256 
	C1300.592773,524.993408 1297.342041,535.833740 1293.155884,546.605042 
	C1287.811768,560.355835 1281.195679,573.663147 1276.622803,587.650330 
	C1270.284668,607.037048 1264.711670,626.728699 1259.964233,646.565735 
	C1254.825928,668.036255 1248.774780,689.146545 1240.620239,709.650269 
	C1232.871216,729.134216 1223.445435,747.760986 1211.672363,765.137573 
	C1199.605835,782.947266 1183.835571,796.807739 1164.798584,806.591370 
	C1150.364502,814.009338 1135.720825,821.319519 1120.496704,826.809326 
	C1107.364624,831.544800 1093.416382,834.505127 1079.581665,836.665894 
	C1065.870605,838.807190 1051.850464,838.968018 1037.138550,839.919922 
	C1031.715576,839.934875 1027.097168,839.772400 1022.529846,840.181458 
	C1016.242554,840.744568 1009.994080,841.739807 1003.728943,842.549927 
	C996.337280,843.335815 988.945679,844.121826 981.153564,845.319946 
	C978.112000,845.875427 975.470886,846.018799 972.829712,846.162170 
	C972.766907,846.400757 972.704041,846.639282 972.641235,846.877808 
	C973.468262,847.237915 974.295349,847.597961 975.122375,847.958069 
	C975.122375,847.958069 974.995239,847.964722 974.900269,848.298218 
	C975.257629,848.754517 975.710022,848.877380 976.162354,849.000183 
	C976.162354,849.000183 975.999939,849.000916 975.889526,849.324097 
	C976.238586,849.756958 976.698059,849.866699 977.157593,849.976440 
	C977.157593,849.976379 977.022278,849.980164 976.877075,850.319702 
	C977.205444,850.761047 977.679077,850.862793 978.152649,850.964478 
	C978.152649,850.964478 978.034424,850.965210 977.885254,851.320557 
	C978.206726,851.768311 978.677246,851.860718 979.147827,851.953125 
	C979.147827,851.953125 979.045227,851.953918 978.865723,852.322998 
	C979.173828,852.784668 979.661438,852.877319 980.149048,852.970032 
	C980.149048,852.970032 980.030273,852.965393 979.851196,853.324463 
	C980.165894,853.777283 980.659668,853.870972 981.153381,853.964600 
	C981.153381,853.964600 981.034607,853.969666 980.838623,854.332703 
	C981.144958,854.785706 981.647278,854.875671 982.149597,854.965637 
	C982.149597,854.965637 982.036377,854.962280 981.851562,855.314697 
	C982.163269,855.773010 982.659790,855.878967 983.156250,855.984985 
	C983.156250,855.984985 983.015503,855.984741 982.862610,856.319824 
	C983.193176,856.766663 983.676697,856.878479 984.160156,856.990234 
	C984.160156,856.990234 984.010742,856.990723 983.878296,857.308350 
	C984.219055,857.752075 984.692261,857.878174 985.165405,858.004272 
	C985.165405,858.004272 984.996582,858.004395 984.905396,858.310974 
	C985.263489,858.748962 985.712830,858.880371 986.162170,859.011780 
	C986.162170,859.011780 985.997559,859.002258 985.886658,859.266357 
	C986.180481,859.726990 986.585144,859.923462 986.989868,860.119873 
	C996.348511,867.820129 1005.410583,875.920715 1015.137024,883.124329 
	C1028.800049,893.243347 1040.021362,905.676514 1048.783447,919.903992 
	C1056.733276,932.812561 1063.023682,946.798218 1069.386353,960.612793 
	C1075.078125,972.970764 1076.935669,986.443970 1078.053467,999.863647 
	C1079.169312,1013.258972 1079.386963,1026.728760 1080.021118,1040.164795 
	C1080.333618,1046.785889 1080.697754,1053.404419 1080.602783,1060.695068 
	C1080.112793,1078.613892 1080.058472,1095.861694 1080.004272,1113.109497 
	C1080.004272,1113.109497 1080.048950,1113.580078 1079.915527,1114.197998 
	C1079.518188,1127.278931 1079.254395,1139.741821 1078.990601,1152.204712 
	C1079.306274,1158.115601 1079.751709,1164.023682 1079.877686,1169.938599 
	C1079.932739,1172.515991 1079.212402,1175.099976 1079.051758,1177.693726 
	C1078.429932,1187.735107 1078.040405,1197.794434 1077.179321,1207.814087 
	C1077.030884,1209.540527 1075.318481,1211.520386 1073.788818,1212.657227 
	C1070.881958,1214.817383 1067.777832,1216.984741 1064.413330,1218.203979 
	C1055.399414,1221.470337 1052.936890,1228.996948 1051.957031,1237.114380 
	C1050.321045,1250.666992 1049.416016,1264.306396 1048.015625,1277.889893 
	C1047.568970,1282.223022 1046.527466,1286.494873 1044.914917,1290.901123 
	C993.712036,1290.999390 943.352356,1290.991333 892.582275,1290.896606 
	C878.887939,1289.808716 865.604187,1288.807251 852.320374,1287.805908 
M484.075073,508.603241 
	C451.612122,471.280151 413.642456,440.946747 368.604797,420.284058 
	C352.046021,412.687103 334.632385,406.019623 316.906403,402.121918 
	C291.003815,396.426300 265.456482,402.023193 241.070175,411.594788 
	C199.499054,427.911346 161.778931,451.089386 126.426758,478.137939 
	C104.322899,495.049988 84.938072,514.669617 69.906906,538.338928 
	C67.422165,542.251648 67.168098,544.791870 70.600082,548.593506 
	C78.511230,557.356628 85.965889,566.572632 93.077599,576.003174 
	C98.417839,583.084656 100.945541,591.265259 100.165771,600.404663 
	C99.444145,608.862671 99.765106,617.425598 98.768661,625.840637 
	C97.223679,638.888123 101.221916,649.635315 110.132797,659.027161 
	C118.272530,667.606201 126.753883,675.980835 133.922852,685.335876 
	C148.000107,703.705933 161.238693,722.717529 174.884644,741.419617 
	C185.035751,755.331970 195.617493,769.116638 210.255127,778.468689 
	C246.744659,801.781982 287.052826,813.663147 330.211029,814.946777 
	C366.988403,816.040588 403.211090,809.392212 440.532928,805.536255 
	C448.148193,806.407593 455.763428,807.278931 462.886810,808.658752 
	C455.371552,812.812744 447.856293,816.966736 439.528717,821.136902 
	C427.104370,825.869812 414.680023,830.602722 401.521881,835.637878 
	C382.191284,846.078491 362.675018,856.192688 343.582367,867.051636 
	C324.563538,877.868652 306.854889,890.653320 290.858215,905.661499 
	C272.235291,923.133728 259.247101,944.662720 247.356384,966.915771 
	C240.172607,980.359924 236.826050,994.681702 236.590149,1010.084778 
	C235.811539,1060.923340 243.698380,1110.429199 259.617798,1158.533447 
	C267.717896,1183.009888 277.829376,1206.828491 287.277161,1230.847778 
	C291.372803,1241.260254 299.473572,1246.400879 310.662964,1246.323975 
	C316.316925,1246.285156 321.984222,1246.022827 327.617432,1245.536621 
	C343.918579,1244.129761 360.260223,1242.877686 376.335480,1246.867798 
	C393.461182,1251.118530 409.843109,1249.084351 426.344727,1243.498291 
	C445.429718,1237.037842 464.938629,1231.833496 484.045013,1225.431519 
	C499.646484,1220.203979 515.808838,1215.653076 530.162964,1207.910767 
	C558.807800,1192.460205 580.969543,1168.988647 599.430908,1142.641968 
	C621.834473,1110.669189 632.749939,1073.588623 639.273254,1035.728271 
	C642.855225,1014.939270 641.130737,993.236023 641.968384,971.061096 
	C642.552917,963.651184 643.258911,956.248413 643.694153,948.829712 
	C644.380615,937.131226 644.885193,925.421997 645.640625,912.831055 
	C645.640625,893.075623 645.640625,873.320190 645.640625,853.564758 
	C646.981506,855.649780 647.470642,857.751160 647.690063,859.880310 
	C649.886475,881.195740 652.038574,902.515808 654.077454,924.783020 
	C654.500000,939.195435 654.922485,953.607849 655.325500,968.953552 
	C655.520020,1003.066833 657.334534,1036.995605 670.105286,1069.193604 
	C680.561707,1095.556519 692.867981,1121.071899 707.539124,1145.383179 
	C720.416504,1166.722168 735.122681,1186.670776 753.305664,1203.855347 
	C761.657654,1211.748779 770.151611,1219.346680 781.044678,1223.951660 
	C811.779358,1236.944092 844.120544,1242.265259 877.085083,1242.601562 
	C919.554688,1243.035034 962.041016,1241.738159 1004.521545,1241.328735 
	C1008.402283,1241.291260 1009.556824,1239.894775 1009.085388,1236.287109 
	C1008.287109,1230.176758 1007.683594,1224.041138 1006.919312,1217.926025 
	C1005.561707,1207.063965 1008.369324,1197.676514 1017.078308,1190.693970 
	C1025.515259,1183.929199 1034.150269,1177.404053 1042.847778,1170.975952 
	C1045.503784,1169.012939 1046.589966,1166.896118 1046.833496,1163.546875 
	C1048.548096,1139.971069 1050.689209,1116.426147 1052.379517,1092.848877 
	C1053.879272,1071.926880 1056.142090,1050.966309 1055.970337,1030.040039 
	C1055.719971,999.525208 1044.984009,971.673462 1030.040405,945.399658 
	C1014.448608,917.986511 993.856140,894.412109 973.242065,870.767578 
	C959.492737,854.996948 943.331177,843.654541 923.637207,836.726624 
	C915.530029,833.874695 908.007263,829.341675 900.274902,825.461304 
	C898.829468,824.735962 897.651306,823.478149 896.349731,822.466064 
	C910.529114,822.147827 924.188538,822.227112 937.775269,823.260925 
	C985.364563,826.881897 1031.457764,819.657104 1076.505249,804.679382 
	C1093.311523,799.091431 1110.169922,792.962219 1123.593750,781.083862 
	C1161.986206,747.111267 1187.313721,705.550537 1192.661499,653.757202 
	C1196.321777,618.306152 1205.987305,585.289001 1225.626709,555.278687 
	C1230.133789,548.391724 1233.370361,540.505127 1236.184692,532.714783 
	C1241.540039,517.891113 1239.548096,504.486450 1226.538818,494.019623 
	C1224.854980,492.664825 1223.384155,491.047180 1221.717773,489.668396 
	C1197.272949,469.443420 1171.498779,451.103638 1143.863770,435.483521 
	C1123.809082,424.148071 1103.238403,413.759949 1080.836548,407.891205 
	C1046.976074,399.020569 1012.361938,397.309174 977.679871,399.982574 
	C933.710449,403.371826 893.669128,418.678741 859.296570,446.180634 
	C841.711975,460.250214 826.435974,477.317505 810.826111,493.705811 
	C799.025269,506.095123 788.349426,519.556030 776.775818,532.859375 
	C769.053833,540.919067 759.726929,546.016602 748.937500,547.334412 
	C753.480347,537.714355 758.023193,528.094360 763.114929,518.116577 
	C773.028992,504.745453 782.943115,491.374329 793.246521,477.438171 
	C800.338379,466.550629 807.628906,455.786346 814.480469,444.749603 
	C828.393188,422.338989 836.872437,397.959778 839.979065,371.753784 
	C843.666748,340.645355 842.740784,309.556946 839.153625,278.519104 
	C836.261719,253.496582 829.433411,229.830231 813.632751,209.593521 
	C787.816528,176.529266 759.382446,145.954514 726.769348,119.440857 
	C709.282288,105.224312 690.993347,92.161263 670.645691,82.254059 
	C660.805542,77.462952 650.575195,74.240021 639.398499,74.838493 
	C634.876465,75.080643 630.976501,75.983482 628.060425,79.898407 
	C624.681030,84.435265 620.547852,88.444778 617.445007,93.147133 
	C606.945068,109.059692 591.987610,118.056152 573.849304,122.662880 
	C564.817444,124.956779 555.653076,127.165665 547.088318,130.715103 
	C540.970337,133.250549 534.820984,137.089783 530.355347,141.898056 
	C524.192627,148.533646 518.449829,156.075317 514.542664,164.198395 
	C499.457581,195.560776 484.365936,226.966019 470.784393,258.994598 
	C451.434601,304.626190 448.953705,351.687286 463.268494,399.300720 
	C472.295746,429.326843 487.109314,456.789368 502.099213,484.846313 
	C510.986938,496.646088 519.874634,508.445831 528.985168,520.914551 
	C532.406372,528.158325 535.827637,535.402039 538.842590,543.448975 
	C538.147827,549.726929 537.453064,556.004883 536.627319,563.466675 
	C534.198303,561.223145 532.694946,559.984924 531.364502,558.582703 
	C515.744385,542.120117 500.150208,525.632812 484.075073,508.603241 
z"/>
<path fill="#A28684" opacity="1.000000" stroke="none" 
	d="
M892.992737,1290.983154 
	C943.352356,1290.991333 993.712036,1290.999390 1044.541504,1291.034424 
	C1043.317871,1291.372314 1041.624878,1291.952881 1039.931274,1291.954712 
	C991.265137,1292.007935 942.599060,1292.003174 893.436768,1291.734375 
	C892.940552,1291.461060 892.992737,1290.983154 892.992737,1290.983154 
z"/>
<path fill="#B19998" opacity="1.000000" stroke="none" 
	d="
M343.213348,1297.724609 
	C364.121979,1297.980347 384.882507,1299.589111 405.810242,1295.857666 
	C401.617249,1297.022095 397.130707,1298.827148 392.607819,1298.923340 
	C376.715576,1299.261475 360.810730,1299.021973 344.910950,1298.948975 
	C344.286041,1298.946167 343.663635,1298.404663 343.213348,1297.724609 
z"/>
<path fill="#7A5350" opacity="1.000000" stroke="none" 
	d="
M1079.371338,1151.968750 
	C1079.254395,1139.741821 1079.518188,1127.278931 1079.908203,1114.434326 
	C1080.334229,1119.767212 1080.923706,1125.485229 1080.859009,1131.195801 
	C1080.781494,1138.044678 1080.146118,1144.887451 1079.371338,1151.968750 
z"/>
<path fill="#886664" opacity="1.000000" stroke="none" 
	d="
M892.582275,1290.896606 
	C892.992737,1290.983154 892.940552,1291.461060 892.969116,1291.699585 
	C879.596497,1291.560791 866.168335,1291.447266 852.708008,1287.832031 
	C865.604187,1288.807251 878.887939,1289.808716 892.582275,1290.896606 
z"/>
<path fill="#A38785" opacity="1.000000" stroke="none" 
	d="
M1080.388428,1112.889893 
	C1080.058472,1095.861694 1080.112793,1078.613892 1080.555664,1061.157959 
	C1080.887085,1078.189941 1080.829956,1095.430176 1080.388428,1112.889893 
z"/>
<path fill="#835F5D" opacity="1.000000" stroke="none" 
	d="
M1057.101074,364.650208 
	C1041.820801,365.219849 1026.291626,365.401917 1010.457764,365.348328 
	C1024.090210,364.730042 1038.026978,364.333282 1051.964966,363.983765 
	C1053.590698,363.942993 1055.223145,364.163330 1057.101074,364.650208 
z"/>
<path fill="#663B38" opacity="1.000000" stroke="none" 
	d="
M199.645325,1053.999023 
	C200.040787,1069.242432 200.078659,1084.760376 200.058212,1100.761963 
	C199.661316,1100.707275 199.025711,1100.167847 199.027390,1099.630615 
	C199.074768,1084.511475 199.186554,1069.392578 199.645325,1053.999023 
z"/>
<path fill="#B7A19E" opacity="1.000000" stroke="none" 
	d="
M1004.094116,842.495605 
	C1009.994080,841.739807 1016.242554,840.744568 1022.529846,840.181458 
	C1027.097168,839.772400 1031.715576,839.934875 1036.705811,839.919067 
	C1036.164429,840.362244 1035.239258,841.016296 1034.291382,841.050842 
	C1025.139526,841.384583 1015.983643,841.601929 1006.830200,841.895386 
	C1006.034851,841.920837 1005.249329,842.252136 1004.094116,842.495605 
z"/>
<path fill="#8D6D6C" opacity="1.000000" stroke="none" 
	d="
M310.887543,352.646271 
	C300.532471,353.083038 289.949493,353.175842 279.026550,353.135193 
	C281.713074,352.304688 284.747650,350.991943 287.764496,351.031433 
	C295.400452,351.131287 303.028473,351.838440 310.887543,352.646271 
z"/>
<path fill="#896564" opacity="1.000000" stroke="none" 
	d="
M871.407104,305.856079 
	C871.084961,293.862213 871.150879,281.659485 871.567871,269.204041 
	C871.877686,281.183289 871.836426,293.415253 871.407104,305.856079 
z"/>
<path fill="#C4B3B1" opacity="1.000000" stroke="none" 
	d="
M975.116882,847.554321 
	C974.295349,847.597961 973.468262,847.237915 972.641235,846.877808 
	C972.704041,846.639282 972.766907,846.400757 972.829712,846.162170 
	C975.470886,846.018799 978.112000,845.875427 980.704468,845.257446 
	C977.593445,842.728760 975.907776,843.898438 975.116882,847.554321 
z"/>
<path fill="#B79D9C" opacity="1.000000" stroke="none" 
	d="
M255.540405,912.999695 
	C255.501831,913.863831 255.148926,914.765259 254.444061,915.810913 
	C254.470093,914.982483 254.848099,914.009705 255.540405,912.999695 
z"/>
<path fill="#B79D9C" opacity="1.000000" stroke="none" 
	d="
M256.634888,911.917358 
	C256.841675,912.367371 256.763214,912.842896 256.288940,913.118103 
	C256.045288,912.592834 256.197479,912.267822 256.634888,911.917358 
z"/>
<path fill="#C4B3B1" opacity="1.000000" stroke="none" 
	d="
M976.080566,848.710083 
	C975.710022,848.877380 975.257629,848.754517 974.897095,848.234619 
	C975.325500,848.031738 975.662109,848.225891 976.080566,848.710083 
z"/>
<path fill="#C4B3B1" opacity="1.000000" stroke="none" 
	d="
M977.080688,849.688477 
	C976.698059,849.866699 976.238586,849.756958 975.889038,849.242798 
	C976.333862,849.025818 976.668823,849.213196 977.080688,849.688477 
z"/>
<path fill="#C4B3B1" opacity="1.000000" stroke="none" 
	d="
M978.095947,850.669189 
	C977.679077,850.862793 977.205444,850.761047 976.875427,850.252075 
	C977.359070,850.021240 977.699219,850.197571 978.095947,850.669189 
z"/>
<path fill="#C4B3B1" opacity="1.000000" stroke="none" 
	d="
M979.093140,851.662231 
	C978.677246,851.860718 978.206726,851.768311 977.885193,851.261475 
	C978.368958,851.021790 978.703735,851.196533 979.093140,851.662231 
z"/>
<path fill="#C4B3B1" opacity="1.000000" stroke="none" 
	d="
M980.097473,852.677673 
	C979.661438,852.877319 979.173828,852.784668 978.865601,852.271667 
	C979.378662,852.029358 979.712280,852.207336 980.097473,852.677673 
z"/>
<path fill="#C4B3B1" opacity="1.000000" stroke="none" 
	d="
M981.070068,853.691101 
	C980.659668,853.870972 980.165894,853.777283 979.853760,853.265137 
	C980.352478,853.036926 980.669617,853.227234 981.070068,853.691101 
z"/>
<path fill="#C4B3B1" opacity="1.000000" stroke="none" 
	d="
M982.095581,854.671753 
	C981.647278,854.875671 981.144958,854.785706 980.836304,854.273315 
	C981.367126,854.026489 981.704285,854.202209 982.095581,854.671753 
z"/>
<path fill="#C4B3B1" opacity="1.000000" stroke="none" 
	d="
M983.083862,855.702087 
	C982.659790,855.878967 982.163269,855.773010 981.853516,855.258057 
	C982.363953,855.039062 982.687744,855.229187 983.083862,855.702087 
z"/>
<path fill="#C4B3B1" opacity="1.000000" stroke="none" 
	d="
M984.084534,856.703064 
	C983.676697,856.878479 983.193176,856.766663 982.862976,856.249451 
	C983.347168,856.034607 983.678040,856.225220 984.084534,856.703064 
z"/>
<path fill="#C4B3B1" opacity="1.000000" stroke="none" 
	d="
M985.090454,857.712585 
	C984.692261,857.878174 984.219055,857.752075 983.878174,857.233643 
	C984.345520,857.034424 984.680542,857.227661 985.090454,857.712585 
z"/>
<path fill="#B79D9C" opacity="1.000000" stroke="none" 
	d="
M257.634857,910.917480 
	C257.841583,911.363770 257.762695,911.835754 257.287903,912.113953 
	C257.044403,911.594482 257.196808,911.268799 257.634857,910.917480 
z"/>
<path fill="#B79D9C" opacity="1.000000" stroke="none" 
	d="
M258.634949,909.917358 
	C258.841583,910.363159 258.762421,910.834656 258.287537,911.113281 
	C258.044250,910.594604 258.196716,910.268860 258.634949,909.917358 
z"/>
<path fill="#B79D9C" opacity="1.000000" stroke="none" 
	d="
M259.680054,908.902649 
	C259.875366,909.355835 259.775818,909.831970 259.284363,910.114014 
	C259.056732,909.588562 259.220978,909.257080 259.680054,908.902649 
z"/>
<path fill="#B79D9C" opacity="1.000000" stroke="none" 
	d="
M260.741119,907.964722 
	C260.883026,908.317627 260.757599,908.758057 260.252747,909.084717 
	C260.073456,908.664734 260.273590,908.358521 260.741119,907.964722 
z"/>
<path fill="#B79D9C" opacity="1.000000" stroke="none" 
	d="
M261.745483,906.966797 
	C261.886597,907.318787 261.753693,907.760071 261.249054,908.104248 
	C261.075348,907.690186 261.273407,907.373169 261.745483,906.966797 
z"/>
<path fill="#B79D9C" opacity="1.000000" stroke="none" 
	d="
M262.743958,905.968018 
	C262.883514,906.297424 262.747650,906.717468 262.244568,907.078369 
	C262.074432,906.699097 262.271484,906.378845 262.743958,905.968018 
z"/>
<path fill="#B79D9C" opacity="1.000000" stroke="none" 
	d="
M263.716675,904.968262 
	C263.860626,905.290405 263.736847,905.711304 263.245239,906.076294 
	C263.067902,905.702515 263.258423,905.384766 263.716675,904.968262 
z"/>
<path fill="#B79D9C" opacity="1.000000" stroke="none" 
	d="
M264.748352,903.677124 
	C264.955414,904.041077 264.872162,904.586487 264.330017,905.069641 
	C264.066742,904.624451 264.262390,904.241516 264.748352,903.677124 
z"/>
<path fill="#B79D9C" opacity="1.000000" stroke="none" 
	d="
M267.016144,901.961853 
	C267.067474,902.467224 266.713928,902.929260 265.924042,903.217163 
	C265.862213,902.668213 266.236725,902.293335 267.016144,901.961853 
z"/>
<path fill="#C4B3B1" opacity="1.000000" stroke="none" 
	d="
M986.993958,859.809937 
	C986.585144,859.923462 986.180481,859.726990 985.891235,859.184082 
	C986.337097,859.058411 986.667603,859.279175 986.993958,859.809937 
z"/>
<path fill="#C4B3B1" opacity="1.000000" stroke="none" 
	d="
M986.090332,858.714966 
	C985.712830,858.880371 985.263489,858.748962 984.905090,858.226562 
	C985.336853,858.029846 985.677673,858.223999 986.090332,858.714966 
z"/>
<path fill="#D35E4B" opacity="1.000000" stroke="none" 
	d="
M654.203125,923.834534 
	C652.038574,902.515808 649.886475,881.195740 647.690063,859.880310 
	C647.470642,857.751160 646.981506,855.649780 645.640625,853.564758 
	C645.640625,873.320190 645.640625,893.075623 645.333069,913.526245 
	C638.970642,927.751465 632.785400,941.224915 626.887268,954.822876 
	C613.639587,985.365356 594.659973,1010.414429 562.349426,1022.807800 
	C543.361084,1030.091187 524.368958,1038.188843 503.961121,1039.635132 
	C481.067657,1041.257568 458.022247,1040.818115 435.040955,1040.969482 
	C433.125946,1040.982178 430.232727,1039.103760 429.430023,1037.353516 
	C424.571167,1026.759521 419.840881,1016.078552 415.714874,1005.181580 
	C405.580231,978.415649 398.765015,950.772156 396.406586,922.231812 
	C395.289764,908.716736 393.664246,895.027954 398.207550,881.603760 
	C402.982971,867.493774 410.406128,854.972107 420.018646,843.733032 
	C426.603638,836.033813 433.553986,828.647156 440.341034,821.120728 
	C447.856293,816.966736 455.371552,812.812744 463.490326,808.392334 
	C484.055634,798.182800 504.051086,788.306152 523.950012,778.238770 
	C527.809814,776.286011 531.293518,773.589905 534.950684,771.236633 
	C520.391235,771.653503 506.332581,772.944763 492.335876,774.723145 
	C467.543152,777.873047 442.882538,778.900635 418.511475,771.827087 
	C395.543579,765.160828 374.571350,755.512390 359.889465,735.309692 
	C349.908203,721.575195 339.205200,708.362061 328.722778,694.995911 
	C321.255402,685.474182 314.371094,675.697327 312.884857,663.230408 
	C312.333832,658.607971 312.118042,653.943176 311.491364,649.332703 
	C309.706635,636.203369 303.362946,625.115051 295.488678,614.815674 
	C292.845978,611.359070 292.334320,608.573975 295.841461,605.373779 
	C298.409149,603.030823 300.446625,600.117615 302.837982,597.568848 
	C332.937408,565.487732 368.064514,541.328796 410.710022,528.922119 
	C425.070679,524.744263 439.376770,524.554993 453.481171,529.434082 
	C485.493347,540.507874 513.633728,557.808472 536.926025,582.604126 
	C547.188416,593.528870 557.175354,604.713379 567.497742,615.580200 
	C571.607361,619.906616 576.285583,623.692810 580.705017,627.724915 
	C581.117004,627.394836 581.529053,627.064819 581.941101,626.734741 
	C580.672852,622.657471 579.560913,618.523682 578.110229,614.512451 
	C570.637024,593.847656 559.103271,575.272827 548.012695,556.479370 
	C545.239807,551.780579 542.177917,547.252380 539.248840,542.645813 
	C535.827637,535.402039 532.406372,528.158325 528.942627,520.115356 
	C529.145691,506.362976 528.426636,493.304688 529.823914,480.476929 
	C533.526062,446.488373 546.693481,415.725647 562.871948,385.881927 
	C570.767517,371.317352 581.623901,361.673584 597.117065,356.702789 
	C599.963806,355.789429 602.843018,354.775757 605.440002,353.328735 
	C610.359314,350.587738 615.451782,347.953644 619.800842,344.443207 
	C625.609558,339.754578 631.045837,334.521149 636.123474,329.041199 
	C639.226135,325.692749 642.278687,324.752014 646.222168,326.571014 
	C656.917480,331.504456 668.142334,335.594574 678.127258,341.702667 
	C701.987854,356.298828 720.072144,377.387177 738.759155,397.781403 
	C751.992126,412.223389 760.194702,428.955322 761.581482,448.236603 
	C762.914490,466.769867 762.291382,485.444275 762.508606,504.056885 
	C762.564697,508.862244 762.548889,513.668457 762.566040,518.474304 
	C758.023193,528.094360 753.480347,537.714355 748.604492,547.913330 
	C740.723938,559.877930 732.587952,570.925964 725.803650,582.749634 
	C719.710571,593.368591 715.055542,604.817993 709.897461,615.961792 
	C709.224976,617.414551 709.334900,619.229431 708.881653,622.186584 
	C711.070190,620.353638 712.156799,619.621826 713.026733,618.688171 
	C725.513611,605.286499 738.012756,591.895813 750.423462,578.423767 
	C761.641174,566.246765 773.544250,554.760437 787.746033,546.183960 
	C824.195251,524.172302 863.694275,520.769775 904.523193,529.070801 
	C940.261169,536.336731 969.180298,556.708252 996.189514,579.877136 
	C1010.206543,591.901123 1009.845215,593.374512 1002.373108,610.453674 
	C996.105103,624.780579 989.088135,638.892700 984.268250,653.706848 
	C979.913757,667.090698 978.771851,681.486633 974.999573,695.099976 
	C967.215881,723.190125 953.564697,747.761292 927.299622,762.640503 
	C909.592529,772.671692 889.998169,778.349731 869.725586,779.740417 
	C846.820068,781.311707 823.803040,781.260071 800.834229,781.902832 
	C799.108704,781.951172 797.380676,781.909180 795.245667,781.909180 
	C795.806824,782.903259 795.892578,783.277405 796.121277,783.416321 
	C796.685242,783.759155 797.304932,784.018250 797.919373,784.268921 
	C828.179932,796.608398 851.439880,817.226807 870.057434,843.850647 
	C887.344604,868.571960 897.158813,895.257446 895.174255,925.746948 
	C894.255005,939.869446 893.554871,954.006409 892.594177,968.125793 
	C892.006531,976.761353 889.250488,984.744812 884.505005,992.010742 
	C881.316406,996.892822 877.673950,1001.537903 875.010498,1006.690186 
	C870.685974,1015.055603 867.099121,1023.799561 862.952820,1032.262085 
	C862.144592,1033.911743 860.369324,1035.885132 858.755188,1036.187256 
	C854.533264,1036.977661 850.150574,1036.885132 845.837524,1037.216797 
	C819.072083,1039.274292 792.339233,1040.226685 765.558838,1036.989746 
	C737.225464,1033.565186 713.187073,1022.776489 697.353882,997.953003 
	C686.532288,980.986877 676.232239,963.681519 665.985352,946.358398 
	C661.677429,939.075500 658.108154,931.355713 654.203125,923.834534 
M587.875854,821.350708 
	C574.820923,837.538269 563.225769,854.985901 547.091980,868.514038 
	C538.155334,876.007446 529.141602,883.414001 520.356079,891.081299 
	C510.543152,899.645203 501.361877,908.705933 495.122162,920.487122 
	C490.694000,928.847839 491.211578,936.806396 494.923828,944.910645 
	C497.419586,950.359192 500.163483,955.713989 503.163605,960.898254 
	C503.971710,962.294678 506.086060,963.685730 507.660217,963.756348 
	C513.977966,964.039856 520.325195,963.966980 526.650085,963.725525 
	C539.017395,963.253540 549.019409,958.266357 554.909058,947.060669 
	C560.554688,936.319275 566.229553,925.512573 570.731750,914.270203 
	C577.220276,898.067749 584.794312,882.615234 595.719055,868.924255 
	C600.602295,862.804504 605.367676,856.589661 610.309265,850.517700 
	C626.991760,830.019287 645.762146,811.638062 666.408875,795.138489 
	C669.259094,792.860718 671.344543,792.485413 674.050354,795.216675 
	C680.845947,802.076233 688.637512,808.118347 694.551941,815.648865 
	C710.279358,835.673767 725.730652,855.957764 740.351685,876.798157 
	C756.897888,900.382751 773.074951,924.276489 784.970215,950.738281 
	C787.342285,956.015076 791.028076,960.689148 793.937744,965.739319 
	C798.391174,973.469055 805.442200,976.673035 813.888733,976.875793 
	C824.043152,977.119568 834.214355,976.955139 844.367065,976.622498 
	C845.691345,976.579102 847.718079,974.691711 848.088013,973.303589 
	C849.067139,969.629395 849.112366,965.718323 849.888794,961.976135 
	C854.285767,940.783386 847.485596,923.617676 831.289429,909.812012 
	C826.602234,905.816528 821.888977,901.836914 816.999329,898.096252 
	C798.811462,884.182190 781.061035,869.731018 768.349915,850.368652 
	C752.991455,826.973694 737.665100,803.520325 723.471313,779.417114 
	C718.098145,770.292603 715.588379,759.388977 712.407898,749.100220 
	C710.435425,742.719482 711.228027,736.593506 717.990234,732.736694 
	C727.216980,727.474365 735.783020,720.373535 745.639343,717.027771 
	C771.159485,708.364746 797.037659,700.575562 823.137207,693.851562 
	C849.074219,687.169495 876.003418,687.744690 902.563416,685.889221 
	C913.364197,685.134644 918.168518,682.476868 921.523987,672.149536 
	C924.240906,663.787048 926.015381,655.096558 927.756104,646.460449 
	C928.044434,645.030029 926.428223,642.466797 924.982788,641.568237 
	C919.329163,638.053650 913.493164,634.792175 907.534912,631.817322 
	C898.255249,627.184204 888.554016,625.643250 878.485413,629.153015 
	C871.568176,631.564392 864.492493,633.648193 857.829956,636.640625 
	C833.911743,647.383118 809.476868,656.567627 783.943420,662.704956 
	C773.578003,665.196472 763.337646,668.285645 752.890808,670.344116 
	C734.117065,674.043213 715.225220,677.140503 696.395325,680.559021 
	C692.535461,681.259766 690.492798,680.106995 689.971924,675.983948 
	C689.409546,671.532654 687.960632,667.178101 687.572021,662.722534 
	C684.578125,628.395508 680.868530,594.096497 679.208313,559.700684 
	C678.265503,540.168945 680.421143,520.446594 681.838562,500.857574 
	C682.664001,489.450165 680.682068,479.146606 674.846863,469.279053 
	C666.848633,455.753754 640.777527,448.426208 629.163208,467.657440 
	C621.500122,480.346191 616.176941,493.361877 622.255798,508.262665 
	C626.152466,517.814331 630.602234,527.142761 634.407532,536.728699 
	C638.451050,546.914856 643.735779,557.003174 645.499817,567.628723 
	C651.951050,606.486816 647.697327,644.641785 635.024414,681.914307 
	C633.858643,685.342957 632.050964,686.366150 628.751831,685.723083 
	C606.538879,681.393555 584.111816,677.939697 562.161804,672.544067 
	C538.482056,666.723206 515.940491,657.566040 495.134705,644.407227 
	C487.281158,639.440063 478.973419,634.812500 470.280029,631.669495 
	C463.115417,629.079163 455.069092,627.852234 447.426178,627.903625 
	C434.851135,627.988159 426.722076,636.336853 424.996613,648.907837 
	C422.889008,664.262695 428.592438,677.011902 438.477478,688.182190 
	C440.038300,689.945862 442.867798,691.400330 445.189240,691.524048 
	C451.990601,691.886536 458.831329,691.464844 465.657104,691.423767 
	C478.786469,691.344727 492.278961,689.326599 504.977264,691.642090 
	C542.168274,698.423584 576.384521,712.922729 606.482117,736.305786 
	C613.007996,741.375732 616.912292,748.086914 617.829712,756.178162 
	C619.103210,767.410034 617.156555,778.157349 610.784302,787.720581 
	C603.395142,798.809937 595.794189,809.758179 587.875854,821.350708 
z"/>
<path fill="#D35E4B" opacity="1.000000" stroke="none" 
	d="
M777.172913,532.539978 
	C788.349426,519.556030 799.025269,506.095123 810.826111,493.705811 
	C826.435974,477.317505 841.711975,460.250214 859.296570,446.180634 
	C893.669128,418.678741 933.710449,403.371826 977.679871,399.982574 
	C1012.361938,397.309174 1046.976074,399.020569 1080.836548,407.891205 
	C1103.238403,413.759949 1123.809082,424.148071 1143.863770,435.483521 
	C1171.498779,451.103638 1197.272949,469.443420 1221.717773,489.668396 
	C1223.384155,491.047180 1224.854980,492.664825 1226.538818,494.019623 
	C1239.548096,504.486450 1241.540039,517.891113 1236.184692,532.714783 
	C1233.370361,540.505127 1230.133789,548.391724 1225.626709,555.278687 
	C1205.987305,585.289001 1196.321777,618.306152 1192.661499,653.757202 
	C1187.313721,705.550537 1161.986206,747.111267 1123.593750,781.083862 
	C1110.169922,792.962219 1093.311523,799.091431 1076.505249,804.679382 
	C1031.457764,819.657104 985.364563,826.881897 937.775269,823.260925 
	C924.188538,822.227112 910.529114,822.147827 896.349731,822.466064 
	C897.651306,823.478149 898.829468,824.735962 900.274902,825.461304 
	C908.007263,829.341675 915.530029,833.874695 923.637207,836.726624 
	C943.331177,843.654541 959.492737,854.996948 973.242065,870.767578 
	C993.856140,894.412109 1014.448608,917.986511 1030.040405,945.399658 
	C1044.984009,971.673462 1055.719971,999.525208 1055.970337,1030.040039 
	C1056.142090,1050.966309 1053.879272,1071.926880 1052.379517,1092.848877 
	C1050.689209,1116.426147 1048.548096,1139.971069 1046.833496,1163.546875 
	C1046.589966,1166.896118 1045.503784,1169.012939 1042.847778,1170.975952 
	C1034.150269,1177.404053 1025.515259,1183.929199 1017.078308,1190.693970 
	C1008.369324,1197.676514 1005.561707,1207.063965 1006.919312,1217.926025 
	C1007.683594,1224.041138 1008.287109,1230.176758 1009.085388,1236.287109 
	C1009.556824,1239.894775 1008.402283,1241.291260 1004.521545,1241.328735 
	C962.041016,1241.738159 919.554688,1243.035034 877.085083,1242.601562 
	C844.120544,1242.265259 811.779358,1236.944092 781.044678,1223.951660 
	C770.151611,1219.346680 761.657654,1211.748779 753.305664,1203.855347 
	C735.122681,1186.670776 720.416504,1166.722168 707.539124,1145.383179 
	C692.867981,1121.071899 680.561707,1095.556519 670.105286,1069.193604 
	C657.334534,1036.995605 655.520020,1003.066833 655.626282,968.633667 
	C657.406189,970.871338 659.025513,973.359192 660.337402,975.999817 
	C663.821350,983.012390 667.134583,990.109497 670.583313,997.139832 
	C685.630615,1027.814453 708.874268,1049.228638 740.901001,1061.806030 
	C765.226440,1071.358765 790.363098,1075.416382 816.113037,1075.667358 
	C841.075989,1075.910522 866.053284,1074.656250 891.024658,1074.079834 
	C896.935608,1073.943481 897.510132,1073.273315 896.860901,1067.252563 
	C895.700867,1056.494507 894.452026,1045.742188 893.598206,1034.959106 
	C893.470337,1033.343628 894.852600,1030.861816 896.274597,1030.002441 
	C901.827148,1026.646240 907.821777,1024.015015 913.329346,1020.594788 
	C915.048889,1019.526917 916.716553,1016.831238 916.737244,1014.863159 
	C916.798279,1009.061401 915.788086,1003.257812 915.617920,997.442627 
	C915.096985,979.639160 914.537720,961.831238 914.441284,944.022583 
	C914.352112,927.565735 915.470398,911.083740 914.897278,894.653320 
	C914.331787,878.439575 909.149902,863.251404 900.706909,849.333679 
	C891.836365,834.711121 879.411438,823.418823 866.099182,812.983765 
	C859.910461,808.132629 853.833557,803.138855 846.647095,797.357849 
	C849.525757,797.063416 850.793091,796.841736 852.064087,796.817810 
	C866.549988,796.544983 881.048096,796.580994 895.519958,795.980713 
	C913.410767,795.238586 930.984070,792.649170 947.548889,785.207703 
	C988.967285,766.601135 1011.338745,733.382507 1020.848572,690.164856 
	C1023.424194,678.459839 1025.497559,666.549622 1029.274048,655.224609 
	C1035.698853,635.957520 1043.266235,617.070435 1050.420532,598.048889 
	C1051.448975,595.314453 1052.190918,593.013855 1050.173096,590.159607 
	C1035.644409,569.608643 1018.783569,551.244202 998.779358,535.968140 
	C972.540222,515.930908 942.974609,504.348328 910.130249,499.641266 
	C886.572021,496.265045 863.685425,496.833282 840.910645,503.146332 
	C820.832947,508.711761 802.528015,518.258911 784.811340,529.035645 
	C782.434204,530.481628 779.727173,531.385193 777.172913,532.539978 
z"/>
<path fill="#D35E4B" opacity="1.000000" stroke="none" 
	d="
M501.975800,484.192383 
	C487.109314,456.789368 472.295746,429.326843 463.268494,399.300720 
	C448.953705,351.687286 451.434601,304.626190 470.784393,258.994598 
	C484.365936,226.966019 499.457581,195.560776 514.542664,164.198395 
	C518.449829,156.075317 524.192627,148.533646 530.355347,141.898056 
	C534.820984,137.089783 540.970337,133.250549 547.088318,130.715103 
	C555.653076,127.165665 564.817444,124.956779 573.849304,122.662880 
	C591.987610,118.056152 606.945068,109.059692 617.445007,93.147133 
	C620.547852,88.444778 624.681030,84.435265 628.060425,79.898407 
	C630.976501,75.983482 634.876465,75.080643 639.398499,74.838493 
	C650.575195,74.240021 660.805542,77.462952 670.645691,82.254059 
	C690.993347,92.161263 709.282288,105.224312 726.769348,119.440857 
	C759.382446,145.954514 787.816528,176.529266 813.632751,209.593521 
	C829.433411,229.830231 836.261719,253.496582 839.153625,278.519104 
	C842.740784,309.556946 843.666748,340.645355 839.979065,371.753784 
	C836.872437,397.959778 828.393188,422.338989 814.480469,444.749603 
	C807.628906,455.786346 800.338379,466.550629 792.837769,477.398193 
	C791.951294,473.912354 791.260925,470.480560 791.032043,467.018219 
	C789.965881,450.886078 789.288086,434.525330 783.446594,419.355621 
	C769.010864,381.867401 748.283020,348.355804 717.346130,322.053802 
	C698.792114,306.279510 677.778809,294.962494 653.510742,290.709137 
	C639.168030,288.195343 626.290039,290.951813 616.612915,302.910309 
	C612.319702,308.215637 608.341675,313.804810 603.722473,318.804993 
	C601.536560,321.171204 598.390503,323.264862 595.310730,324.067719 
	C588.079041,325.952850 580.565796,326.740234 573.294556,328.500763 
	C570.819092,329.100098 567.963135,330.767914 566.581482,332.822144 
	C556.733337,347.464142 546.773743,362.063690 537.700378,377.187134 
	C520.838623,405.292206 508.812653,435.292328 504.454285,468.041199 
	C503.735870,473.439270 502.807281,478.809357 501.975800,484.192383 
z"/>
<path fill="#D35E4B" opacity="1.000000" stroke="none" 
	d="
M641.798828,971.944946 
	C641.130737,993.236023 642.855225,1014.939270 639.273254,1035.728271 
	C632.749939,1073.588623 621.834473,1110.669189 599.430908,1142.641968 
	C580.969543,1168.988647 558.807800,1192.460205 530.162964,1207.910767 
	C515.808838,1215.653076 499.646484,1220.203979 484.045013,1225.431519 
	C464.938629,1231.833496 445.429718,1237.037842 426.344727,1243.498291 
	C409.843109,1249.084351 393.461182,1251.118530 376.335480,1246.867798 
	C360.260223,1242.877686 343.918579,1244.129761 327.617432,1245.536621 
	C321.984222,1246.022827 316.316925,1246.285156 310.662964,1246.323975 
	C299.473572,1246.400879 291.372803,1241.260254 287.277161,1230.847778 
	C277.829376,1206.828491 267.717896,1183.009888 259.617798,1158.533447 
	C243.698380,1110.429199 235.811539,1060.923340 236.590149,1010.084778 
	C236.826050,994.681702 240.172607,980.359924 247.356384,966.915771 
	C259.247101,944.662720 272.235291,923.133728 290.858215,905.661499 
	C306.854889,890.653320 324.563538,877.868652 343.582367,867.051636 
	C362.675018,856.192688 382.191284,846.078491 401.713959,835.844360 
	C400.671234,837.812439 399.568115,839.685913 398.181152,841.318176 
	C384.279724,857.679077 373.112488,875.516235 369.407562,897.051392 
	C365.419556,920.232117 365.665405,943.511414 369.553680,966.685120 
	C375.762878,1003.691528 389.866425,1037.675049 409.827148,1069.289551 
	C411.014526,1071.170044 413.881592,1072.813843 416.134827,1073.065552 
	C432.179688,1074.858398 448.244965,1076.608276 464.349640,1077.685181 
	C479.512695,1078.698975 494.806396,1078.804688 509.231476,1072.991089 
	C534.881653,1062.653687 560.479370,1052.173340 585.914551,1041.320068 
	C603.831421,1033.674805 617.619751,1021.174561 626.266296,1003.518188 
	C630.657410,994.551514 634.527649,985.330994 638.744568,976.276917 
	C639.478699,974.700684 640.766663,973.382385 641.798828,971.944946 
z"/>
<path fill="#D35E4B" opacity="1.000000" stroke="none" 
	d="
M439.596069,805.244812 
	C403.211090,809.392212 366.988403,816.040588 330.211029,814.946777 
	C287.052826,813.663147 246.744659,801.781982 210.255127,778.468689 
	C195.617493,769.116638 185.035751,755.331970 174.884644,741.419617 
	C161.238693,722.717529 148.000107,703.705933 133.922852,685.335876 
	C126.753883,675.980835 118.272530,667.606201 110.132797,659.027161 
	C101.221916,649.635315 97.223679,638.888123 98.768661,625.840637 
	C99.765106,617.425598 99.444145,608.862671 100.165771,600.404663 
	C100.945541,591.265259 98.417839,583.084656 93.077599,576.003174 
	C85.965889,566.572632 78.511230,557.356628 70.600082,548.593506 
	C67.168098,544.791870 67.422165,542.251648 69.906906,538.338928 
	C84.938072,514.669617 104.322899,495.049988 126.426758,478.137939 
	C161.778931,451.089386 199.499054,427.911346 241.070175,411.594788 
	C265.456482,402.023193 291.003815,396.426300 316.906403,402.121918 
	C334.632385,406.019623 352.046021,412.687103 368.604797,420.284058 
	C413.642456,440.946747 451.612122,471.280151 483.888458,508.825378 
	C477.003235,506.127777 470.225647,503.375244 463.620758,500.256958 
	C443.699310,490.851593 423.405396,488.756683 402.619415,497.030487 
	C395.199890,499.983795 387.782990,503.055878 380.698364,506.718689 
	C352.942719,521.068726 327.236145,538.590027 302.550018,557.689270 
	C285.076263,571.208435 268.769287,585.769409 256.611084,604.517822 
	C254.201035,608.234131 253.801987,610.954712 256.408905,614.794250 
	C263.891327,625.814575 270.990570,637.097107 278.123474,648.350708 
	C279.338837,650.268250 280.435425,652.474854 280.805878,654.679199 
	C283.048767,668.026062 287.396942,680.728088 295.297791,691.597595 
	C312.318634,715.014099 330.012573,737.942871 347.523682,761.000916 
	C360.288361,777.808960 377.134827,787.729004 398.281555,789.233398 
	C416.853058,790.554626 435.482513,791.064209 454.087372,791.910217 
	C455.906097,791.992920 457.731873,791.921326 459.554382,791.921326 
	C459.570862,792.330566 459.587341,792.739746 459.603821,793.148987 
	C452.934570,797.180908 446.265320,801.212891 439.596069,805.244812 
z"/>
<path fill="#A12018" opacity="1.000000" stroke="none" 
	d="
M776.974365,532.699707 
	C779.727173,531.385193 782.434204,530.481628 784.811340,529.035645 
	C802.528015,518.258911 820.832947,508.711761 840.910645,503.146332 
	C863.685425,496.833282 886.572021,496.265045 910.130249,499.641266 
	C942.974609,504.348328 972.540222,515.930908 998.779358,535.968140 
	C1018.783569,551.244202 1035.644409,569.608643 1050.173096,590.159607 
	C1052.190918,593.013855 1051.448975,595.314453 1050.420532,598.048889 
	C1043.266235,617.070435 1035.698853,635.957520 1029.274048,655.224609 
	C1025.497559,666.549622 1023.424194,678.459839 1020.848572,690.164856 
	C1011.338745,733.382507 988.967285,766.601135 947.548889,785.207703 
	C930.984070,792.649170 913.410767,795.238586 895.519958,795.980713 
	C881.048096,796.580994 866.549988,796.544983 852.064087,796.817810 
	C850.793091,796.841736 849.525757,797.063416 846.647095,797.357849 
	C853.833557,803.138855 859.910461,808.132629 866.099182,812.983765 
	C879.411438,823.418823 891.836365,834.711121 900.706909,849.333679 
	C909.149902,863.251404 914.331787,878.439575 914.897278,894.653320 
	C915.470398,911.083740 914.352112,927.565735 914.441284,944.022583 
	C914.537720,961.831238 915.096985,979.639160 915.617920,997.442627 
	C915.788086,1003.257812 916.798279,1009.061401 916.737244,1014.863159 
	C916.716553,1016.831238 915.048889,1019.526917 913.329346,1020.594788 
	C907.821777,1024.015015 901.827148,1026.646240 896.274597,1030.002441 
	C894.852600,1030.861816 893.470337,1033.343628 893.598206,1034.959106 
	C894.452026,1045.742188 895.700867,1056.494507 896.860901,1067.252563 
	C897.510132,1073.273315 896.935608,1073.943481 891.024658,1074.079834 
	C866.053284,1074.656250 841.075989,1075.910522 816.113037,1075.667358 
	C790.363098,1075.416382 765.226440,1071.358765 740.901001,1061.806030 
	C708.874268,1049.228638 685.630615,1027.814453 670.583313,997.139832 
	C667.134583,990.109497 663.821350,983.012390 660.337402,975.999817 
	C659.025513,973.359192 657.406189,970.871338 655.635986,968.166992 
	C654.922485,953.607849 654.500000,939.195435 654.140259,924.308777 
	C658.108154,931.355713 661.677429,939.075500 665.985352,946.358398 
	C676.232239,963.681519 686.532288,980.986877 697.353882,997.953003 
	C713.187073,1022.776489 737.225464,1033.565186 765.558838,1036.989746 
	C792.339233,1040.226685 819.072083,1039.274292 845.837524,1037.216797 
	C850.150574,1036.885132 854.533264,1036.977661 858.755188,1036.187256 
	C860.369324,1035.885132 862.144592,1033.911743 862.952820,1032.262085 
	C867.099121,1023.799561 870.685974,1015.055603 875.010498,1006.690186 
	C877.673950,1001.537903 881.316406,996.892822 884.505005,992.010742 
	C889.250488,984.744812 892.006531,976.761353 892.594177,968.125793 
	C893.554871,954.006409 894.255005,939.869446 895.174255,925.746948 
	C897.158813,895.257446 887.344604,868.571960 870.057434,843.850647 
	C851.439880,817.226807 828.179932,796.608398 797.919373,784.268921 
	C797.304932,784.018250 796.685242,783.759155 796.121277,783.416321 
	C795.892578,783.277405 795.806824,782.903259 795.245667,781.909180 
	C797.380676,781.909180 799.108704,781.951172 800.834229,781.902832 
	C823.803040,781.260071 846.820068,781.311707 869.725586,779.740417 
	C889.998169,778.349731 909.592529,772.671692 927.299622,762.640503 
	C953.564697,747.761292 967.215881,723.190125 974.999573,695.099976 
	C978.771851,681.486633 979.913757,667.090698 984.268250,653.706848 
	C989.088135,638.892700 996.105103,624.780579 1002.373108,610.453674 
	C1009.845215,593.374512 1010.206543,591.901123 996.189514,579.877136 
	C969.180298,556.708252 940.261169,536.336731 904.523193,529.070801 
	C863.694275,520.769775 824.195251,524.172302 787.746033,546.183960 
	C773.544250,554.760437 761.641174,566.246765 750.423462,578.423767 
	C738.012756,591.895813 725.513611,605.286499 713.026733,618.688171 
	C712.156799,619.621826 711.070190,620.353638 708.881653,622.186584 
	C709.334900,619.229431 709.224976,617.414551 709.897461,615.961792 
	C715.055542,604.817993 719.710571,593.368591 725.803650,582.749634 
	C732.587952,570.925964 740.723938,559.877930 748.505554,548.270874 
	C759.726929,546.016602 769.053833,540.919067 776.974365,532.699707 
z"/>
<path fill="#A12018" opacity="1.000000" stroke="none" 
	d="
M440.064514,805.390503 
	C446.265320,801.212891 452.934570,797.180908 459.603821,793.148987 
	C459.587341,792.739746 459.570862,792.330566 459.554382,791.921326 
	C457.731873,791.921326 455.906097,791.992920 454.087372,791.910217 
	C435.482513,791.064209 416.853058,790.554626 398.281555,789.233398 
	C377.134827,787.729004 360.288361,777.808960 347.523682,761.000916 
	C330.012573,737.942871 312.318634,715.014099 295.297791,691.597595 
	C287.396942,680.728088 283.048767,668.026062 280.805878,654.679199 
	C280.435425,652.474854 279.338837,650.268250 278.123474,648.350708 
	C270.990570,637.097107 263.891327,625.814575 256.408905,614.794250 
	C253.801987,610.954712 254.201035,608.234131 256.611084,604.517822 
	C268.769287,585.769409 285.076263,571.208435 302.550018,557.689270 
	C327.236145,538.590027 352.942719,521.068726 380.698364,506.718689 
	C387.782990,503.055878 395.199890,499.983795 402.619415,497.030487 
	C423.405396,488.756683 443.699310,490.851593 463.620758,500.256958 
	C470.225647,503.375244 477.003235,506.127777 484.125488,509.099823 
	C500.150208,525.632812 515.744385,542.120117 531.364502,558.582703 
	C532.694946,559.984924 534.198303,561.223145 536.627319,563.466675 
	C537.453064,556.004883 538.147827,549.726929 539.045715,543.047363 
	C542.177917,547.252380 545.239807,551.780579 548.012695,556.479370 
	C559.103271,575.272827 570.637024,593.847656 578.110229,614.512451 
	C579.560913,618.523682 580.672852,622.657471 581.941101,626.734741 
	C581.529053,627.064819 581.117004,627.394836 580.705017,627.724915 
	C576.285583,623.692810 571.607361,619.906616 567.497742,615.580200 
	C557.175354,604.713379 547.188416,593.528870 536.926025,582.604126 
	C513.633728,557.808472 485.493347,540.507874 453.481171,529.434082 
	C439.376770,524.554993 425.070679,524.744263 410.710022,528.922119 
	C368.064514,541.328796 332.937408,565.487732 302.837982,597.568848 
	C300.446625,600.117615 298.409149,603.030823 295.841461,605.373779 
	C292.334320,608.573975 292.845978,611.359070 295.488678,614.815674 
	C303.362946,625.115051 309.706635,636.203369 311.491364,649.332703 
	C312.118042,653.943176 312.333832,658.607971 312.884857,663.230408 
	C314.371094,675.697327 321.255402,685.474182 328.722778,694.995911 
	C339.205200,708.362061 349.908203,721.575195 359.889465,735.309692 
	C374.571350,755.512390 395.543579,765.160828 418.511475,771.827087 
	C442.882538,778.900635 467.543152,777.873047 492.335876,774.723145 
	C506.332581,772.944763 520.391235,771.653503 534.950684,771.236633 
	C531.293518,773.589905 527.809814,776.286011 523.950012,778.238770 
	C504.051086,788.306152 484.055634,798.182800 463.736267,808.138123 
	C455.763428,807.278931 448.148193,806.407593 440.064514,805.390503 
z"/>
<path fill="#A22018" opacity="1.000000" stroke="none" 
	d="
M502.037506,484.519348 
	C502.807281,478.809357 503.735870,473.439270 504.454285,468.041199 
	C508.812653,435.292328 520.838623,405.292206 537.700378,377.187134 
	C546.773743,362.063690 556.733337,347.464142 566.581482,332.822144 
	C567.963135,330.767914 570.819092,329.100098 573.294556,328.500763 
	C580.565796,326.740234 588.079041,325.952850 595.310730,324.067719 
	C598.390503,323.264862 601.536560,321.171204 603.722473,318.804993 
	C608.341675,313.804810 612.319702,308.215637 616.612915,302.910309 
	C626.290039,290.951813 639.168030,288.195343 653.510742,290.709137 
	C677.778809,294.962494 698.792114,306.279510 717.346130,322.053802 
	C748.283020,348.355804 769.010864,381.867401 783.446594,419.355621 
	C789.288086,434.525330 789.965881,450.886078 791.032043,467.018219 
	C791.260925,470.480560 791.951294,473.912354 792.643066,477.680725 
	C782.943115,491.374329 773.028992,504.745453 762.840515,518.295410 
	C762.548889,513.668457 762.564697,508.862244 762.508606,504.056885 
	C762.291382,485.444275 762.914490,466.769867 761.581482,448.236603 
	C760.194702,428.955322 751.992126,412.223389 738.759155,397.781403 
	C720.072144,377.387177 701.987854,356.298828 678.127258,341.702667 
	C668.142334,335.594574 656.917480,331.504456 646.222168,326.571014 
	C642.278687,324.752014 639.226135,325.692749 636.123474,329.041199 
	C631.045837,334.521149 625.609558,339.754578 619.800842,344.443207 
	C615.451782,347.953644 610.359314,350.587738 605.440002,353.328735 
	C602.843018,354.775757 599.963806,355.789429 597.117065,356.702789 
	C581.623901,361.673584 570.767517,371.317352 562.871948,385.881927 
	C546.693481,415.725647 533.526062,446.488373 529.823914,480.476929 
	C528.426636,493.304688 529.145691,506.362976 528.831177,519.780884 
	C519.874634,508.445831 510.986938,496.646088 502.037506,484.519348 
z"/>
<path fill="#A22019" opacity="1.000000" stroke="none" 
	d="
M641.883606,971.502991 
	C640.766663,973.382385 639.478699,974.700684 638.744568,976.276917 
	C634.527649,985.330994 630.657410,994.551514 626.266296,1003.518188 
	C617.619751,1021.174561 603.831421,1033.674805 585.914551,1041.320068 
	C560.479370,1052.173340 534.881653,1062.653687 509.231476,1072.991089 
	C494.806396,1078.804688 479.512695,1078.698975 464.349640,1077.685181 
	C448.244965,1076.608276 432.179688,1074.858398 416.134827,1073.065552 
	C413.881592,1072.813843 411.014526,1071.170044 409.827148,1069.289551 
	C389.866425,1037.675049 375.762878,1003.691528 369.553680,966.685120 
	C365.665405,943.511414 365.419556,920.232117 369.407562,897.051392 
	C373.112488,875.516235 384.279724,857.679077 398.181152,841.318176 
	C399.568115,839.685913 400.671234,837.812439 402.080841,835.693237 
	C414.680023,830.602722 427.104370,825.869812 439.934875,821.128784 
	C433.553986,828.647156 426.603638,836.033813 420.018646,843.733032 
	C410.406128,854.972107 402.982971,867.493774 398.207550,881.603760 
	C393.664246,895.027954 395.289764,908.716736 396.406586,922.231812 
	C398.765015,950.772156 405.580231,978.415649 415.714874,1005.181580 
	C419.840881,1016.078552 424.571167,1026.759521 429.430023,1037.353516 
	C430.232727,1039.103760 433.125946,1040.982178 435.040955,1040.969482 
	C458.022247,1040.818115 481.067657,1041.257568 503.961121,1039.635132 
	C524.368958,1038.188843 543.361084,1030.091187 562.349426,1022.807800 
	C594.659973,1010.414429 613.639587,985.365356 626.887268,954.822876 
	C632.785400,941.224915 638.970642,927.751465 645.246155,913.969421 
	C644.885193,925.421997 644.380615,937.131226 643.694153,948.829712 
	C643.258911,956.248413 642.552917,963.651184 641.883606,971.502991 
z"/>
<path fill="#F1C9A8" opacity="1.000000" stroke="none" 
	d="
M588.080505,821.059204 
	C595.794189,809.758179 603.395142,798.809937 610.784302,787.720581 
	C617.156555,778.157349 619.103210,767.410034 617.829712,756.178162 
	C616.912292,748.086914 613.007996,741.375732 606.482117,736.305786 
	C576.384521,712.922729 542.168274,698.423584 504.977264,691.642090 
	C492.278961,689.326599 478.786469,691.344727 465.657104,691.423767 
	C458.831329,691.464844 451.990601,691.886536 445.189240,691.524048 
	C442.867798,691.400330 440.038300,689.945862 438.477478,688.182190 
	C428.592438,677.011902 422.889008,664.262695 424.996613,648.907837 
	C426.722076,636.336853 434.851135,627.988159 447.426178,627.903625 
	C455.069092,627.852234 463.115417,629.079163 470.280029,631.669495 
	C478.973419,634.812500 487.281158,639.440063 495.134705,644.407227 
	C515.940491,657.566040 538.482056,666.723206 562.161804,672.544067 
	C584.111816,677.939697 606.538879,681.393555 628.751831,685.723083 
	C632.050964,686.366150 633.858643,685.342957 635.024414,681.914307 
	C647.697327,644.641785 651.951050,606.486816 645.499817,567.628723 
	C643.735779,557.003174 638.451050,546.914856 634.407532,536.728699 
	C630.602234,527.142761 626.152466,517.814331 622.255798,508.262665 
	C616.176941,493.361877 621.500122,480.346191 629.163208,467.657440 
	C640.777527,448.426208 666.848633,455.753754 674.846863,469.279053 
	C680.682068,479.146606 682.664001,489.450165 681.838562,500.857574 
	C680.421143,520.446594 678.265503,540.168945 679.208313,559.700684 
	C680.868530,594.096497 684.578125,628.395508 687.572021,662.722534 
	C687.960632,667.178101 689.409546,671.532654 689.971924,675.983948 
	C690.492798,680.106995 692.535461,681.259766 696.395325,680.559021 
	C715.225220,677.140503 734.117065,674.043213 752.890808,670.344116 
	C763.337646,668.285645 773.578003,665.196472 783.943420,662.704956 
	C809.476868,656.567627 833.911743,647.383118 857.829956,636.640625 
	C864.492493,633.648193 871.568176,631.564392 878.485413,629.153015 
	C888.554016,625.643250 898.255249,627.184204 907.534912,631.817322 
	C913.493164,634.792175 919.329163,638.053650 924.982788,641.568237 
	C926.428223,642.466797 928.044434,645.030029 927.756104,646.460449 
	C926.015381,655.096558 924.240906,663.787048 921.523987,672.149536 
	C918.168518,682.476868 913.364197,685.134644 902.563416,685.889221 
	C876.003418,687.744690 849.074219,687.169495 823.137207,693.851562 
	C797.037659,700.575562 771.159485,708.364746 745.639343,717.027771 
	C735.783020,720.373535 727.216980,727.474365 717.990234,732.736694 
	C711.228027,736.593506 710.435425,742.719482 712.407898,749.100220 
	C715.588379,759.388977 718.098145,770.292603 723.471313,779.417114 
	C737.665100,803.520325 752.991455,826.973694 768.349915,850.368652 
	C781.061035,869.731018 798.811462,884.182190 816.999329,898.096252 
	C821.888977,901.836914 826.602234,905.816528 831.289429,909.812012 
	C847.485596,923.617676 854.285767,940.783386 849.888794,961.976135 
	C849.112366,965.718323 849.067139,969.629395 848.088013,973.303589 
	C847.718079,974.691711 845.691345,976.579102 844.367065,976.622498 
	C834.214355,976.955139 824.043152,977.119568 813.888733,976.875793 
	C805.442200,976.673035 798.391174,973.469055 793.937744,965.739319 
	C791.028076,960.689148 787.342285,956.015076 784.970215,950.738281 
	C773.074951,924.276489 756.897888,900.382751 740.351685,876.798157 
	C725.730652,855.957764 710.279358,835.673767 694.551941,815.648865 
	C688.637512,808.118347 680.845947,802.076233 674.050354,795.216675 
	C671.344543,792.485413 669.259094,792.860718 666.408875,795.138489 
	C645.762146,811.638062 626.991760,830.019287 610.309265,850.517700 
	C605.367676,856.589661 600.602295,862.804504 595.719055,868.924255 
	C584.794312,882.615234 577.220276,898.067749 570.731750,914.270203 
	C566.229553,925.512573 560.554688,936.319275 554.909058,947.060669 
	C549.019409,958.266357 539.017395,963.253540 526.650085,963.725525 
	C520.325195,963.966980 513.977966,964.039856 507.660217,963.756348 
	C506.086060,963.685730 503.971710,962.294678 503.163605,960.898254 
	C500.163483,955.713989 497.419586,950.359192 494.923828,944.910645 
	C491.211578,936.806396 490.694000,928.847839 495.122162,920.487122 
	C501.361877,908.705933 510.543152,899.645203 520.356079,891.081299 
	C529.141602,883.414001 538.155334,876.007446 547.091980,868.514038 
	C563.225769,854.985901 574.820923,837.538269 588.080505,821.059204 
z"/>
</svg>