<svg
        xmlns="http://www.w3.org/2000/svg"
        className="h-7 w-7 stroke-current"
        fill="none"
        viewBox="0 0 512 512"
        stroke="currentColor"
      >
        <path
          stroke-linecap="round"
          stroke-linejoin="round"
          stroke-width="6"
          d="
M275.094879,97.922180 
	C290.953339,99.289574 306.901611,100.012596 322.644684,102.207588 
	C338.047607,104.355156 353.372620,107.460564 368.496063,111.119965 
	C391.069641,116.582077 413.669495,122.069511 435.087921,131.483459 
	C444.831421,135.765976 455.409241,138.317215 464.779785,143.233536 
	C473.916992,148.027405 479.666962,156.191010 480.052826,167.301239 
	C480.326447,175.178391 479.580322,182.763184 475.088928,189.450165 
	C466.379822,202.416672 449.161774,206.015564 436.410004,195.087494 
	C431.616821,190.979843 427.811279,186.898697 427.966797,180.127655 
	C428.247681,167.898102 438.823914,160.811691 448.476532,163.676895 
	C450.728455,164.345352 452.992523,165.775726 454.607971,167.469009 
	C455.502350,168.406525 455.706207,171.676834 455.101685,172.041916 
	C453.571930,172.965881 450.834686,173.751465 449.604126,172.973770 
	C445.288544,170.246323 441.743164,170.308441 438.320587,174.166214 
	C435.607513,177.224228 434.608307,184.001282 437.693176,186.822632 
	C440.772247,189.638657 445.010101,191.679398 449.086365,192.801239 
	C455.635376,194.603622 461.899475,192.060303 466.933014,188.158661 
	C469.445526,186.211182 470.490234,182.078690 471.664642,178.746262 
	C476.960205,163.719986 466.523071,149.031815 450.716614,148.991211 
	C435.473206,148.952057 422.341675,155.304901 409.752991,162.869995 
	C399.457520,169.056976 391.985657,178.075729 386.658203,188.812683 
	C382.440765,197.312439 377.599396,205.613907 374.466858,214.507706 
	C371.636566,222.543304 370.831573,231.280991 368.983734,239.676102 
	C364.474457,260.163025 365.376495,280.960388 364.806061,301.725372 
	C364.253906,321.823120 361.639557,341.750000 355.128021,361.034363 
	C350.012024,376.185730 343.314240,390.489929 332.662262,402.374268 
	C326.110260,409.684326 317.587341,415.191315 310.644745,422.196960 
	C301.668793,431.254425 290.291168,433.166748 278.656860,433.796600 
	C271.362762,434.191467 263.887085,433.109894 256.628784,431.885223 
	C242.880173,429.565491 229.171936,426.927765 215.552917,423.939117 
	C199.797424,420.481659 184.101654,416.712769 168.493500,412.643494 
	C162.637238,411.116669 157.178116,408.126526 151.395020,406.242096 
	C145.719009,404.392609 139.652588,403.634277 134.119781,401.470642 
	C110.213898,392.122223 86.373367,382.596741 62.664070,372.761993 
	C56.246967,370.100159 50.231953,366.357483 44.290222,362.692871 
	C38.454197,359.093445 35.269447,353.257446 35.190189,346.639008 
	C35.106083,339.615906 35.221752,332.129761 37.553795,325.678619 
	C39.553688,320.146301 44.172115,315.057465 48.766224,311.082947 
	C55.810230,304.988922 64.445717,301.320740 74.020943,302.169556 
	C78.242401,302.543793 82.406250,304.509674 86.409943,306.195435 
	C93.876427,309.339233 101.167786,312.897278 108.614532,316.090515 
	C111.234306,317.213867 114.095894,317.773254 118.221832,318.998383 
	C122.970406,309.288452 128.402649,299.241699 132.866058,288.781586 
	C138.281540,276.090240 140.528549,262.604370 141.050888,248.793533 
	C141.474335,237.597366 141.653046,226.324051 143.171921,215.253937 
	C145.194138,200.515259 147.241272,185.680878 152.974274,171.719727 
	C159.162720,156.649475 166.468842,142.241119 178.100006,130.551682 
	C180.661163,127.977699 184.233582,126.437096 187.205063,124.237900 
	C191.705872,120.906876 195.725769,116.744652 200.588776,114.118469 
	C215.161865,106.248535 230.418365,100.038818 247.956635,97.976883 
	C257.599304,97.949493 266.347107,97.935837 275.094879,97.922180 
M257.744873,420.939545 
	C260.832458,422.135986 263.861542,423.522400 267.018097,424.495056 
	C278.799316,428.125336 290.827026,426.544434 300.484924,420.223846 
	C310.948822,413.375732 319.928131,403.929199 328.546753,394.676819 
	C338.855316,383.610321 343.860413,369.309448 348.826965,355.325195 
	C351.188690,348.675232 352.143433,341.461670 353.185181,334.421936 
	C354.715454,324.081146 356.771851,313.669769 356.796722,303.284149 
	C356.856354,278.373688 357.547821,253.674973 362.810638,229.132217 
	C367.071655,209.261459 374.708374,191.117630 386.107910,174.489075 
	C393.326599,163.959229 403.468231,156.697525 414.634888,150.852600 
	C417.883972,149.151947 421.444061,148.045395 426.126556,146.156143 
	C416.218994,143.207092 407.581940,140.298813 398.770599,138.083710 
	C380.431549,133.473419 362.002289,129.221619 343.606323,124.838455 
	C325.974091,120.637276 308.134949,117.857132 290.010925,116.982628 
	C284.583344,116.720741 279.111237,116.619324 273.754211,115.814377 
	C261.890381,114.031754 250.182938,113.474823 238.933563,118.569237 
	C224.848221,124.947952 210.224380,130.111343 198.716217,141.416199 
	C192.348557,147.671356 186.793671,153.390381 187.938416,163.077560 
	C188.326874,166.364883 187.479004,169.837692 188.101776,173.050186 
	C189.665985,181.118973 190.519379,189.647842 193.867218,196.983948 
	C201.713226,214.176804 217.738113,221.699875 234.876923,224.516510 
	C247.567734,226.602142 261.121948,226.476593 273.772003,221.043854 
	C285.378448,216.059280 295.903778,204.265793 293.289642,190.225311 
	C292.788269,190.863434 292.345123,191.310257 292.037292,191.836273 
	C282.250397,208.559860 259.240692,208.882233 246.275452,196.776016 
	C240.985092,191.836197 237.551315,185.994858 235.816803,178.819199 
	C233.751480,170.275024 235.303085,162.363876 241.266708,156.705200 
	C246.606674,151.638275 253.053818,147.989532 253.853989,139.724686 
	C253.923950,139.002075 254.565887,138.267395 255.089203,137.666351 
	C262.154572,129.551392 271.367004,125.192406 281.656799,123.046562 
	C293.548431,120.566673 304.562592,122.861694 315.724152,127.943047 
	C327.616333,133.357025 336.110535,142.246140 342.391296,152.601547 
	C347.870300,161.635147 350.406982,172.510223 353.721497,182.740845 
	C354.243225,184.351257 352.512268,187.944275 350.912903,188.703384 
	C348.339813,189.924683 346.337616,187.930130 345.916321,184.900330 
	C345.809143,184.129532 345.133850,183.430298 345.056000,182.664001 
	C344.210358,174.342270 341.696136,166.703384 337.288116,159.471130 
	C330.954926,149.080139 323.446320,140.310501 312.152130,134.940048 
	C296.723602,127.603683 281.880432,128.420944 267.556976,137.290573 
	C263.725586,139.663101 259.951477,142.432755 259.741028,148.240128 
	C259.553711,153.409607 258.900543,159.501297 250.846741,158.689804 
	C250.078506,158.612411 248.809586,159.431030 248.438461,160.168503 
	C246.506943,164.006668 243.353027,167.917389 243.254257,171.868561 
	C242.869888,187.246414 256.059875,199.474426 271.991302,196.882767 
	C280.439575,195.508423 287.219788,187.334244 288.121765,179.365234 
	C288.607941,175.070053 286.515411,171.551895 283.659271,170.707474 
	C280.848572,169.876495 276.686066,171.499924 273.939758,173.301254 
	C272.058289,174.535324 271.585938,177.917831 270.181091,181.004730 
	C273.152161,181.004730 274.644836,180.936646 276.129211,181.018753 
	C279.345062,181.196640 279.753784,183.601242 278.582733,185.541733 
	C277.630493,187.119644 275.413391,188.640182 273.593384,188.866028 
	C265.779114,189.835709 260.893341,182.321945 263.700531,174.701370 
	C267.658051,163.958130 276.653259,161.615051 286.320801,161.098770 
	C307.293884,159.978775 323.579895,169.372742 336.509613,185.156967 
	C339.090546,188.307755 340.769897,192.278091 342.462494,196.051086 
	C343.936646,199.337173 345.636414,202.829620 345.849396,206.315659 
	C346.464569,216.383026 344.620789,225.590027 337.398529,233.740204 
	C332.993408,238.711349 328.493195,242.878036 322.375458,244.924942 
	C315.921021,247.084518 309.226959,248.527740 302.731049,250.259033 
	C303.096619,253.277328 304.155029,257.055481 303.860718,260.725159 
	C303.395203,266.529755 302.199280,272.298431 301.003510,278.017731 
	C296.508667,299.516418 281.853943,311.999115 262.296112,318.652435 
	C254.326874,321.363464 245.093872,320.554260 236.417770,320.945831 
	C224.412689,321.487579 213.970184,316.828278 204.031876,310.601959 
	C199.905182,308.016632 195.511383,305.857605 191.239059,303.504730 
	C190.923508,303.830200 190.607941,304.155640 190.292389,304.481110 
	C194.124191,308.632690 197.259338,314.003784 201.936478,316.675537 
	C210.967148,321.834076 220.535339,326.735016 230.507935,329.356720 
	C239.335770,331.677490 249.122650,331.890198 258.294647,331.018646 
	C273.969452,329.529144 287.169617,321.027008 299.241302,311.752045 
	C306.571442,306.120148 312.342560,298.179871 317.927490,290.621490 
	C326.260925,279.343414 329.892609,265.935089 332.902771,252.454285 
	C333.594147,249.358063 334.732025,246.730469 337.910339,247.211258 
	C341.538391,247.760086 341.454071,251.281738 340.879059,254.050064 
	C339.737793,259.544464 338.618896,265.104340 336.752136,270.375549 
	C331.758118,284.476837 324.688812,297.460419 314.141144,308.255066 
	C311.541229,310.915863 308.359070,313.024139 305.363647,315.278870 
	C298.387146,320.530151 291.793854,326.484863 284.244690,330.731262 
	C275.076599,335.888336 264.715912,338.452148 254.259186,339.913208 
	C248.900101,340.661987 243.371933,341.282684 238.027023,340.793610 
	C230.287659,340.085419 222.655777,338.252319 214.959122,337.017029 
	C198.511887,334.377228 183.782898,327.813690 171.950623,316.140686 
	C166.026520,310.296356 161.719788,302.812561 157.083908,296.608734 
	C152.742432,306.303345 147.927353,317.055511 142.906876,328.266357 
	C148.415634,330.240295 153.349350,332.158234 158.378113,333.781769 
	C173.208588,338.569916 187.982178,343.570892 202.956177,347.867706 
	C218.515427,352.332428 234.517410,353.563354 250.713425,353.072723 
	C263.030304,352.699585 274.871033,350.252228 286.311401,345.963593 
	C306.494263,338.397736 319.159088,323.203003 328.053467,304.211487 
	C329.014221,302.160034 331.384277,299.304260 333.037781,299.345398 
	C336.517303,299.432037 337.204468,302.753326 337.004578,305.944244 
	C336.111847,320.194702 339.237854,334.696106 334.044678,348.686523 
	C330.695068,357.710297 328.558990,367.296906 324.283905,375.832245 
	C320.242615,383.900696 314.638306,391.365570 308.778076,398.298492 
	C301.350433,407.085876 292.447937,414.069336 280.499359,416.255005 
	C273.960541,417.451111 268.438629,416.243378 264.800385,411.212311 
	C261.431091,406.553223 261.407532,401.852936 264.489532,396.724487 
	C266.040344,394.143890 268.043152,393.240448 269.986816,394.279510 
	C271.180359,394.917603 271.406189,397.739838 271.647003,399.634613 
	C271.774994,400.641663 270.589417,401.825958 270.739746,402.817566 
	C270.996796,404.512878 271.350464,406.880981 272.519623,407.629547 
	C277.160797,410.601227 291.823761,403.618530 292.278198,397.965424 
	C292.645325,393.398834 292.329285,388.385742 290.751495,384.154205 
	C288.814117,378.958313 284.830811,373.980225 279.101013,373.212463 
	C267.620850,371.674133 257.000458,373.986267 249.435577,384.024719 
	C244.127792,391.067993 240.664398,402.945862 248.352707,410.897675 
	C251.364883,414.013031 254.193878,417.305511 257.744873,420.939545 
M370.400574,122.006691 
	C374.802124,123.092384 379.270264,123.964897 383.589569,125.313881 
	C390.021149,127.322563 396.287445,129.867584 402.737122,131.808899 
	C408.298737,133.482910 414.090607,134.395203 419.644745,136.089798 
	C424.019012,137.424393 428.264893,139.356644 428.433960,145.166595 
	C432.363403,143.954971 435.882294,142.869934 439.355225,141.799072 
	C433.708618,139.124863 428.485687,136.157623 422.918213,134.142197 
	C416.277893,131.738419 409.351349,130.118011 402.532715,128.215851 
	C390.281891,124.798294 378.144562,120.835480 365.728241,118.185669 
	C351.424652,115.133080 336.896027,113.082291 322.415985,110.926498 
	C311.775574,109.342354 301.067535,108.181343 290.367065,107.044067 
	C284.801208,106.452515 279.046051,106.991554 273.620239,105.855324 
	C257.409210,102.460548 241.659134,105.987167 226.704559,110.648460 
	C214.916855,114.322655 203.946884,121.475777 193.554291,128.479446 
	C186.225739,133.418243 178.838486,139.717621 174.391281,147.152466 
	C167.332153,158.953949 161.371857,171.811829 157.435287,184.967453 
	C153.647278,197.626587 152.748093,211.197296 151.104538,224.432663 
	C150.170425,231.954910 150.586746,239.637070 149.845581,247.193344 
	C149.165878,254.122955 147.472687,260.950073 146.716675,267.875946 
	C145.336533,280.519897 140.922989,292.129242 135.227661,303.318634 
	C131.611893,310.422455 127.773415,317.418488 123.842468,324.353821 
	C122.148666,327.342194 119.504402,328.422089 116.043861,326.985657 
	C104.707535,322.280182 93.279121,317.791626 82.005081,312.943054 
	C76.140701,310.420990 70.215775,308.268219 64.225266,311.473206 
	C59.218887,314.151672 54.301506,317.320068 50.099915,321.108948 
	C42.406803,328.046356 41.721134,337.729309 42.839230,347.051331 
	C43.471237,352.320648 47.623535,356.600922 52.899658,358.989166 
	C63.660450,363.859985 74.315849,368.979309 85.194420,373.570282 
	C98.436073,379.158508 111.752373,384.608643 125.239220,389.566711 
	C140.091385,395.026672 155.025375,400.365631 170.198441,404.822052 
	C184.929413,409.148651 199.968643,412.464447 214.948944,415.889893 
	C225.138458,418.219879 235.459656,419.974030 245.721954,421.985657 
	C245.258957,419.945404 244.138855,418.848877 243.164612,417.635284 
	C239.220642,412.722382 236.605255,407.447479 235.848206,400.895386 
	C234.388702,388.263672 247.094147,369.940491 260.962036,366.886200 
	C277.984985,363.137024 284.948212,363.030151 295.035736,376.753937 
	C298.667236,381.694489 300.117981,388.237946 302.634705,394.218079 
	C306.109711,389.221436 310.406677,383.734344 313.925751,377.786957 
	C317.392944,371.927307 320.630280,365.803528 322.941345,359.423584 
	C325.290894,352.937256 326.626587,346.044617 327.984070,339.245636 
	C331.288940,322.692810 331.190430,322.673157 329.086945,319.170288 
	C326.211639,323.133789 323.268829,326.886383 320.653931,330.855011 
	C314.214386,340.628418 304.424744,346.992920 294.451202,351.254730 
	C282.576843,356.328766 269.358154,359.273651 256.452972,360.689178 
	C235.083740,363.033142 213.880035,359.938019 193.277237,353.666473 
	C184.830505,351.095306 176.558350,347.951813 168.201050,345.085297 
	C158.750656,341.843811 149.236298,338.777954 139.858688,335.338684 
	C132.841003,332.764923 132.463928,330.777039 135.704971,323.677643 
	C140.809525,312.496338 145.907623,301.295441 150.469940,289.887482 
	C155.855316,276.421539 156.829239,262.042328 157.980606,247.762466 
	C158.747375,238.252457 159.384354,228.731003 159.980118,219.208435 
	C161.032166,202.392929 165.570633,186.394897 170.961517,170.547485 
	C178.784958,147.549210 193.733093,130.810822 215.438614,120.345314 
	C225.302200,115.589493 235.681381,111.831490 246.020935,108.169319 
	C250.189041,106.693016 254.860825,106.317841 259.333649,106.117516 
	C263.400757,105.935356 267.508362,106.677025 271.599121,106.998367 
	C280.284393,107.680626 289.003479,108.074821 297.647858,109.100128 
	C309.285828,110.480492 320.928345,112.003204 332.454865,114.093697 
	C344.886444,116.348335 357.186432,119.328682 370.400574,122.006691 
M201.072586,300.384521 
	C203.574554,301.884949 205.999481,303.537384 208.595062,304.853088 
	C213.485916,307.332245 218.366653,311.276459 223.447952,311.608704 
	C231.853439,312.158386 240.054962,316.499725 248.817795,313.124908 
	C252.510361,311.702789 256.869141,312.093384 260.688019,310.900757 
	C272.045807,307.353699 281.654785,300.477844 287.779358,290.643127 
	C296.035614,277.385406 298.312531,262.510559 293.602295,247.082184 
	C292.347931,242.973618 293.700012,241.246078 297.885101,240.992203 
	C302.806946,240.693649 307.862946,240.950317 312.620117,239.888229 
	C330.657440,235.861206 341.598969,221.789093 337.105316,202.495010 
	C335.340240,194.916412 330.500092,189.426575 324.888885,184.259888 
	C316.167694,176.229584 306.360626,170.747635 294.148865,168.886703 
	C295.434174,170.838913 296.599152,172.352951 297.495422,174.012131 
	C302.384430,183.062622 302.726135,192.738632 300.699493,202.496460 
	C299.230255,209.570450 295.461456,215.901535 289.907928,220.246490 
	C284.800812,224.242203 278.645142,227.125229 272.594391,229.639130 
	C260.658966,234.597992 247.910233,233.705170 235.536682,232.536255 
	C224.978256,231.538818 215.161041,227.302490 205.942703,221.613342 
	C196.292404,215.657623 189.232880,207.804260 185.719009,197.150742 
	C182.989426,188.874985 181.145264,180.307159 178.771606,171.356491 
	C175.852631,180.911209 171.842682,190.179642 170.342407,199.837921 
	C168.000839,214.911972 167.317978,230.246674 166.020844,245.478470 
	C165.517609,251.387802 165.598267,257.364410 164.798737,263.226593 
	C163.732468,271.044495 162.350128,278.589233 163.781448,286.715851 
	C166.179977,300.334045 175.471954,308.568512 184.894135,316.888458 
	C186.818207,318.587433 189.696869,319.205383 192.845459,320.646667 
	C188.729309,314.962189 184.557465,310.440216 181.823547,305.172028 
	C175.778458,293.523346 173.129562,281.522888 176.653473,268.006317 
	C179.537476,256.944244 185.851303,249.338913 195.466629,245.261368 
	C208.461456,239.750748 223.902649,242.376053 234.126114,253.595169 
	C240.156464,260.212799 242.260086,273.507935 237.777039,279.490967 
	C232.553177,286.462738 225.200439,289.849365 216.735031,290.476746 
	C214.914185,290.611725 212.920639,288.416016 211.006638,287.293915 
	C212.163376,285.584595 213.096939,283.641357 214.556198,282.249146 
	C215.511856,281.337433 217.252213,281.282410 218.599747,280.740814 
	C222.682571,279.099945 223.483612,276.272217 222.105881,272.151398 
	C218.931396,262.656372 201.303497,257.388000 191.710114,266.732880 
	C186.264603,272.037354 183.298447,278.019073 187.598846,286.637421 
	C190.730225,292.912872 195.463699,296.362457 201.072586,300.384521 
M231.999863,268.545105 
	C231.697220,267.138733 231.463043,265.713470 231.081329,264.328888 
	C227.245712,250.416107 204.641632,247.191132 194.944611,255.180023 
	C212.589279,251.400131 225.197754,256.609802 231.999908,274.977997 
	C231.999908,272.020844 231.999908,270.697357 231.999863,268.545105 
M190.520859,302.628571 
	C190.148865,302.277100 189.776871,301.925659 189.404877,301.574188 
	C189.549210,302.059753 189.693542,302.545319 190.520859,302.628571 
M194.682465,321.308594 
	C194.179108,321.142273 193.675751,320.975922 193.172394,320.809601 
	C193.504333,321.170868 193.836273,321.532166 194.682465,321.308594 
z"/>

</svg>